<svg width="41" height="41" viewBox="0 0 41 41" fill="none" xmlns="http://www.w3.org/2000/svg">
<path d="M20.5 3.83753C17.3454 3.83576 14.2559 4.73528 11.5953 6.43021C8.93469 8.12515 6.81369 10.5449 5.482 13.4047C4.1503 16.2644 3.66332 19.4451 4.07841 22.5723C4.49349 25.6995 5.79336 28.643 7.825 31.0563C7.9875 31.2563 8.15625 31.4438 8.35 31.6813C8.40494 31.7348 8.45706 31.7912 8.50625 31.85C8.6 31.95 8.7 32.0438 8.79375 32.1375L8.90625 32.25L9.0625 32.4C9.2625 32.5938 9.4625 32.775 9.65625 32.9313C9.85 33.0875 10.1125 33.325 10.3313 33.4875C10.55 33.65 10.7313 33.7938 10.9563 33.9375L11.1313 34.0563C11.2625 34.15 11.4 34.2438 11.5125 34.3125L11.8938 34.55H11.9313C12.4 34.8313 12.85 35.075 13.3063 35.3H13.375C13.575 35.4 13.7813 35.4875 14 35.5688C14.7739 35.9 15.5721 36.1717 16.3875 36.3813C16.6313 36.4438 16.875 36.5 17.125 36.55C17.375 36.6 17.6 36.65 17.8188 36.6813L18.1125 36.725C18.2875 36.7563 18.475 36.775 18.65 36.7938L18.975 36.8313C19.1625 36.8313 19.3625 36.8313 19.5625 36.8688H19.725C19.9875 36.8688 20.25 36.8688 20.5125 36.8688C20.775 36.8688 21.0375 36.8688 21.3 36.8688H21.4625C21.6625 36.8688 21.8625 36.8688 22.0875 36.825L22.3688 36.7938C22.5625 36.7938 22.75 36.7563 22.8688 36.7313L23.1875 36.6813C23.4375 36.6813 23.675 36.6 23.9125 36.55L24.6688 36.3813C25.4726 36.17 26.2601 35.9005 27.025 35.575C27.2313 35.4875 27.4313 35.4 27.65 35.3L27.2375 34.4563L27.7188 35.2688C28.175 35.0438 28.625 34.8 29.0938 34.5188L29.15 34.4813L29.475 34.275C29.6108 34.1967 29.7422 34.1112 29.8688 34.0188L30.0438 33.9C30.2563 33.7563 30.4688 33.5938 30.6688 33.45C30.8688 33.3063 31.1375 33.075 31.3438 32.8938C31.55 32.7125 31.7625 32.5375 31.925 32.375L32.1125 32.1938L31.9875 32.0688C32.1968 32.0352 32.3884 31.9316 32.5313 31.775L32.6938 31.6C32.8625 31.4188 33.0313 31.2313 33.1938 31.0313C35.2187 28.6162 36.5123 25.6734 36.9224 22.5485C37.3326 19.4237 36.8424 16.2467 35.5093 13.3908C34.1763 10.535 32.0558 8.11903 29.3969 6.42673C26.7382 4.73445 23.6516 3.83619 20.5 3.83753ZM31.75 29.85V29.8813C31.6 30.0563 31.4563 30.225 31.325 30.3625L31.1188 30.5813C30.9978 30.7167 30.9176 30.8835 30.8875 31.0625L30.7625 30.9375L30.6313 31.0625C30.4688 31.2188 30.3063 31.3688 30.1188 31.525C29.9313 31.6813 29.725 31.8563 29.4938 32.025C29.2625 32.1938 29.1438 32.2938 28.9375 32.4438L28.8063 32.525C28.7063 32.6 28.6 32.6688 28.4563 32.7563L28.1625 32.9438H28.125C27.7063 33.2 27.3063 33.425 26.9438 33.5688C26.9006 33.5842 26.8588 33.603 26.8188 33.625C26.65 33.7063 26.4875 33.7813 26.3 33.8563C25.6221 34.145 24.9244 34.3852 24.2125 34.575L23.5125 34.775C23.3063 34.8188 23.1063 34.8625 22.8875 34.8938C22.8125 34.8938 22.7375 34.925 22.6 34.9375C22.4625 34.95 22.325 34.975 22.1688 34.9938H21.9C21.7313 34.9938 21.5625 35.025 21.3875 35.0313H21.1875C20.7276 35.0625 20.2661 35.0625 19.8063 35.0313H19.6375C19.4625 35.0313 19.2938 35.0313 19.15 34.9938H18.8438L18.3688 34.9313L18.1063 34.8938C17.8938 34.8938 17.6938 34.8188 17.4813 34.775C17.2688 34.7313 17.025 34.675 16.8188 34.625C16.0953 34.437 15.387 34.1946 14.7 33.9C14.5313 33.8313 14.3625 33.7563 14.2125 33.6813L14.1188 33.6375C13.6898 33.436 13.2725 33.2107 12.8688 32.9625H12.8313L12.5 32.7563C12.3938 32.6875 12.2875 32.6188 12.1875 32.5438L12.1188 32.5063C12.0898 32.476 12.056 32.4506 12.0188 32.4313C11.8438 32.3063 11.6688 32.1813 11.475 32.0313C11.2813 31.8813 11.075 31.7125 10.85 31.525C10.625 31.3375 10.5125 31.2313 10.325 31.05L10.2188 30.95L10.0938 30.825L9.875 30.5688L9.73125 30.4C9.575 30.2375 9.43125 30.0688 9.28125 29.8938V29.8625C7.48369 27.7209 6.33482 25.1107 5.96959 22.3387C5.60435 19.5666 6.03795 16.7479 7.21944 14.2138C8.40088 11.6797 10.2811 9.5354 12.6393 8.03303C14.9973 6.53065 17.7353 5.73256 20.5313 5.73256C23.3273 5.73256 26.0652 6.53065 28.4233 8.03303C30.7813 9.5354 32.6616 11.6797 33.8431 14.2138C35.0245 16.7479 35.4581 19.5666 35.0929 22.3387C34.7277 25.1107 33.5788 27.7209 31.7813 29.8625L31.75 29.85Z" fill="black"/>
<path d="M28.994 19.6207H21.3393V12.5127C21.3393 12.3061 21.2509 12.1078 21.0935 11.9617C20.9361 11.8155 20.7226 11.7334 20.5 11.7334C20.2774 11.7334 20.0639 11.8155 19.9065 11.9617C19.7491 12.1078 19.6607 12.3061 19.6607 12.5127V19.6207H12.006C11.7834 19.6207 11.5699 19.7028 11.4125 19.849C11.2551 19.9951 11.1667 20.1933 11.1667 20.4C11.1667 20.6067 11.2551 20.805 11.4125 20.9512C11.5699 21.0973 11.7834 21.1794 12.006 21.1794H19.6607V28.2873C19.6607 28.494 19.7491 28.6923 19.9065 28.8384C20.0639 28.9846 20.2774 29.0667 20.5 29.0667C20.7226 29.0667 20.9361 28.9846 21.0935 28.8384C21.2509 28.6923 21.3393 28.494 21.3393 28.2873V21.1794H28.994C29.2166 21.1794 29.4301 21.0973 29.5875 20.9512C29.7449 20.805 29.8333 20.6067 29.8333 20.4C29.8333 20.1933 29.7449 19.9951 29.5875 19.849C29.4301 19.7028 29.2166 19.6207 28.994 19.6207Z" fill="black"/>
</svg>
