<svg width="100" height="100" viewBox="0 0 100 100" fill="none" xmlns="http://www.w3.org/2000/svg">
<path d="M0.364972 5.83037C9.02806 13.0328 13.8901 20.9484 19.2825 29.8623C20.7852 32.2869 30.067 27.4378 29.3598 25.0132C26.5311 15.5288 18.752 7.18529 10.1773 0.481998C7.26017 -1.65735 -1.9334 3.90496 0.364972 5.83037Z" fill="#4E53BA"/>
<path d="M52.8738 4.97456C52.6086 13.7459 50.3103 22.0181 48.2771 30.5755C47.3047 34.355 56.3213 29.9337 57.2937 27.937C61.2717 19.5222 62.4208 9.9664 62.3324 0.981131C62.1556 -1.6574 52.9622 2.33603 52.8738 4.97456Z" fill="#4E53BA"/>
<path d="M74.4433 41.3435C81.1616 38.7049 87.9684 36.0665 94.8635 33.6419C97.3386 32.7861 100.609 30.4328 99.9022 27.9369C99.195 25.5123 95.3055 25.655 93.0955 26.4394C86.2888 28.9353 79.482 31.5025 72.6753 34.141C70.2885 35.1394 66.9294 37.2787 67.6366 39.8459C68.3438 42.2705 72.2333 42.1992 74.4433 41.3435Z" fill="#4E53BA"/>
<path d="M29.0062 91.6182C30.1554 89.6215 25.8239 85.9133 19.2823 83.4174C12.7408 80.9215 6.46448 80.4937 5.31529 82.5617C4.16611 84.5584 8.49765 88.2666 15.0392 90.7625C21.5807 93.2585 27.857 93.615 29.0062 91.6182Z" fill="#2B31BA"/>
<path d="M7.52533 79.1387C9.7353 75.6444 11.6801 71.9362 12.3873 68.0141C14.0668 59.5993 10.9729 49.9009 17.2492 43.1263C21.8459 38.2058 30.2438 36.4944 37.7577 37.2075C46.9512 37.9919 55.9678 42.1993 60.4761 48.6887C64.9845 55.2493 64.1889 64.1633 57.8242 69.583C52.4319 74.1469 44.2108 75.7158 38.4649 79.9945C35.2826 82.4191 33.161 85.4855 30.7743 88.5519L29.9785 89.4789C12.2104 88.4092 7.52533 79.1387 7.52533 79.1387Z" fill="#868AE0"/>
<path d="M38.4648 65.3755C37.6692 63.1648 35.2824 63.3787 33.1609 64.1631C32.6305 62.9508 31.7466 61.382 30.1554 60.9541C28.3874 60.4549 26.4425 61.4533 25.1165 62.309C22.1993 64.2345 19.9894 67.087 18.7518 69.9394C17.5142 72.7919 16.8955 75.8583 15.7464 78.7107C15.3044 79.8517 17.6026 80.3509 18.0446 79.1386C19.459 75.4304 19.9894 71.4369 22.2878 68.014C23.6138 66.0886 25.5585 63.9492 28.0337 62.9509C28.8293 62.6656 29.448 62.523 29.9784 63.2361C30.4204 63.7353 30.7741 64.3058 30.9509 64.8762C30.9509 64.9476 31.0394 64.9476 31.0394 65.0189C30.6858 65.1615 30.5089 65.3041 30.2437 65.4468C27.8569 67.0156 24.7631 69.7254 24.8515 72.364C24.9399 73.5763 25.9122 74.5747 27.415 74.646C29.0945 74.7173 30.774 73.5763 31.7464 72.5779C33.6912 70.6525 34.2217 68.1566 33.6914 65.8033C34.2217 65.5181 34.752 65.3755 35.2824 65.3755C36.6967 65.3042 36.1664 67.2296 35.9896 67.8714C35.2824 70.082 33.868 72.0075 32.4536 73.9329C31.3929 75.3591 30.4204 76.928 29.0944 78.2116C27.6801 79.6378 25.6469 80.6362 23.7905 81.7059C22.5529 82.3477 23.7906 83.9878 25.0282 83.346C27.2382 82.1337 29.4481 80.9214 31.1277 79.21C32.8072 77.3558 34.31 75.2878 35.7244 73.3623C37.2271 71.1517 39.4372 67.9427 38.4648 65.3755ZM31.4814 68.7984C31.2162 69.7967 30.6857 70.7951 29.8017 71.5796C29.2713 72.0074 27.0614 73.6476 27.2382 72.2214C27.3266 71.3656 28.1221 70.4386 28.6524 69.7255C29.448 68.7984 30.4206 67.9427 31.4814 67.2296C31.5698 67.7287 31.5698 68.2992 31.4814 68.7984Z" fill="#110580"/>
<path d="M15.039 90.6912C9.11633 88.4092 5.05003 85.2715 5.13843 83.2034L2.57473 91.6181C1.60234 93.2583 5.13842 96.2534 10.4424 98.2502C15.7463 100.247 20.7851 100.603 21.7574 98.9633C21.8458 98.892 21.8457 98.8206 21.8457 98.678L28.5641 92.0461C26.5309 93.4723 20.9618 92.9731 15.039 90.6912Z" fill="#110580"/>
</svg>
