<svg width="78" height="84" viewBox="0 0 78 84" fill="none" xmlns="http://www.w3.org/2000/svg">
<path d="M41.3636 0L34.4909 0.509044L37.5455 42.2545L44.4182 41.7454L41.3636 0Z" fill="#DADAED"/>
<path d="M37.1636 5.91812L34.8091 6.10906L34.8728 6.61811L37.2273 6.42724L37.1636 5.91812Z" fill="#989BD7"/>
<path d="M37.5455 10.5636L35.1909 10.7545L35.2545 11.2636L37.609 11.0727L37.5455 10.5636Z" fill="#989BD7"/>
<path d="M37.9272 15.2727L35.5727 15.4636L35.6364 15.9727L37.9909 15.7818L37.9272 15.2727Z" fill="#989BD7"/>
<path d="M38.2454 19.9181L35.8908 20.1091L35.9545 20.6181L38.3091 20.4272L38.2454 19.9181Z" fill="#989BD7"/>
<path d="M38.5636 24.6272L36.209 24.8182L36.2727 25.3272L38.6273 25.1363L38.5636 24.6272Z" fill="#989BD7"/>
<path d="M34.2999 14.3182L29.9091 15.0818L35.6999 48.0454L40.0909 47.2818L34.2999 14.3182Z" fill="#FFADB2"/>
<path d="M34.2999 14.3182L29.9091 15.0818L30.609 8.78177L31.5 8.59091L34.2999 14.3182Z" fill="#EBDBCD"/>
<path d="M30.8636 11.709L31.5 11.3272L32.0091 11.3908L32.709 11.0727L31.5636 8.71814L30.6727 8.90908L30.3545 11.3908L30.8636 11.709Z" fill="#FF7A82"/>
<path d="M44.4818 41.1727C43.7182 41.0454 43.2091 40.3454 43.3363 39.5818L46.7728 17.5636C46.8364 17.3727 46.8364 17.1818 46.9 17.0545L48.8728 11.5182C49.1274 10.8818 49.8274 10.5 50.4637 10.6272L50.7819 10.6909C51.4819 10.8181 51.9272 11.4545 51.9272 12.1545L51.4818 18.009C51.4818 18.1999 51.4183 18.3909 51.4183 18.5818L46.2 40.2181C45.9454 40.8545 45.2454 41.3636 44.4818 41.1727Z" fill="#2B31BA"/>
<path d="M70.2545 56.2545H41.6818V65.7999H70.2545V56.2545Z" fill="#F8D7BC"/>
<path d="M71.4637 55.5545V56.2545H41.6181V65.7999H71.4637V66.5H10.1181V55.4909H71.4637V55.5545Z" fill="#FF7A82"/>
<path d="M32.709 82.9181H74.9V67.5182H32.709C30.609 67.5182 28.9546 69.2364 28.9546 71.2727V79.0999C28.9546 81.2636 30.609 82.9181 32.709 82.9181Z" fill="#F8ECE2"/>
<path d="M7.76361 66.5636H76.8091C77.0636 66.5636 77.3182 66.8181 77.3182 67.0727C77.3182 67.3272 77.0636 67.5818 76.8091 67.5818H68.3454H36.6545C32.3908 67.5818 28.9545 71.0181 28.9545 75.2818C28.9545 79.5454 32.3908 82.9818 36.6545 82.9818H75.7908H76.8091C77.0636 82.9818 77.3182 83.2363 77.3182 83.4909C77.3182 83.7454 77.0636 84 76.8091 84H7.69991C3.43627 84 0 80.5636 0 76.2999V74.3909C0.0636364 69.9999 3.49997 66.5636 7.76361 66.5636Z" fill="#2B31BA"/>
<path d="M74.9637 70H34.9363V70.509H74.9637V70Z" fill="#EBD0BE"/>
<path d="M74.9637 76.3636H32.0091V76.8727H74.9637V76.3636Z" fill="#EBD0BE"/>
<path d="M74.9637 79.6727H37.2908V80.1818H74.9637V79.6727Z" fill="#EBD0BE"/>
<path d="M74.9637 73.3727H33.2819V73.8818H74.9637V73.3727Z" fill="#EBD0BE"/>
<path d="M42.1909 55.1727H15.9091V49.6364H42.1909C42.9546 49.6364 43.5272 50.2091 43.5272 50.9727V53.7727C43.5272 54.5364 42.9546 55.1727 42.1909 55.1727Z" fill="#F8E7D8"/>
<path d="M58.5454 49.2545H14.8273C14.7637 49.2545 14.6364 49.3182 14.6364 49.4454C14.6364 49.5727 14.7 49.6364 14.8273 49.6364H40.7273C42.2545 49.6364 43.4637 50.909 43.4637 52.3727C43.4637 53.9 42.1909 55.1091 40.7273 55.1091H14.8273C14.7637 55.1091 14.6364 55.1727 14.6364 55.2999C14.6364 55.3636 14.7 55.4909 14.8273 55.4909H58.5454C60.0727 55.4909 61.2818 54.2181 61.2818 52.7545V51.9273C61.2818 50.4636 60.0727 49.2545 58.5454 49.2545Z" fill="#FF5856"/>
<path d="M31.2453 26.1545H50.4636C50.9727 26.1545 51.3544 26.6 51.2908 27.1091L48.4908 49.2545H33.0909L30.4182 27.1091C30.3545 26.6 30.7362 26.1545 31.2453 26.1545Z" fill="#AAACE3"/>
<path d="M50.8454 10.4363L50.5272 10.3727C49.8272 10.2454 49.1273 10.6272 48.8728 11.2636L46.8363 16.9273C46.7726 16.9909 46.7727 17.0545 46.7727 17.1818C47.4091 17.6909 48.2363 18.1363 49.1273 18.2636C49.9545 18.3909 50.7818 18.3273 51.4818 18.1364C51.4818 18.0727 51.5455 18.0091 51.5455 17.8818L51.9909 11.9C52.0545 11.2 51.5454 10.6272 50.8454 10.4363Z" fill="#D7D7E6"/>
<path d="M50.9092 1.90914C51.1001 1.52732 51.6091 1.52732 51.8 1.90914C52.1182 2.5455 52.5001 3.30914 52.8183 3.81823C53.3274 4.77277 53.6456 6.93639 53.3274 8.01821C53.0092 9.29094 52.1183 10.5636 51.8637 11.0091C51.8001 11.0727 51.7363 11.1364 51.6091 11.2C51.3545 11.2637 50.8456 11.3909 50.1456 11.2636C49.191 11.0091 49.1273 10.4363 49.1273 10.4363C49.1273 10.4363 48.6183 8.40001 48.6819 7.12729C48.7455 5.85456 49.4455 4.26363 49.7637 4.00909C49.9546 3.69091 50.5274 2.67277 50.9092 1.90914Z" fill="#C7645D"/>
<path d="M76.8091 82.9182H75.7908H72.4182C72.1637 83.3 71.9091 83.6182 71.5909 83.8727H76.7454C76.9999 83.8727 77.2545 83.6182 77.2545 83.3637C77.2545 83.1727 77.0636 82.9182 76.8091 82.9182Z" fill="#2B31BA"/>
<path d="M76.8091 67.5182C77.0636 67.5182 77.3182 67.2636 77.3182 67.009C77.3182 66.7545 77.0636 66.5 76.8091 66.5H73.3091V67.4545L76.8091 67.5182Z" fill="#2B31BA"/>
</svg>
