<svg width="79" height="87" viewBox="0 0 79 87" fill="none" xmlns="http://www.w3.org/2000/svg">
<path d="M24.2969 30.1591C13.0327 30.6691 3.4817 21.9454 2.97172 10.6812C2.46173 -0.582932 11.1853 -10.1339 22.4495 -10.6439C33.7137 -11.1539 43.2649 -2.4303 43.7749 8.83388C44.2849 20.0981 35.5611 29.6492 24.2969 30.1591Z" fill="#EBDBCD"/>
<path d="M5.85034 51.5956C6.00788 51.5884 6.16174 51.5026 6.30859 51.2592C6.37666 51.0193 6.28715 50.7865 6.0437 50.6397L3.87414 49.7907L4.72306 47.6211C4.79113 47.3812 4.70182 47.1485 4.45837 47.0017C4.21849 46.9336 3.98571 47.023 3.83887 47.2665L2.71398 50.3168L5.85034 51.5956C5.6928 51.6027 5.77157 51.5991 5.85034 51.5956Z" fill="#110580"/>
<path d="M50.03 68.539C50.1876 68.5319 50.3414 68.446 50.4883 68.2026C50.5563 67.9627 50.4668 67.7299 50.2234 67.5831L44.6813 65.4661C44.4414 65.398 44.2087 65.4875 44.0618 65.7309C43.9937 65.9708 44.0832 66.2035 44.3267 66.3503L49.8688 68.4674C49.8723 68.5462 49.9513 68.5426 50.03 68.539ZM38.9457 64.3049C39.1032 64.2978 39.2571 64.212 39.4039 63.9685C39.472 63.7287 39.3827 63.4959 39.1392 63.349L33.597 61.232C33.3571 61.1639 33.1243 61.2534 32.9775 61.4969C32.9094 61.7367 32.9989 61.9694 33.2423 62.1163L38.7846 64.2333C38.867 64.3085 38.8669 64.3085 38.9457 64.3049ZM27.9402 60.0673C28.0977 60.0602 28.2516 59.9743 28.3984 59.7309C28.4665 59.491 28.377 59.2582 28.1335 59.1114L22.5915 56.9943C22.3516 56.9263 22.1188 57.0158 21.972 57.2592C21.9039 57.4991 21.9934 57.7318 22.2368 57.8786L27.7789 59.9957C27.7825 60.0744 27.8614 60.0709 27.9402 60.0673ZM16.8523 55.7545C17.0098 55.7473 17.1637 55.6614 17.3105 55.418C17.3786 55.1781 17.2893 54.9454 17.0458 54.7985L11.5036 52.6815C11.2637 52.6134 11.0309 52.7029 10.8841 52.9463C10.816 53.1862 10.9055 53.419 11.1489 53.5658L16.6912 55.6828C16.7735 55.758 16.7735 55.758 16.8523 55.7545Z" fill="#110580"/>
<path d="M61.1086 63.933C61.2662 63.9259 61.4202 63.8399 61.5671 63.5965L63.5444 58.4553C63.6125 58.2154 63.523 57.9827 63.2796 57.8359C63.0397 57.7678 62.8069 57.8572 62.66 58.1007L60.6827 63.2419C60.6146 63.4818 60.7041 63.7145 60.9476 63.8614C60.9511 63.9401 61.0299 63.9366 61.1086 63.933ZM65.0634 53.6506C65.2209 53.6435 65.375 53.5577 65.5218 53.3142L67.499 48.173C67.567 47.9332 67.4777 47.7004 67.2343 47.5535C66.9944 47.4854 66.7616 47.575 66.6148 47.8184L64.6374 52.9596C64.5693 53.1995 64.6589 53.4322 64.9023 53.579C64.9059 53.6578 64.9846 53.6542 65.0634 53.6506ZM69.0217 43.4471C69.1792 43.44 69.3331 43.354 69.4799 43.1106L71.4573 37.9694C71.5253 37.7295 71.4358 37.4968 71.1924 37.35C70.9525 37.2819 70.7197 37.3713 70.5729 37.6148L68.5957 42.756C68.5276 42.9958 68.617 43.2286 68.8604 43.3755C68.864 43.4542 68.9429 43.4507 69.0217 43.4471Z" fill="#110580"/>
<path d="M72.8975 33.1683C73.055 33.1611 73.2089 33.0753 73.3557 32.8319L74.4806 29.7815L71.4302 28.6567C71.1903 28.5886 70.9575 28.6781 70.8107 28.9215C70.7426 29.1614 70.8321 29.3942 71.0756 29.541L73.2451 30.3899L72.3962 32.5596C72.3282 32.7994 72.4177 33.0321 72.6611 33.179C72.8186 33.1718 72.8975 33.1683 72.8975 33.1683Z" fill="#110580"/>
<path d="M65.8521 27.4884C66.0097 27.4813 66.1637 27.3954 66.3106 27.1519C66.3787 26.9121 66.2891 26.6794 66.0457 26.5325L60.5034 24.4155C60.2636 24.3474 60.031 24.4368 59.8841 24.6803C59.8161 24.9202 59.9054 25.1529 60.1488 25.2998L65.6911 27.4168C65.6911 27.4168 65.7734 27.492 65.8521 27.4884ZM54.7642 23.1756C54.9218 23.1685 55.0758 23.0826 55.2227 22.8391C55.2907 22.5992 55.2012 22.3666 54.9578 22.2197L49.4157 20.1027C49.1758 20.0346 48.9431 20.124 48.7962 20.3675C48.7281 20.6073 48.8176 20.8401 49.0611 20.987L54.6032 23.104C54.6067 23.1828 54.7642 23.1756 54.7642 23.1756ZM43.7587 18.938C43.9163 18.9308 44.0703 18.8449 44.2172 18.6015C44.2852 18.3616 44.1957 18.1289 43.9523 17.9821L38.41 15.865C38.1701 15.797 37.9376 15.8864 37.7907 16.1298C37.7226 16.3697 37.812 16.6025 38.0554 16.7493L43.5977 18.8664C43.6012 18.9451 43.6012 18.9451 43.7587 18.938ZM32.6744 14.7039C32.8319 14.6968 32.986 14.6108 33.1328 14.3674C33.2009 14.1275 33.1114 13.8948 32.8679 13.748L27.3259 11.6309C27.086 11.5629 26.8532 11.6523 26.7064 11.8957C26.6383 12.1356 26.7278 12.3684 26.9712 12.5152L32.5133 14.6323C32.5169 14.711 32.5956 14.7075 32.6744 14.7039Z" fill="#110580"/>
<path d="M18.0309 12.0518C18.1885 12.0446 18.3423 11.9587 18.4892 11.7153L19.3383 9.5456L21.5078 10.3946C21.7477 10.4627 21.9805 10.3732 22.1273 10.1297C22.1954 9.88985 22.1059 9.65717 21.8625 9.51033L18.8121 8.38544L17.6872 11.4358C17.6191 11.6757 17.7086 11.9085 17.9521 12.0553C17.8733 12.0589 17.9522 12.0553 18.0309 12.0518Z" fill="#110580"/>
<path d="M6.24576 42.8952C6.4033 42.888 6.55717 42.8022 6.70401 42.5588L8.68137 37.4176C8.74944 37.1777 8.65994 36.9449 8.41649 36.7981C8.17305 36.6512 7.94383 36.8195 7.79699 37.063L5.81982 42.2041C5.75174 42.444 5.84106 42.6767 6.0845 42.8235C6.00573 42.8271 6.16699 42.8987 6.24576 42.8952ZM10.1181 32.5377C10.2756 32.5306 10.4295 32.4446 10.5763 32.2012L12.5537 27.06C12.6218 26.8201 12.5323 26.5873 12.2888 26.4405C12.0489 26.3724 11.8162 26.4619 11.6693 26.7054L9.69213 31.8466C9.62406 32.0864 9.71338 32.3191 9.95682 32.466C10.0392 32.5412 10.1181 32.5377 10.1181 32.5377ZM14.0762 22.3341C14.2337 22.3269 14.3878 22.241 14.5346 21.9976L16.512 16.8565C16.5801 16.6166 16.4906 16.3838 16.2471 16.237C16.0072 16.1689 15.7745 16.2584 15.6276 16.5019L13.6502 21.643C13.5822 21.8828 13.6717 22.1156 13.9151 22.2625C13.9975 22.3377 13.9974 22.3376 14.0762 22.3341Z" fill="#110580"/>
<path d="M52.3366 82.8791L76.4777 73.893C77.8742 73.3562 78.6694 71.7415 78.129 70.2663L72.2061 54.5112C71.6693 53.1147 70.0546 52.3196 68.5794 52.86L44.4383 61.8462C43.0419 62.383 42.2469 63.9977 42.7872 65.4729L48.7099 81.2279C49.3291 82.6996 50.9437 83.4947 52.3366 82.8791Z" fill="#AAACE3"/>
<path d="M40.3875 70.0017C41.4115 69.9553 42.3065 70.5463 42.5856 71.4808L43.5734 74.1198L44.561 76.7588C44.9189 77.6898 44.6503 78.728 43.8088 79.3186L37.4166 84.5808C36.2027 85.6619 34.2838 85.1173 33.7398 83.5633L31.7678 78.3641L29.7959 73.165C29.2519 71.6109 30.2871 70.0643 31.9413 69.9895L40.3875 70.0017Z" fill="#AAACE3"/>
</svg>
