<?xml version="1.0" standalone="no"?>
<!DOCTYPE svg PUBLIC "-//W3C//DTD SVG 20010904//EN"
 "http://www.w3.org/TR/2001/REC-SVG-20010904/DTD/svg10.dtd">
<svg version="1.0" xmlns="http://www.w3.org/2000/svg"
 width="194.000000pt" height="259.000000pt" viewBox="0 0 194.000000 259.000000"
 preserveAspectRatio="xMidYMid meet">

<g transform="translate(0.000000,259.000000) scale(0.100000,-0.100000)"
fill="#000000" stroke="none">
<path d="M533 2548 c-11 -25 -20 -60 -19 -78 2 -24 -2 -34 -16 -38 -26 -6 -23
-18 15 -52 17 -16 26 -30 20 -30 -16 0 -17 -20 -2 -20 22 0 34 27 33 72 -2 35
1 45 11 42 14 -6 41 33 31 44 -3 3 -6 0 -6 -6 0 -7 -10 -12 -21 -12 -19 0 -20
2 -8 17 10 11 10 14 2 9 -8 -4 -13 -2 -13 5 0 6 8 9 20 6 11 -3 18 -1 14 4 -3
5 -1 9 5 9 7 0 7 8 1 25 -10 27 -7 30 40 38 14 2 3 5 -23 6 -44 1 -48 -1 -42
-19 3 -11 2 -20 -4 -20 -5 0 -11 10 -13 21 -2 17 -7 13 -25 -23z"/>
<path d="M667 2576 c-3 -9 -14 -12 -25 -9 -12 3 -22 -1 -25 -11 -10 -26 26
-19 53 9 13 14 19 25 13 25 -6 0 -13 -6 -16 -14z"/>
<path d="M1077 2558 c8 -55 18 -65 63 -65 28 0 37 3 28 9 -9 7 -7 8 7 3 11 -5
32 -10 48 -13 33 -5 44 -20 23 -28 -26 -10 -18 -23 19 -30 24 -4 35 -12 35
-24 0 -9 9 -25 20 -35 11 -10 17 -21 15 -25 -3 -4 2 -13 10 -20 7 -6 12 -17 9
-24 -2 -6 2 -20 11 -31 14 -19 15 -19 8 -1 -4 13 -2 17 7 14 8 -2 14 -22 15
-46 1 -24 8 -48 15 -55 10 -10 11 -9 6 3 -4 8 0 6 8 -4 12 -15 13 -22 4 -27
-7 -5 -15 -3 -19 2 -4 7 -9 4 -12 -5 -4 -9 -3 -15 1 -15 4 1 15 1 25 0 15 -1
16 -3 5 -15 -9 -10 -15 -11 -20 -2 -5 8 -10 8 -20 -2 -9 -9 -9 -12 0 -12 7 0
12 -4 12 -10 0 -5 -7 -7 -15 -4 -24 10 -17 -16 8 -26 l22 -9 -22 -7 c-30 -8
-29 -29 2 -58 22 -20 23 -25 9 -30 -9 -3 -20 -4 -25 0 -5 3 -9 -8 -9 -25 0
-20 6 -31 18 -34 16 -4 16 -5 0 -6 -25 -1 -23 -21 1 -21 21 0 37 -17 26 -28
-3 -3 -10 0 -15 8 -18 29 -23 -1 -10 -59 7 -33 10 -85 8 -116 -4 -47 -10 -62
-36 -88 l-32 -32 -1 30 c-1 22 -22 -65 -28 -116 -1 -4 26 -26 58 -50 64 -47
77 -66 87 -130 4 -26 11 -38 19 -35 53 20 149 45 156 40 18 -11 9 24 -21 79
-31 59 -38 103 -18 109 12 4 38 -33 38 -54 0 -6 12 -37 26 -69 21 -46 32 -59
49 -59 21 0 21 2 14 65 -15 120 -15 120 1 120 16 0 28 -51 30 -125 1 -72 15
-83 39 -30 11 25 21 50 21 55 0 11 53 75 62 75 3 0 9 -7 12 -16 4 -10 -5 -29
-25 -51 -54 -62 -63 -107 -22 -117 14 -4 46 -21 70 -37 l43 -30 0 175 c0 96
-4 177 -9 180 -5 3 -7 14 -4 24 2 10 -3 24 -11 31 -9 8 -16 22 -16 31 0 10 -3
26 -7 35 -5 14 -8 12 -18 -11 -10 -23 -14 -26 -19 -13 -7 15 -10 15 -43 -1
-34 -16 -120 -17 -133 -1 -9 11 -71 41 -84 41 -7 0 -27 20 -44 44 -25 34 -32
55 -32 90 l0 46 38 1 c20 1 51 1 67 0 17 -1 73 -2 126 -3 59 -2 95 -7 93 -13
-5 -13 44 -36 52 -24 3 5 2 13 -1 19 -3 5 6 12 20 16 19 5 25 13 25 33 0 26
-1 26 -186 63 -151 30 -189 41 -201 57 -9 13 -22 20 -36 17 -12 -1 -16 -1 -9
1 20 7 14 23 -10 24 -22 1 -22 1 2 9 23 8 24 8 3 9 l-22 1 23 23 c13 12 32 27
42 33 11 6 21 22 22 35 2 13 11 32 19 41 9 10 18 40 21 68 2 27 8 50 13 50 5
0 9 18 9 40 0 38 -2 40 -30 40 -16 0 -30 5 -30 10 0 13 4 13 70 -5 62 -17 135
-20 110 -6 -8 5 -31 12 -50 14 -48 7 -49 8 -20 16 22 7 19 9 -23 16 -44 7 -46
9 -30 22 17 14 17 14 0 9 -10 -3 -34 3 -55 14 -41 22 -56 25 -46 9 5 -8 1 -8
-14 0 -11 6 -29 11 -38 11 -10 0 -26 8 -36 17 -21 19 -40 21 -230 28 l-136 5
5 -32z m116 5 c-3 -7 -9 -10 -14 -7 -9 5 -13 -11 -9 -31 1 -5 -2 -7 -6 -3 -4
4 -13 0 -21 -10 -8 -9 -5 -1 6 19 11 20 19 38 16 40 -2 3 4 5 14 5 11 0 17 -6
14 -13z m-74 -58 c0 -5 -6 -1 -14 9 -8 11 -15 24 -15 30 0 5 7 1 15 -10 8 -10
14 -23 14 -29z m341 -428 c11 -5 9 -6 -4 -4 -11 1 -21 9 -23 17 -3 10 -2 11 4
4 4 -6 15 -14 23 -17z m380 -457 c0 -5 -2 -10 -4 -10 -3 0 -8 5 -11 10 -3 6
-1 10 4 10 6 0 11 -4 11 -10z"/>
<path d="M825 2473 c-43 -9 -124 -46 -139 -62 -13 -14 0 -12 67 11 45 15 101
28 125 28 23 0 42 4 42 9 0 8 -53 23 -69 20 -3 -1 -15 -3 -26 -6z"/>
<path d="M1167 2468 c-16 -10 20 -9 53 2 23 8 22 8 -8 7 -18 -1 -38 -5 -45 -9z"/>
<path d="M1125 2461 c-3 -5 -2 -12 3 -15 5 -3 9 1 9 9 0 17 -3 19 -12 6z"/>
<path d="M1738 2463 c7 -3 16 -2 19 1 4 3 -2 6 -13 5 -11 0 -14 -3 -6 -6z"/>
<path d="M1775 2440 c-3 -5 -1 -10 4 -10 6 0 11 5 11 10 0 6 -2 10 -4 10 -3 0
-8 -4 -11 -10z"/>
<path d="M1882 2418 c2 -6 10 -14 16 -16 7 -2 10 2 6 12 -7 18 -28 22 -22 4z"/>
<path d="M1060 2410 c0 -5 9 -14 20 -20 22 -12 27 -1 8 18 -14 14 -28 16 -28
2z"/>
<path d="M1265 2410 c3 -5 8 -10 11 -10 2 0 4 5 4 10 0 6 -5 10 -11 10 -5 0
-7 -4 -4 -10z"/>
<path d="M1780 2398 c46 -19 80 -27 80 -18 0 10 -56 30 -84 29 -19 0 -19 -1 4
-11z"/>
<path d="M1880 2380 c0 -5 5 -10 10 -10 6 0 10 5 10 10 0 6 -4 10 -10 10 -5 0
-10 -4 -10 -10z"/>
<path d="M483 2331 c-3 -12 -11 -21 -18 -21 -22 0 -39 -28 -26 -43 13 -17 4
-27 -23 -26 -20 0 -20 1 -2 8 13 5 16 10 8 15 -6 4 -20 2 -31 -4 -18 -9 -187
16 -336 50 -22 5 -43 10 -47 10 -5 0 -8 -25 -8 -55 0 -50 2 -55 22 -55 12 0
61 -5 110 -11 l88 -12 2 -41 c1 -35 2 -36 5 -10 l4 32 42 -16 c47 -19 55 -24
102 -69 18 -18 37 -33 42 -33 11 0 43 91 58 163 4 20 11 40 17 43 5 3 5 11 -2
19 -11 14 -4 45 12 45 5 0 6 -9 3 -20 -7 -23 10 -28 19 -5 3 9 -4 25 -15 36
l-20 20 -6 -20z m-26 -167 c-3 -3 -12 -4 -19 -1 -8 3 -5 6 6 6 11 1 17 -2 13
-5z"/>
<path d="M940 2320 c14 -4 37 -8 53 -9 15 -1 27 -6 27 -12 0 -6 -15 -9 -34 -8
-19 2 -38 0 -42 -4 -4 -4 1 -7 11 -7 15 0 16 -2 4 -17 -13 -16 -12 -17 3 -5 9
7 22 12 30 11 25 -3 48 1 46 9 -1 4 3 17 10 30 12 20 0 33 -12 13 -3 -5 -25
-5 -48 0 -54 10 -81 10 -48 -1z"/>
<path d="M1050 2291 c0 -5 10 -13 21 -16 17 -6 19 -9 8 -17 -10 -6 -6 -7 11
-2 35 9 36 12 14 29 -21 16 -54 20 -54 6z"/>
<path d="M810 2255 c0 -11 5 -27 10 -35 8 -12 10 -12 10 5 0 11 -5 27 -10 35
-8 12 -10 12 -10 -5z"/>
<path d="M871 2254 c0 -11 3 -14 6 -6 3 7 2 16 -1 19 -3 4 -6 -2 -5 -13z"/>
<path d="M915 2250 c4 -6 11 -8 16 -5 14 9 11 15 -7 15 -8 0 -12 -5 -9 -10z"/>
<path d="M1127 2199 c7 -7 15 -10 18 -7 3 3 -2 9 -12 12 -14 6 -15 5 -6 -5z"/>
<path d="M1036 2176 c3 -9 15 -16 25 -16 10 0 19 -4 19 -10 0 -5 8 -10 18 -10
16 1 16 1 -1 14 -14 11 -15 15 -5 20 7 3 3 3 -10 0 -13 -3 -30 0 -38 7 -12 10
-13 9 -8 -5z"/>
<path d="M910 2160 c0 -5 5 -10 10 -10 6 0 10 5 10 10 0 6 -4 10 -10 10 -5 0
-10 -4 -10 -10z"/>
<path d="M978 2163 c6 -2 18 -2 25 0 6 3 1 5 -13 5 -14 0 -19 -2 -12 -5z"/>
<path d="M811 2120 c-13 -23 -26 -38 -30 -33 -15 22 -189 -7 -288 -48 -40 -17
-76 -28 -81 -25 -5 3 -9 -27 -9 -67 0 -45 3 -65 8 -52 7 19 8 19 8 -2 1 -13 5
-23 11 -23 5 0 6 -7 3 -17 -4 -10 -2 -14 4 -10 5 4 15 -4 21 -17 8 -17 7 -23
-3 -23 -7 0 -11 6 -8 14 3 9 0 11 -10 7 -11 -4 -14 -17 -11 -47 2 -32 2 -35
-4 -14 l-7 29 -23 -32 c-13 -17 -26 -43 -28 -57 -3 -15 -14 -39 -24 -54 -11
-15 -20 -30 -20 -33 0 -8 -63 -65 -72 -66 -5 0 -9 91 -10 203 l-2 202 -7 -230
c-8 -268 -7 -255 -18 -255 -5 0 -11 18 -15 40 -8 49 -26 44 -27 -8 0 -20 -3
-31 -6 -23 -3 8 -19 25 -34 39 -16 13 -28 28 -26 34 1 6 -4 13 -10 15 -7 3
-13 0 -13 -6 0 -6 -18 -11 -40 -11 l-40 0 0 -135 0 -134 22 9 c13 6 31 13 41
16 9 4 17 10 17 15 0 11 31 11 48 1 23 -15 0 -44 -55 -68 -29 -13 -53 -27 -53
-30 0 -3 23 -29 50 -56 79 -78 116 -168 70 -168 -13 0 -26 14 -40 45 -16 36
-83 115 -97 115 -1 0 -3 -40 -3 -89 0 -84 1 -89 20 -84 27 7 27 -27 0 -52 -20
-18 -28 -55 -12 -55 4 0 18 20 30 45 27 56 56 62 49 10 l-5 -34 35 14 c20 8
70 36 111 61 42 25 99 51 128 57 29 6 51 15 48 19 -3 4 2 8 10 8 10 0 13 -6
10 -15 -4 -9 0 -15 7 -15 11 0 11 -2 -1 -9 -8 -6 -17 -8 -21 -5 -4 2 -6 -4 -5
-13 2 -9 8 -19 14 -21 7 -2 12 -8 12 -14 0 -7 -5 -7 -13 1 -8 6 -17 8 -20 4
-4 -3 1 -12 11 -19 11 -9 13 -13 4 -14 -7 0 -10 -5 -6 -12 4 -7 3 -8 -5 -4 -6
4 -14 0 -17 -8 -3 -9 -10 -13 -15 -10 -5 3 -9 -11 -9 -30 0 -19 4 -38 10 -41
6 -4 5 -13 -2 -24 -14 -23 -53 -16 -42 8 4 9 9 33 12 55 4 38 -7 55 -34 56
-16 0 -38 -56 -30 -75 3 -9 2 -14 -2 -11 -5 3 -14 -21 -20 -54 -6 -32 -19 -67
-30 -78 -19 -19 -19 -19 -36 9 -37 63 -137 92 -144 41 -2 -13 2 -30 9 -38 10
-12 10 -17 -1 -27 -9 -8 -14 -9 -17 -1 -2 6 -10 20 -18 30 -13 18 -14 16 -15
-18 0 -21 8 -53 19 -71 18 -32 18 -34 2 -44 -22 -14 -23 -43 -2 -43 11 0 10
-3 -5 -15 -19 -15 -19 -15 1 -9 19 5 19 5 3 -9 -16 -13 -18 -38 -18 -266 l0
-251 461 0 461 0 -6 38 c-6 39 -8 49 -19 97 -16 69 -19 81 -22 110 -4 33 -55
177 -65 185 -4 3 -13 29 -21 58 -7 30 -21 57 -30 62 -28 16 -113 279 -95 297
3 3 0 15 -6 26 -6 11 -17 47 -24 79 -18 76 -43 122 -97 181 -49 53 -70 60 -63
22 3 -15 0 -25 -7 -25 -7 0 -6 -4 3 -10 12 -8 11 -10 -6 -10 -17 0 -20 5 -16
25 3 19 0 25 -14 25 -12 0 -15 -3 -8 -8 7 -5 5 -13 -9 -27 -18 -18 -19 -18
-10 -1 6 10 8 27 6 36 -3 10 0 28 7 40 9 17 14 19 26 9 10 -8 14 -8 14 0 0 6
-5 11 -11 11 -21 0 -1 72 30 111 28 34 30 40 19 70 -9 26 -8 38 7 65 17 33 17
36 -3 111 -12 43 -24 108 -27 145 l-6 67 25 -3 c14 -1 34 -10 44 -19 10 -10
24 -17 30 -17 7 0 11 -3 11 -7 -3 -19 2 -33 12 -33 6 0 9 6 6 13 -3 8 7 12 32
12 20 0 50 4 66 8 30 8 30 8 8 -8 -27 -19 -30 -45 -7 -45 14 0 14 -4 -3 -32
-11 -18 -22 -42 -25 -53 -3 -11 -13 -37 -22 -57 -9 -21 -13 -38 -8 -38 4 0 14
17 21 38 16 47 77 141 96 148 8 3 21 0 29 -8 41 -36 44 -38 49 -25 4 9 6 9 6
-1 1 -7 6 -10 11 -7 6 3 10 2 10 -3 0 -5 -9 -12 -20 -15 -13 -3 -18 -10 -14
-21 3 -9 1 -16 -5 -16 -6 0 -11 6 -11 13 -1 6 -9 -3 -19 -22 -11 -21 -21 -30
-25 -22 -5 7 -21 -3 -48 -29 -32 -33 -39 -46 -34 -66 4 -13 13 -24 21 -24 8 0
15 -7 15 -16 0 -13 5 -12 29 5 16 12 34 21 39 21 5 0 24 14 42 30 25 24 41 30
74 29 32 0 37 -2 21 -9 -11 -5 -15 -10 -10 -11 6 -1 15 -3 20 -4 6 -2 16 -3
23 -4 6 0 12 -14 12 -31 0 -26 -3 -29 -26 -28 -21 2 -24 6 -20 28 3 16 -2 10
-14 -15 -10 -22 -19 -34 -19 -27 -1 19 -23 10 -31 -14 -7 -17 -3 -19 36 -19
24 0 44 4 44 9 0 5 7 2 17 -5 13 -11 17 -11 20 -1 3 6 9 10 14 6 18 -11 61
-15 54 -5 -3 6 11 13 34 17 33 5 42 12 51 38 10 27 13 29 23 15 11 -14 13 -6
12 47 -1 51 1 61 12 52 7 -6 13 -17 13 -24 0 -8 5 -14 10 -14 16 0 11 33 -10
60 -11 14 -20 33 -20 42 0 9 -8 22 -17 27 -25 15 3 14 30 -1 21 -11 21 -10 7
8 -8 10 -21 24 -28 29 -7 6 -15 24 -17 40 -1 16 -8 31 -14 33 -17 6 -13 19 7
25 9 2 26 8 37 13 17 7 18 6 7 -8 -10 -13 -9 -16 8 -21 13 -3 20 -13 20 -29 0
-29 35 -55 44 -32 3 9 1 25 -5 36 -6 11 -9 31 -7 43 4 18 1 22 -11 17 -14 -5
-14 -3 -2 11 10 12 10 17 2 17 -8 0 -4 12 9 30 27 37 41 35 57 -11 l12 -34 0
29 c1 28 2 29 16 10 14 -18 14 -18 16 6 2 37 -2 112 -7 135 -4 16 -3 17 5 5 9
-12 11 -11 11 8 0 12 -4 22 -10 22 -5 0 -10 10 -10 23 0 36 -13 46 -71 58 -74
14 -209 26 -209 18 0 -4 -9 -9 -20 -12 -13 -3 -18 -1 -13 5 4 8 -8 9 -38 3
-24 -4 -61 -7 -81 -7 -30 0 -37 -3 -40 -21 -3 -15 -7 -9 -14 22 l-9 43 -24
-42z m409 -72 c11 -18 20 -44 19 -58 l0 -25 -11 25 c-12 27 -15 35 -17 49 0 5
-8 17 -17 25 -8 9 -11 16 -5 16 6 0 20 -15 31 -32z m-660 -32 c-5 -14 -14 -33
-21 -44 -17 -27 -4 -76 18 -67 15 5 15 4 0 -13 -9 -10 -17 -21 -17 -23 0 -9
40 -8 45 2 4 5 14 5 26 -2 11 -6 35 -10 52 -9 51 3 52 2 24 -28 -45 -47 -9
-59 44 -15 25 21 30 23 21 8 -25 -47 -61 -69 -108 -67 -89 4 -154 74 -154 167
0 40 5 52 34 81 40 40 49 43 36 10z m50 -46 c0 -5 0 -12 0 -15 0 -3 -2 -4 -5
-2 -2 1 -11 -7 -19 -18 -18 -23 -20 -17 -6 19 9 25 30 36 30 16z m286 -15 c9
-14 13 -32 10 -40 -3 -10 4 -26 20 -41 16 -17 23 -32 19 -44 -4 -11 1 -23 13
-32 21 -15 42 -45 24 -34 -7 4 -12 2 -12 -3 0 -6 -4 -11 -10 -11 -5 0 -9 5 -7
12 1 6 -7 13 -18 15 -15 3 -16 2 -7 -5 11 -7 10 -11 -4 -16 -10 -4 -21 -2 -24
5 -5 8 -16 6 -35 -7 -16 -10 -41 -17 -56 -16 -19 2 -29 -2 -33 -15 -2 -10 -3
5 -1 32 2 43 43 188 60 216 11 17 45 9 61 -16z m296 -106 c-17 -17 -37 -29
-44 -26 -8 3 -5 6 6 6 11 1 16 4 13 7 -4 4 5 17 20 30 39 33 43 20 5 -17z
m-132 -29 c0 -5 -4 -10 -9 -10 -6 0 -13 5 -16 10 -3 6 1 10 9 10 9 0 16 -4 16
-10z m55 -10 c-11 -5 -27 -9 -35 -9 -9 0 -8 4 5 9 11 5 27 9 35 9 9 0 8 -4 -5
-9z m-4 -189 c-24 -44 -79 -12 -60 36 5 13 6 23 3 23 -3 0 -2 5 2 11 4 7 17 0
36 -19 26 -25 28 -32 19 -51z m-259 -13 c-7 -7 -12 -8 -12 -2 0 14 12 26 19
19 2 -3 -1 -11 -7 -17z m292 -4 c8 -22 8 -24 -8 -24 -15 0 -28 24 -19 34 11
10 21 7 27 -10z m-664 -759 c-7 -8 -20 -15 -29 -15 -11 0 -8 5 9 14 33 19 35
19 20 1z m-204 -113 c-11 -10 -12 3 -7 53 l6 50 3 -49 c2 -26 1 -51 -2 -54z
m281 92 c-3 -3 -12 -4 -19 -1 -8 3 -5 6 6 6 11 1 17 -2 13 -5z m-112 -24 c-10
-11 -22 -20 -28 -20 -5 0 1 9 14 20 31 25 37 25 14 0z m-80 -130 c-3 -5 -10
-10 -16 -10 -5 0 -9 5 -9 10 0 6 7 10 16 10 8 0 12 -4 9 -10z m234 -6 c2 -2
-31 -4 -74 -4 -43 0 -76 -3 -72 -6 5 -6 19 -8 86 -13 11 -1 11 -4 1 -16 -12
-14 -72 -17 -64 -3 3 4 -14 11 -36 14 -30 5 -38 9 -28 16 9 7 3 8 -17 4 -16
-3 -24 -3 -17 0 6 3 10 9 7 14 -5 7 205 1 214 -6z m-150 -81 c-21 -27 -32 -33
-58 -33 -29 0 -23 9 10 15 13 3 28 11 34 20 5 8 14 15 19 15 4 0 2 -8 -5 -17z
m86 7 c3 -5 -1 -10 -9 -10 -8 0 -18 5 -21 10 -3 6 1 10 9 10 8 0 18 -4 21 -10z
m-8 -56 c-3 -3 -12 -4 -19 -1 -8 3 -5 6 6 6 11 1 17 -2 13 -5z m-480 -40 c-3
-3 -12 -4 -19 -1 -8 3 -5 6 6 6 11 1 17 -2 13 -5z m30 -30 c-3 -3 -12 -4 -19
-1 -8 3 -5 6 6 6 11 1 17 -2 13 -5z"/>
<path d="M1085 1640 c3 -5 8 -10 11 -10 2 0 4 5 4 10 0 6 -5 10 -11 10 -5 0
-7 -4 -4 -10z"/>
<path d="M402 1834 c0 -19 3 -33 6 -30 8 9 10 66 1 66 -4 0 -7 -16 -7 -36z"/>
<path d="M1350 1833 c0 -5 5 -15 10 -23 8 -12 10 -11 10 8 0 12 -4 22 -10 22
-5 0 -10 -3 -10 -7z"/>
<path d="M1368 1760 c2 -16 6 -30 8 -30 2 0 4 14 4 30 0 17 -4 30 -8 30 -5 0
-7 -13 -4 -30z"/>
<path d="M1337 1760 c-13 -54 -12 -74 4 -78 22 -4 28 26 14 68 -12 34 -13 34
-18 10z"/>
<path d="M1185 1750 c3 -5 8 -10 11 -10 2 0 4 5 4 10 0 6 -5 10 -11 10 -5 0
-7 -4 -4 -10z"/>
<path d="M1360 1670 c-8 -15 -9 -25 -1 -33 7 -7 12 -2 17 17 8 35 -1 44 -16
16z"/>
<path d="M1180 1620 c0 -5 5 -10 11 -10 5 0 7 5 4 10 -3 6 -8 10 -11 10 -2 0
-4 -4 -4 -10z"/>
<path d="M202 1575 c0 -16 2 -22 5 -12 2 9 2 23 0 30 -3 6 -5 -1 -5 -18z"/>
<path d="M870 1490 c-9 -6 -10 -10 -3 -10 6 0 15 5 18 10 8 12 4 12 -15 0z"/>
<path d="M830 1457 c0 -10 -7 -20 -15 -23 -25 -10 -17 -23 12 -20 33 4 38 15
18 41 -13 18 -14 19 -15 2z"/>
<path d="M1235 1355 c-22 -36 -46 -65 -53 -65 -9 0 -12 6 -8 17 6 16 6 16 -12
0 -10 -9 -23 -17 -29 -17 -6 0 -13 -7 -17 -15 -4 -11 -17 -14 -45 -12 -23 2
-42 -1 -45 -7 -2 -6 -9 2 -15 18 -11 28 -12 28 -26 10 -11 -16 -17 -17 -33 -7
-17 10 -21 9 -25 -7 -4 -15 -12 -18 -36 -15 -17 2 -36 7 -43 11 -7 4 -5 -2 5
-14 11 -11 26 -21 35 -21 10 1 44 -4 77 -9 72 -12 234 -15 270 -6 20 5 25 12
22 25 -6 22 20 33 55 24 13 -3 31 0 43 9 20 14 20 15 1 49 -10 20 -16 41 -14
49 5 14 -32 48 -54 48 -7 0 -31 -29 -53 -65z"/>
<path d="M560 1394 c0 -17 68 -75 75 -64 3 5 2 10 -3 10 -5 0 -24 14 -41 32
-17 17 -31 27 -31 22z"/>
<path d="M622 1274 l-23 -12 27 -6 c25 -7 43 4 44 25 0 9 -23 6 -48 -7z"/>
<path d="M1595 1265 c-5 -2 -28 -9 -50 -14 -65 -18 -69 -23 -46 -62 12 -19 21
-47 21 -63 0 -27 23 -55 46 -56 7 0 11 22 10 58 -1 43 5 66 22 93 29 48 28 55
-3 44z"/>
<path d="M1671 1249 c-51 -31 -40 -39 39 -30 8 0 20 11 25 24 9 19 8 22 -11
23 -12 1 -36 -7 -53 -17z"/>
<path d="M655 1226 c-29 -28 -40 -34 -46 -24 -24 38 -3 -19 37 -101 55 -112
67 -148 51 -155 -9 -5 -9 -8 1 -12 6 -3 12 -10 12 -15 0 -6 -5 -7 -11 -3 -7 4
-10 1 -7 -7 3 -8 11 -14 18 -14 8 0 15 -14 16 -35 2 -19 1 -29 -2 -22 -3 6
-10 9 -15 6 -6 -3 -5 -12 3 -22 11 -13 10 -15 -4 -9 -10 3 -18 2 -18 -3 0 -12
37 -23 51 -14 19 12 3 124 -30 208 -17 42 -31 79 -31 83 0 4 12 -4 26 -18 27
-25 67 -82 94 -134 8 -16 19 -28 24 -27 5 2 13 -3 18 -12 5 -8 15 -13 24 -9
34 13 130 -116 103 -141 -9 -8 -10 -8 -5 1 4 7 2 21 -3 30 -9 16 -10 14 -11
-9 0 -15 5 -30 10 -33 13 -8 42 20 32 30 -4 5 -1 5 6 1 7 -5 11 -10 8 -14 -3
-3 0 -10 8 -16 7 -6 45 -51 84 -101 39 -49 78 -98 87 -107 8 -10 11 -18 5 -18
-5 0 2 -16 15 -36 27 -39 67 -160 69 -209 1 -16 11 -61 23 -100 12 -38 20 -91
19 -118 l-2 -47 63 0 c49 0 63 3 63 15 0 8 5 15 10 15 6 0 10 -7 10 -15 0 -8
5 -15 10 -15 28 0 -10 135 -80 282 -16 36 -30 70 -30 76 0 7 -4 12 -9 12 -5 0
-14 14 -21 30 -7 17 -16 30 -20 30 -4 0 -10 9 -13 21 -3 12 -10 18 -15 15 -11
-7 -22 16 -22 45 0 12 -7 19 -17 18 -11 0 -13 -3 -5 -6 6 -2 12 -9 12 -14 0
-4 -7 -6 -15 -3 -12 5 -14 2 -8 -12 6 -16 5 -17 -9 -6 -22 17 -16 44 11 58 13
7 18 14 13 18 -6 4 -10 16 -9 27 1 18 3 18 13 5 13 -18 89 -22 99 -6 3 5 -2 9
-12 8 -43 -3 -50 1 -46 29 4 28 4 28 -10 5 -13 -22 -14 -22 -29 -5 -9 10 -19
30 -23 45 -5 21 -3 27 14 33 12 3 19 11 15 16 -4 6 -14 5 -27 -4 -15 -10 -22
-25 -22 -50 0 -19 3 -33 6 -31 4 2 7 -7 7 -21 0 -32 -18 -27 -37 9 -11 20 -29
34 -56 42 -22 6 -32 12 -22 13 21 1 23 27 2 35 -8 3 -15 0 -15 -6 0 -14 -28 9
-41 34 -7 14 -7 24 1 33 9 11 9 23 1 46 l-11 32 35 -6 c19 -3 42 -13 51 -21 8
-9 20 -16 25 -16 6 0 7 -5 3 -12 -4 -7 -3 -8 5 -4 6 4 27 -2 46 -14 35 -21
105 -99 105 -116 1 -5 21 -31 46 -59 59 -64 118 -159 249 -395 25 -47 44 -78
41 -70 -3 8 -15 45 -26 83 -12 37 -26 67 -30 67 -5 0 -8 8 -8 18 0 9 -3 31 -7
47 -4 17 -10 53 -14 80 -4 28 -17 69 -29 92 -33 64 -51 122 -46 155 4 36 30
78 47 78 8 0 7 -4 -3 -10 -8 -5 -11 -12 -7 -16 9 -10 17 -1 22 25 2 14 -3 26
-16 34 -10 6 -19 17 -19 23 0 5 -9 20 -20 32 -19 20 -19 22 -3 22 15 0 16 2 3
10 -8 5 -12 10 -7 10 4 0 42 -27 84 -60 72 -57 110 -78 83 -45 -10 12 -10 15
1 15 9 1 7 6 -6 16 -11 8 -20 23 -21 33 -1 22 -41 81 -54 81 -5 0 -22 12 -39
26 -25 21 -30 31 -25 51 5 18 3 24 -4 19 -7 -4 -12 7 -14 30 l-3 36 -35 -49
c-20 -28 -35 -42 -36 -33 -14 87 -16 95 -25 75 -7 -15 -8 -9 -6 23 1 23 -1 42
-5 42 -11 0 -10 -64 1 -93 8 -20 6 -27 -6 -31 -8 -4 -13 -13 -9 -21 4 -10 -1
-15 -14 -15 -18 0 -20 5 -16 47 3 25 11 50 18 54 9 6 8 10 -5 15 -9 3 -15 10
-12 14 3 5 1 11 -5 15 -5 3 -10 1 -10 -4 0 -6 -5 -11 -11 -11 -6 0 -9 6 -6 13
3 7 -4 12 -18 12 -13 0 -21 -3 -19 -6 2 -4 -3 -12 -11 -19 -13 -11 -14 -10 -9
4 5 12 2 15 -12 9 -10 -4 -15 -2 -11 3 6 11 2 12 -103 18 -90 6 -81 6 -201 0
-91 -5 -97 -4 -102 16 -3 11 -9 20 -14 19 -17 -4 -80 31 -95 52 l-14 22 -39
-37z m555 -666 c0 -5 -5 -10 -11 -10 -5 0 -7 5 -4 10 3 6 8 10 11 10 2 0 4 -4
4 -10z"/>
<path d="M1794 1229 c31 -27 35 -36 34 -77 0 -26 -5 -55 -10 -65 -8 -16 -7
-17 11 -7 45 24 34 109 -20 155 -44 36 -57 31 -15 -6z"/>
<path d="M1840 1240 c0 -5 4 -10 9 -10 14 0 31 -58 31 -106 0 -31 -6 -50 -20
-64 -23 -23 -23 -23 36 -9 l44 11 0 64 c0 57 -2 64 -27 82 -46 32 -73 44 -73
32z"/>
<path d="M1758 1204 c23 -20 30 -54 18 -91 -11 -33 12 -29 25 4 7 18 6 30 -1
37 -5 5 -10 20 -10 33 0 13 -4 23 -9 23 -5 0 -18 3 -28 7 -14 5 -13 2 5 -13z"/>
<path d="M1068 1163 c6 -2 18 -2 25 0 6 3 1 5 -13 5 -14 0 -19 -2 -12 -5z"/>
<path d="M1600 1135 c0 -52 23 -85 58 -85 25 1 26 1 7 12 -28 16 -44 39 -45
63 0 11 -5 27 -10 35 -7 11 -10 4 -10 -25z"/>
<path d="M1650 1136 c0 -18 38 -65 53 -66 15 0 6 48 -13 65 -20 18 -21 18 -15
-1 7 -19 6 -19 -9 0 -15 18 -16 19 -16 2z"/>
<path d="M1720 1090 c0 -11 4 -20 9 -20 5 0 7 9 4 20 -3 11 -7 20 -9 20 -2 0
-4 -9 -4 -20z"/>
<path d="M1500 1066 c0 -11 201 -205 218 -210 12 -4 22 -12 22 -17 0 -11 -16
-4 -42 19 -27 23 -21 2 13 -48 16 -25 39 -63 50 -84 17 -32 18 -38 5 -33 -21
8 -29 -8 -12 -22 11 -9 15 -9 19 1 3 9 7 6 12 -7 4 -11 31 -76 60 -145 29 -69
60 -152 69 -185 10 -33 19 -64 21 -70 2 -5 3 120 4 279 1 207 -2 293 -10 303
-9 10 -9 17 -1 25 23 23 13 40 -10 18 -16 -14 -25 -17 -32 -9 -8 7 -4 16 13
30 22 18 22 19 3 19 -12 0 -24 5 -27 10 -10 17 23 60 45 60 12 0 20 7 20 16 0
12 -5 15 -22 9 -33 -11 -173 -14 -248 -5 -36 4 -89 17 -117 28 -29 11 -53 19
-53 18z"/>
<path d="M308 1009 c-10 -5 -18 -17 -18 -24 0 -23 16 -17 28 10 6 14 11 25 9
25 -1 0 -10 -5 -19 -11z"/>
<path d="M366 983 c-4 -5 -12 -9 -17 -9 -5 -1 -12 -2 -16 -3 -4 0 2 -8 13 -16
18 -14 17 -14 -9 -5 -49 17 -64 10 -22 -10 51 -25 55 -25 50 2 -3 12 0 27 6
35 12 14 8 18 -5 6z"/>
<path d="M827 883 c-3 -5 3 -14 13 -21 14 -9 21 -9 26 0 4 6 3 8 -4 4 -6 -3
-15 1 -20 10 -5 9 -12 12 -15 7z"/>
<path d="M680 849 c0 -5 5 -7 10 -4 6 3 10 8 10 11 0 2 -4 4 -10 4 -5 0 -10
-5 -10 -11z"/>
<path d="M880 835 c7 -9 16 -12 19 -8 4 4 10 11 15 16 5 4 -3 7 -19 7 -24 0
-26 -2 -15 -15z"/>
<path d="M890 800 c0 -5 7 -10 15 -10 8 0 15 5 15 10 0 6 -7 10 -15 10 -8 0
-15 -4 -15 -10z"/>
<path d="M920 775 c0 -8 5 -15 10 -15 6 0 10 7 10 15 0 8 -4 15 -10 15 -5 0
-10 -7 -10 -15z"/>
<path d="M918 743 c7 -3 16 -2 19 1 4 3 -2 6 -13 5 -11 0 -14 -3 -6 -6z"/>
<path d="M1240 690 c-8 -5 -11 -12 -8 -16 10 -9 38 3 38 16 0 12 -10 13 -30 0z"/>
<path d="M925 660 c3 -5 8 -10 11 -10 2 0 4 5 4 10 0 6 -5 10 -11 10 -5 0 -7
-4 -4 -10z"/>
<path d="M1242 649 c2 -6 8 -10 13 -10 5 0 11 4 13 10 2 6 -4 11 -13 11 -9 0
-15 -5 -13 -11z"/>
<path d="M921 612 c-1 -13 -5 -20 -11 -17 -5 3 -10 2 -10 -4 0 -5 9 -12 19
-16 11 -3 22 -12 25 -20 3 -8 11 -15 17 -15 8 0 7 6 -3 18 -9 9 -20 31 -26 47
-9 26 -11 27 -11 7z"/>
<path d="M1300 621 c0 -5 5 -13 10 -16 6 -3 10 -2 10 4 0 5 -4 13 -10 16 -5 3
-10 2 -10 -4z"/>
<path d="M0 609 c0 -5 5 -7 10 -4 5 3 10 8 10 11 0 2 -4 4 -10 4 -5 0 -10 -5
-10 -11z"/>
<path d="M940 611 c0 -6 5 -13 10 -16 6 -3 10 1 10 9 0 9 -4 16 -10 16 -5 0
-10 -4 -10 -9z"/>
<path d="M1585 518 c-23 -70 36 -145 105 -135 55 9 34 107 -28 133 -42 17 -71
18 -77 2z m70 -9 c51 -19 76 -101 34 -112 -44 -12 -99 39 -99 91 0 34 15 39
65 21z"/>
<path d="M1630 502 c0 -6 -7 -9 -17 -5 -15 5 -15 3 2 -11 17 -15 17 -17 3 -12
-10 3 -18 1 -18 -4 0 -19 18 -19 35 0 14 16 16 23 7 32 -9 9 -12 9 -12 0z"/>
<path d="M1660 480 c0 -5 5 -10 10 -10 6 0 10 5 10 10 0 6 -4 10 -10 10 -5 0
-10 -4 -10 -10z"/>
<path d="M1681 443 c10 -11 10 -14 2 -9 -8 4 -13 2 -13 -4 0 -6 -4 -8 -10 -5
-5 3 -10 2 -10 -4 0 -5 5 -13 10 -16 6 -3 10 -2 10 4 0 6 6 8 13 5 8 -3 13 5
15 21 1 17 -3 25 -14 25 -14 0 -15 -2 -3 -17z"/>
<path d="M1626 441 c-4 -7 -5 -15 -2 -18 9 -9 19 4 14 18 -4 11 -6 11 -12 0z"/>
<path d="M900 510 c0 -5 4 -10 9 -10 6 0 13 5 16 10 3 6 -1 10 -9 10 -9 0 -16
-4 -16 -10z"/>
<path d="M1102 260 c-14 -18 -22 -44 -22 -67 0 -47 10 -84 20 -78 4 3 11 -2
14 -11 3 -8 11 -12 16 -9 8 5 7 11 -1 21 -6 8 -9 17 -5 21 3 3 6 1 6 -6 0 -7
5 -9 10 -6 6 3 10 15 10 26 0 11 7 22 15 25 8 4 15 9 15 13 0 4 -7 8 -15 8 -8
0 -15 -3 -15 -7 0 -4 -12 -5 -27 -2 -23 4 -25 2 -20 -17 3 -11 1 -19 -4 -15
-5 3 -9 22 -9 42 0 27 7 42 26 59 15 12 31 20 35 17 5 -3 9 0 9 5 0 22 -37 10
-58 -19z"/>
<path d="M1135 259 c-4 -6 -3 -15 3 -21 6 -6 11 -4 15 6 7 18 -9 31 -18 15z"/>
<path d="M1110 226 c0 -8 7 -16 15 -20 13 -4 14 -2 5 14 -13 23 -20 26 -20 6z"/>
<path d="M1203 173 c4 -21 11 -39 16 -41 6 -2 7 -10 4 -18 -3 -8 -1 -14 5 -14
11 0 21 30 15 48 -3 6 -11 12 -19 12 -8 0 -14 7 -14 16 0 8 4 12 10 9 6 -3 7
1 4 9 -12 32 -27 16 -21 -21z"/>
<path d="M1032 160 c0 -14 2 -19 5 -12 2 6 2 18 0 25 -3 6 -5 1 -5 -13z"/>
<path d="M1167 144 c3 -7 9 -14 14 -14 14 0 10 17 -5 23 -10 4 -13 1 -9 -9z"/>
<path d="M1040 67 c0 -42 4 -67 11 -67 7 0 9 20 5 61 -7 84 -16 87 -16 6z"/>
<path d="M1521 88 c-17 -11 -31 -25 -31 -31 0 -29 14 -57 27 -57 8 0 12 4 9 9
-4 5 3 7 15 4 19 -5 20 -4 7 16 -7 12 -19 19 -25 16 -18 -6 -16 3 5 24 21 23
72 24 90 2 7 -9 19 -29 27 -46 8 -17 14 -23 14 -15 0 8 -11 33 -24 55 -29 47
-65 54 -114 23z"/>
<path d="M1546 61 c-3 -5 1 -14 9 -21 13 -10 15 -9 15 9 0 21 -14 28 -24 12z"/>
<path d="M1584 56 c-10 -27 2 -43 14 -19 8 14 9 24 2 28 -6 3 -13 -1 -16 -9z"/>
<path d="M1606 24 c-9 -23 -8 -24 14 -24 23 0 26 13 6 29 -11 9 -15 8 -20 -5z"/>
</g>
</svg>
