<svg width="41" height="41" viewBox="0 0 41 41" fill="none" xmlns="http://www.w3.org/2000/svg">
<path d="M20.5 16.776C19.3267 16.776 18.1797 17.124 17.2041 17.7758C16.2286 18.4277 15.4682 19.3542 15.0192 20.4382C14.5702 21.5222 14.4527 22.715 14.6816 23.8658C14.9105 25.0166 15.4755 26.0736 16.3052 26.9033C17.1348 27.7329 18.1919 28.2979 19.3426 28.5268C20.4934 28.7557 21.6862 28.6383 22.7702 28.1893C23.8542 27.7402 24.7808 26.9799 25.4326 26.0043C26.0845 25.0287 26.4324 23.8818 26.4324 22.7084C26.4306 21.1356 25.805 19.6277 24.6929 18.5156C23.5807 17.4034 22.0728 16.7778 20.5 16.776ZM25.1884 22.0984H23.572C23.5394 20.8669 23.2542 19.6552 22.734 18.5384C23.3962 18.8946 23.9641 19.4032 24.3908 20.0222C24.8176 20.6412 25.091 21.3529 25.1884 22.0984ZM19.9 18.2692V22.0984H18.632C18.7344 20.2824 19.282 18.8548 19.9 18.2692ZM19.9 23.2984V27.1476C19.28 26.5596 18.7304 25.1244 18.6304 23.2984H19.9ZM21.1 27.1476V23.2984H22.3696C22.2696 25.1244 21.72 26.56 21.1 27.1476ZM21.1 22.0984V18.2692C21.718 18.8548 22.2656 20.2824 22.368 22.0984H21.1ZM18.266 18.5384C17.7458 19.6552 17.4606 20.8669 17.428 22.0984H15.8116C15.909 21.3529 16.1824 20.6412 16.6092 20.0222C17.0359 19.4032 17.6038 18.8946 18.266 18.5384ZM15.8088 23.2984H17.4272C17.4583 24.5367 17.7443 25.7552 18.2672 26.878C17.6018 26.5205 17.0315 26.009 16.6039 25.3864C16.1762 24.7637 15.9036 24.0478 15.8088 23.2984ZM22.734 26.878C23.2569 25.7552 23.5429 24.5367 23.574 23.2984H25.1924C25.0976 24.0478 24.825 24.7637 24.3973 25.3864C23.9697 26.009 23.3994 26.5205 22.734 26.878Z" fill="black"/>
<path d="M7.32321 31.4104C7.46998 31.437 7.61884 31.4504 7.76801 31.4504C8.39763 31.4504 9.00147 31.2003 9.44668 30.7551C9.89189 30.3099 10.142 29.7061 10.142 29.0764C10.142 28.4468 9.89189 27.843 9.44668 27.3978C9.00147 26.9526 8.39763 26.7024 7.76801 26.7024C7.32998 26.6997 6.89998 26.8199 6.5268 27.0493C6.15362 27.2786 5.85222 27.608 5.65681 28C5.48435 28.332 5.39487 28.7008 5.39601 29.0748C5.39661 29.6272 5.58916 30.1622 5.94072 30.5883C6.29228 31.0143 6.78099 31.305 7.32321 31.4104ZM6.72521 28.5468C6.82139 28.3528 6.97014 28.1897 7.1545 28.076C7.33886 27.9624 7.55144 27.9028 7.76801 27.904C8.0006 27.9035 8.22812 27.972 8.42174 28.1009C8.61537 28.2297 8.76638 28.4132 8.85564 28.628C8.94491 28.8427 8.96841 29.0792 8.92317 29.3073C8.87793 29.5355 8.76598 29.7451 8.60151 29.9095C8.43705 30.074 8.22746 30.186 7.99931 30.2312C7.77116 30.2764 7.53472 30.2529 7.31994 30.1637C7.10516 30.0744 6.9217 29.9234 6.79283 29.7298C6.66395 29.5362 6.59545 29.3086 6.59601 29.076C6.59545 28.8918 6.6398 28.7101 6.72521 28.5468Z" fill="black"/>
<path d="M33.2312 26.702C32.7615 26.7019 32.3024 26.8411 31.9119 27.102C31.5214 27.3629 31.217 27.7337 31.0372 28.1676C30.8574 28.6015 30.8104 29.0789 30.902 29.5396C30.9936 30.0002 31.2197 30.4233 31.5518 30.7554C31.8839 31.0875 32.307 31.3136 32.7677 31.4052C33.2283 31.4968 33.7057 31.4498 34.1396 31.27C34.5735 31.0902 34.9443 30.7859 35.2052 30.3953C35.4661 30.0048 35.6053 29.5457 35.6052 29.076C35.6043 28.4467 35.3539 27.8433 34.9089 27.3983C34.4639 26.9533 33.8605 26.7029 33.2312 26.702ZM33.2312 30.2504C32.9989 30.2505 32.7718 30.1817 32.5786 30.0527C32.3854 29.9237 32.2348 29.7403 32.1459 29.5257C32.0569 29.3111 32.0336 29.075 32.0789 28.8472C32.1242 28.6193 32.236 28.41 32.4002 28.2457C32.5644 28.0815 32.7737 27.9696 33.0015 27.9242C33.2293 27.8789 33.4655 27.9021 33.6801 27.991C33.8947 28.0799 34.0782 28.2304 34.2072 28.4235C34.3363 28.6167 34.4052 28.8437 34.4052 29.076C34.4049 29.3873 34.2811 29.6858 34.061 29.906C33.8409 30.1261 33.5425 30.25 33.2312 30.2504Z" fill="black"/>
<path d="M35.8124 25.4072C36.3636 21.9505 35.7423 18.4087 34.0475 15.346C32.3526 12.2833 29.6816 9.87573 26.46 8.50683C26.5754 7.7088 26.525 6.89555 26.3121 6.11786C26.0991 5.34017 25.728 4.61474 25.2221 3.98687C24.7162 3.35899 24.0863 2.84216 23.3717 2.46864C22.6571 2.09512 21.8732 1.87294 21.0689 1.81596C20.2646 1.75899 19.4572 1.86844 18.697 2.1375C17.9369 2.40655 17.2404 2.82942 16.6511 3.37971C16.0617 3.92999 15.5921 4.59587 15.2716 5.33577C14.9512 6.07567 14.7867 6.8737 14.7884 7.68003C14.7884 7.87043 14.8016 8.05883 14.8196 8.24643C11.3969 9.52236 8.52732 11.9536 6.70641 15.1201C4.8855 18.2866 4.22762 21.9897 4.8464 25.5896C3.72586 26.2335 2.84925 27.2293 2.35268 28.4224C1.85612 29.6156 1.76738 30.9393 2.10024 32.188C2.4331 33.4368 3.16895 34.5407 4.19352 35.3283C5.21809 36.116 6.47405 36.5434 7.7664 36.544C8.9133 36.5473 10.0356 36.2116 10.9924 35.5792C13.6867 37.5833 16.9581 38.66 20.316 38.648C23.7469 38.6447 27.0825 37.5189 29.8136 35.4424C30.8619 36.196 32.1298 36.5824 33.4202 36.5415C34.7106 36.5006 35.9515 36.0348 36.95 35.2164C36.9552 35.2124 36.9584 35.2068 36.9632 35.2024C37.7209 34.5786 38.3099 33.7746 38.6762 32.864C39.0425 31.9535 39.1744 30.9656 39.0599 29.9909C38.9454 29.0162 38.5881 28.0857 38.0207 27.2849C37.4533 26.4841 36.694 25.8385 35.8124 25.4072ZM20.6572 3.01203C21.5371 3.01155 22.3993 3.25984 23.1442 3.72824C23.8891 4.19664 24.4864 4.86608 24.8672 5.65933C25.248 6.45258 25.3968 7.33733 25.2965 8.21152C25.1961 9.0857 24.8507 9.91371 24.3 10.6C24.102 10.1344 23.8169 9.71098 23.46 9.35243C23.1701 9.06055 22.835 8.81742 22.4676 8.63243C22.4556 8.62643 22.4432 8.62363 22.4308 8.61843L22.3992 8.60643C22.3367 8.58399 22.2708 8.57222 22.2044 8.57163C22.194 8.57163 22.1848 8.57163 22.1748 8.57163C22.1079 8.57378 22.0419 8.58731 21.9796 8.61163C21.97 8.61523 21.9616 8.61923 21.952 8.62363C21.8885 8.65258 21.8306 8.69237 21.7808 8.74123C21.7772 8.74483 21.7724 8.74563 21.7688 8.74923C21.625 8.89945 21.4523 9.01897 21.261 9.10058C21.0698 9.18219 20.8639 9.22418 20.656 9.22403C20.4485 9.22521 20.2429 9.18379 20.0521 9.10233C19.8612 9.02086 19.6891 8.90109 19.5464 8.75043C19.5428 8.74683 19.538 8.74563 19.5344 8.74203C19.4845 8.69216 19.4261 8.65153 19.362 8.62203L19.3368 8.61123C19.2741 8.58589 19.2076 8.57128 19.14 8.56803H19.1124C19.0454 8.56763 18.9788 8.57886 18.9156 8.60123C18.9048 8.60483 18.8948 8.60923 18.8844 8.61363C18.874 8.61803 18.8508 8.62483 18.8348 8.63323C18.0196 9.05941 17.378 9.75586 17.02 10.6032C16.4684 9.91718 16.122 9.0891 16.0209 8.2146C15.9199 7.3401 16.0682 6.45484 16.4488 5.66106C16.8295 4.86727 17.4268 4.19733 18.172 3.72859C18.9171 3.25986 19.7797 3.01144 20.66 3.01203H20.6572ZM19.0544 9.90563C19.5206 10.243 20.0814 10.4246 20.6568 10.4246C21.2323 10.4246 21.793 10.243 22.2592 9.90563C22.3848 9.99422 22.5027 10.0932 22.6116 10.2016C22.9685 10.5596 23.2204 11.0085 23.34 11.4996C23.3248 11.5104 23.3108 11.5224 23.296 11.5324C23.29 11.5368 23.2836 11.5404 23.2772 11.5448C23.1764 11.6128 23.0733 11.6768 22.968 11.7368C22.9508 11.7468 22.9328 11.7556 22.9156 11.7652C22.8196 11.818 22.7224 11.868 22.6232 11.914L22.5568 11.9436C22.46 11.9868 22.362 12.0268 22.2628 12.0636C22.2392 12.0724 22.216 12.0808 22.1924 12.0888C22.0908 12.1246 21.9883 12.1563 21.8848 12.184L21.8216 12.2016C21.7096 12.2304 21.5968 12.2548 21.4828 12.2756C21.4704 12.2756 21.4576 12.2808 21.4448 12.2828C20.2535 12.4887 19.0287 12.2232 18.0296 11.5424L18.016 11.5336C18.0012 11.5236 17.9876 11.512 17.9732 11.5016C18.1301 10.857 18.5139 10.2904 19.0544 9.90563ZM3.1 30.676C3.10273 29.7926 3.3549 28.928 3.82748 28.1816C4.30006 27.4352 4.97382 26.8375 5.7712 26.4572C6.39435 26.1587 7.07702 26.0051 7.768 26.008C8.64729 26.008 9.5087 26.2564 10.253 26.7244C10.9974 27.1925 11.5944 27.8613 11.9753 28.6538C12.3562 29.4463 12.5055 30.3303 12.4061 31.204C12.3067 32.0776 11.9625 32.9054 11.4132 33.592C11.0732 32.7888 10.4761 32.1211 9.7156 31.694L9.7084 31.6908C9.6908 31.6812 9.6724 31.6748 9.654 31.6668C9.6356 31.6588 9.6168 31.6496 9.5976 31.6436C9.5784 31.6376 9.5684 31.6372 9.554 31.634C9.53046 31.6278 9.50654 31.6232 9.4824 31.62C9.4708 31.62 9.4592 31.62 9.4476 31.62C9.42096 31.6182 9.39424 31.6182 9.3676 31.62C9.3532 31.62 9.3396 31.6252 9.3252 31.6276C9.30176 31.6306 9.27852 31.635 9.2556 31.6408C9.238 31.6456 9.2216 31.654 9.2044 31.6604C9.18548 31.6669 9.16692 31.6744 9.1488 31.6828C9.13282 31.6916 9.11733 31.7012 9.1024 31.7116C9.08434 31.722 9.06685 31.7334 9.05 31.7456C9.0372 31.756 9.0256 31.7684 9.0136 31.78C8.99576 31.7952 8.97905 31.8116 8.9636 31.8292L8.9584 31.834C8.81305 32.0089 8.63099 32.1497 8.42515 32.2464C8.2193 32.3431 7.9947 32.3934 7.76727 32.3935C7.53984 32.3937 7.31516 32.3439 7.10915 32.2475C6.90314 32.1512 6.72085 32.0107 6.5752 31.836C6.50026 31.7473 6.40119 31.6823 6.29 31.6487C6.17881 31.6152 6.06028 31.6147 5.9488 31.6472L5.9396 31.6492C5.9204 31.6552 5.902 31.6648 5.8832 31.6728C5.8644 31.6808 5.8452 31.6876 5.8268 31.6976H5.8232C5.06522 32.1265 4.47034 32.7939 4.1312 33.596C3.4636 32.7693 3.09963 31.7387 3.1 30.676ZM7.3828 35.328C7.3404 35.3244 7.2988 35.318 7.2568 35.3136C7.172 35.3044 7.0876 35.2948 7.0036 35.2812C6.9548 35.2732 6.9064 35.2628 6.858 35.2532C6.7824 35.2384 6.7072 35.2228 6.6324 35.2044C6.582 35.1916 6.5316 35.1772 6.4816 35.1644C6.4104 35.1444 6.3396 35.1244 6.27 35.0992C6.2196 35.0819 6.1696 35.0639 6.12 35.0452C6.0512 35.0192 5.9832 34.9912 5.916 34.962C5.8676 34.9412 5.8192 34.9196 5.7712 34.8972C5.7036 34.8648 5.6368 34.83 5.5712 34.794C5.526 34.77 5.4808 34.746 5.4364 34.7204C5.3668 34.6804 5.2988 34.636 5.2308 34.5916C5.1908 34.5664 5.1508 34.5424 5.1144 34.516C5.1048 34.5092 5.096 34.5016 5.0868 34.4948C5.23163 33.8997 5.57122 33.37 6.0516 32.99C6.53863 33.3815 7.1449 33.5946 7.76976 33.5941C8.39463 33.5935 9.0005 33.3792 9.4868 32.9868C9.56945 33.0507 9.64825 33.1193 9.7228 33.1924C10.0823 33.5503 10.3356 34.0006 10.4548 34.4936C10.4316 34.51 10.4088 34.5272 10.3852 34.5432C10.3368 34.576 10.2876 34.6076 10.2376 34.6388C10.1812 34.674 10.1244 34.708 10.0664 34.7408C10.0164 34.7692 9.9656 34.7972 9.9144 34.8236C9.8552 34.8544 9.7944 34.8836 9.7344 34.9116C9.6832 34.9356 9.6316 34.9592 9.5796 34.9812C9.5168 35.0076 9.4536 35.0316 9.39 35.0548C9.3384 35.074 9.2868 35.0948 9.2344 35.1108C9.168 35.1328 9.1004 35.1508 9.0344 35.1704C8.9832 35.1848 8.9324 35.2 8.8808 35.2124C8.8088 35.23 8.736 35.244 8.6632 35.258C8.6144 35.2672 8.5664 35.278 8.5176 35.286C8.4356 35.2988 8.3524 35.3076 8.2696 35.3164C8.2296 35.3208 8.1896 35.3272 8.1468 35.3304C8.022 35.3403 7.8964 35.3454 7.77 35.3456C7.6384 35.344 7.51 35.338 7.3828 35.328ZM11.9508 34.792C12.8745 33.8583 13.4579 32.6414 13.6073 31.3364C13.7567 30.0315 13.4636 28.7142 12.7748 27.5958C12.086 26.4774 11.0416 25.6228 9.809 25.169C8.57642 24.7152 7.22715 24.6885 5.9776 25.0932C5.49432 21.8404 6.13004 18.5199 7.78063 15.6756C9.43121 12.8313 11.9988 10.6319 15.0628 9.43763C15.402 10.5276 16.0528 11.4946 16.9348 12.2192L16.9396 12.2244C17.9886 13.0829 19.3024 13.552 20.658 13.552C22.0136 13.552 23.3274 13.0829 24.3764 12.2244C24.3812 12.2204 24.3844 12.2148 24.3892 12.2108C25.1954 11.546 25.809 10.6776 26.1664 9.69563C29.055 10.9724 31.4479 13.157 32.9819 15.9177C34.5159 18.6783 35.107 21.8641 34.6656 24.9912C33.4431 24.682 32.1535 24.7751 30.9881 25.2569C29.8228 25.7386 28.8438 26.5832 28.1965 27.6654C27.5491 28.7476 27.268 30.0096 27.3947 31.2642C27.5215 32.5189 28.0493 33.6992 28.9 34.63C26.4111 36.4583 23.4042 37.4454 20.316 37.448C17.3185 37.459 14.393 36.5301 11.9508 34.792ZM31.5132 32.9884C32.0002 33.3798 32.6063 33.5929 33.2311 33.5924C33.8559 33.5919 34.4617 33.3778 34.948 32.9856C35.0305 33.0495 35.1092 33.1181 35.1836 33.1912C35.5433 33.5489 35.7967 33.9993 35.9156 34.4924C35.904 34.5004 35.8932 34.51 35.8816 34.518C35.8448 34.5432 35.8064 34.5664 35.7688 34.5908C35.7064 34.6308 35.6432 34.6708 35.5792 34.7108C35.5152 34.7508 35.4408 34.788 35.3704 34.824C35.3372 34.8412 35.304 34.8588 35.27 34.8756C35.184 34.9156 35.0964 34.9556 35.008 34.9928L34.9504 35.016C34.8548 35.054 34.7576 35.0888 34.6596 35.1204C34.6444 35.1256 34.6288 35.13 34.6136 35.1348C34.5152 35.1652 34.4136 35.1928 34.3152 35.2148C34.2924 35.2204 34.2696 35.2248 34.2464 35.2296C34.154 35.2504 34.0612 35.2696 33.9664 35.284C33.9172 35.2916 33.8676 35.2968 33.8184 35.3032C33.7484 35.312 33.6788 35.3216 33.6084 35.3276C33.4836 35.3372 33.3576 35.3432 33.2308 35.3432C33.0975 35.3432 32.9641 35.3375 32.8308 35.326H32.8256C32.3024 35.2799 31.7906 35.1463 31.3116 34.9308L31.2772 34.9156C31.1808 34.8712 31.0864 34.822 30.9928 34.7712C30.9648 34.756 30.9368 34.7412 30.9088 34.7252C30.8388 34.6852 30.7704 34.6412 30.7024 34.5972C30.6576 34.568 30.6124 34.5404 30.5684 34.51C30.5612 34.5048 30.5548 34.4992 30.5476 34.4944C30.6926 33.8988 31.0325 33.3688 31.5132 32.9884ZM36.8732 33.5884C36.533 32.7862 35.9364 32.1194 35.1768 31.6924L35.1712 31.69C35.1482 31.6779 35.1244 31.6674 35.1 31.6584C35.0868 31.6536 35.0744 31.6468 35.06 31.6424C35.0366 31.6358 35.0129 31.6307 34.9888 31.6272C34.9744 31.6244 34.96 31.62 34.9456 31.6184C34.9204 31.6168 34.8952 31.6168 34.87 31.6184C34.8572 31.6184 34.844 31.6184 34.83 31.6184C34.8014 31.6215 34.7731 31.6266 34.7452 31.6336C34.736 31.6356 34.7268 31.636 34.7176 31.6388C34.6903 31.6471 34.6635 31.6572 34.6376 31.6692C34.6284 31.6732 34.6184 31.6756 34.6096 31.6804C34.5886 31.6916 34.5685 31.7041 34.5492 31.718C34.536 31.7268 34.522 31.734 34.5092 31.7436C34.4797 31.7709 34.4507 31.7988 34.4224 31.8272L34.4168 31.8324C34.2715 32.0073 34.0895 32.1481 33.8837 32.2448C33.6778 32.3415 33.4533 32.3917 33.2259 32.3919C32.9985 32.3921 32.7738 32.3423 32.5678 32.2459C32.3619 32.1496 32.1796 32.0091 32.034 31.8344L32.0308 31.8312C32.0122 31.8104 31.9922 31.7908 31.9708 31.7728C31.962 31.7652 31.954 31.7556 31.9448 31.7484C31.9207 31.7303 31.8953 31.714 31.8688 31.6996C31.8612 31.6952 31.854 31.6892 31.8464 31.6856C31.7166 31.6202 31.5675 31.6042 31.4268 31.6404C31.4164 31.6428 31.406 31.644 31.396 31.6472C31.3796 31.652 31.3644 31.6604 31.3484 31.6668C31.3264 31.6751 31.3049 31.6846 31.284 31.6952H31.2804C30.5231 32.1237 29.9287 32.7904 29.5896 33.5916C29.0385 32.9057 28.6925 32.078 28.5916 31.2039C28.4906 30.3299 28.6387 29.4451 29.0189 28.6516C29.399 27.8581 29.9957 27.1882 30.7401 26.7191C31.4846 26.2501 32.3464 26.001 33.2263 26.0006C34.1061 26.0002 34.9682 26.2486 35.713 26.7169C36.4579 27.1853 37.0552 27.8547 37.436 28.6479C37.8169 29.4411 37.9658 30.3257 37.8655 31.1999C37.7653 32.074 37.4201 32.902 36.8696 33.5884H36.8732Z" fill="black"/>
<path d="M20.6572 8.45644C21.1267 8.45644 21.5857 8.3172 21.9761 8.05634C22.3665 7.79549 22.6708 7.42472 22.8505 6.99093C23.0302 6.55714 23.0772 6.0798 22.9856 5.61929C22.894 5.15878 22.6679 4.73577 22.3359 4.40376C22.0039 4.07175 21.5809 3.84565 21.1203 3.75405C20.6598 3.66245 20.1825 3.70946 19.7487 3.88915C19.3149 4.06883 18.9442 4.37311 18.6833 4.76351C18.4224 5.15391 18.2832 5.6129 18.2832 6.08244C18.2839 6.71183 18.5343 7.31524 18.9794 7.76029C19.4244 8.20534 20.0278 8.4557 20.6572 8.45644ZM20.6572 4.90844C20.9685 4.90865 21.2671 5.03239 21.4873 5.2525C21.7074 5.47261 21.8313 5.7711 21.8316 6.08244C21.8314 6.15915 21.8237 6.23566 21.8084 6.31084V6.31884C21.7638 6.53647 21.6583 6.73698 21.5043 6.89708C21.3502 7.05718 21.1539 7.1703 20.9382 7.22331C20.7224 7.27632 20.4961 7.26705 20.2854 7.19657C20.0747 7.12609 19.8883 6.99729 19.7479 6.82513C19.6075 6.65297 19.5188 6.44451 19.4921 6.22395C19.4654 6.0034 19.5018 5.77979 19.5971 5.5791C19.6924 5.37841 19.8426 5.20886 20.0304 5.09015C20.2182 4.97144 20.4358 4.90843 20.658 4.90844H20.6572Z" fill="black"/>
</svg>
