<svg width="77" height="89" viewBox="0 0 77 89" fill="none" xmlns="http://www.w3.org/2000/svg">
<path d="M8.43567 22.2509L47.6817 2.9024L56.9342 37.9574L12.3589 36.3506L8.43567 22.2509Z" fill="#EBDBCD"/>
<path d="M35.9789 12.5164L34.4658 23.8042C34.4524 23.9515 34.5194 24.0987 34.6533 24.1523C35.0952 24.3398 36.1262 24.7415 37.2777 24.8084C38.215 24.862 39.862 24.6076 40.8127 24.313C40.9868 24.2594 41.1073 24.0586 41.0403 23.8845L36.6216 12.4361C36.5011 12.1147 36.0325 12.1817 35.9789 12.5164Z" fill="#110580"/>
<path d="M41.0671 22.3045C44.7225 22.3045 47.6951 19.3319 47.6951 15.6764C47.6951 12.021 44.7225 9.0484 41.0671 9.0484C37.4116 9.0484 34.4391 12.021 34.4391 15.6764C34.4391 19.3453 37.3982 22.3045 41.0671 22.3045Z" fill="#FCB58A"/>
<path d="M31.1317 66.6923H22.0667V73.548H31.1317V66.6923Z" fill="#F8D7BC"/>
<path d="M21.183 66.1567V66.6789H31.1452V73.5346H21.183V74.0568H59.5185V66.1567H21.183Z" fill="#4E53BA"/>
<path d="M17.3802 62.0996C17.6079 63.5055 17.8757 64.8981 18.2104 66.2772C18.7996 68.7142 22.5488 67.6832 21.9596 65.2462C21.6249 63.867 21.3571 62.4745 21.1294 61.0685C20.9688 60.0375 19.6699 59.4617 18.7326 59.7028C17.6213 60.0241 17.2062 61.0685 17.3802 62.0996Z" fill="#E3996D"/>
<path d="M76.5907 47.866L69.8287 51.7892L69.7083 43.7954L76.5907 47.866Z" fill="#2B31BA"/>
<path d="M39.8754 41.4522C39.8352 41.4388 39.795 41.412 39.7549 41.412C39.1122 41.3049 34.1579 40.448 29.0161 39.4571C26.7264 39.0152 20.0448 37.1272 16.5366 38.493C13.0418 39.8588 12.3456 41.9075 12.0376 43.3402C11.7698 44.639 12.2384 49.0443 13.3766 53.5166C14.3942 57.5202 16.8848 62.595 17.3936 63.6126C17.4471 63.7332 17.581 63.8135 17.7149 63.8269C18.0363 63.8403 18.679 63.8403 19.4958 63.5859C20.2323 63.3716 21.0089 62.9565 21.357 62.7557C21.4775 62.6887 21.5445 62.5682 21.5445 62.4343C21.5579 61.323 21.6516 56.1142 21.5177 52.4588C21.3838 48.9104 20.1653 47.7321 20.1653 47.7321C20.1653 47.7321 24.3698 52.4052 28.668 53.6773C32.069 54.6815 39.1925 56.9176 42.1383 56.8373C45.5527 56.7436 48.0299 55.2975 49.1279 53.5568C51.1765 50.3432 49.9045 45.5763 49.5831 44.5319C49.5429 44.398 49.4358 44.3043 49.3019 44.2775C48.1772 44.0097 42.8346 42.7376 41.4554 42.1619C40.344 41.6798 39.9825 41.5058 39.8754 41.4522Z" fill="#FF8A91"/>
<path d="M49.4359 39.9525C49.4359 39.9525 49.3556 40.8362 49.4493 42.0949C49.5296 43.3669 49.7305 44.331 49.7305 44.331C49.7305 44.331 44.6155 43.5008 42.6739 42.751C40.2236 41.8003 39.8353 41.412 39.8353 41.412C39.8353 41.412 40.2905 40.3809 40.4646 39.6445C40.5851 39.0955 40.6521 37.5958 40.6521 37.5958C40.6521 37.5958 43.3033 38.8545 45.1511 39.2963C46.9989 39.7382 49.4359 39.9525 49.4359 39.9525Z" fill="#FCB58A"/>
<path d="M4.94091 11.4987C7.67247 11.4987 9.88182 9.28939 9.88182 6.55784C9.88182 3.82628 7.67247 1.61694 4.94091 1.61694C2.20935 1.61694 0 3.82628 0 6.55784C0 9.28939 2.20935 11.4987 4.94091 11.4987Z" fill="#4E53BA"/>
<path d="M43.5844 85.8266H13.2561V74.7531H43.5711C45.0841 74.7531 46.3026 75.9715 46.3026 77.4846V83.095C46.3294 84.6081 45.0975 85.8266 43.5844 85.8266Z" fill="#F8ECE2"/>
<path d="M61.5538 74.0568H11.9439C11.7564 74.0568 11.5957 74.2041 11.5957 74.405C11.5957 74.5924 11.743 74.7531 11.9439 74.7531H18.0363H40.7725C43.8388 74.7531 46.316 77.2302 46.316 80.2966C46.316 83.3629 43.8388 85.84 40.7725 85.84H12.6937H11.9439C11.7564 85.84 11.5957 85.9873 11.5957 86.1881C11.5957 86.389 11.743 86.5363 11.9439 86.5363H61.5538C64.6201 86.5363 67.0972 84.0591 67.0972 80.9928V79.6137C67.0972 76.534 64.6201 74.0568 61.5538 74.0568Z" fill="#FF5856"/>
<path d="M41.8437 77.1499H13.2695V76.7616H41.8437C41.9508 76.7616 42.0312 76.8419 42.0312 76.9491C42.0312 77.0696 41.9508 77.1499 41.8437 77.1499Z" fill="#EBD0BE"/>
<path d="M28.6545 71.9144H22.0667V71.5261H28.6545C28.7617 71.5261 28.842 71.6064 28.842 71.7135C28.842 71.8206 28.7617 71.9144 28.6545 71.9144Z" fill="#E0C1A6"/>
<path d="M27.1013 69.7452H22.0667V69.3569H27.0879C27.195 69.3569 27.2754 69.4373 27.2754 69.5444C27.2888 69.6649 27.2084 69.7452 27.1013 69.7452Z" fill="#E0C1A6"/>
<path d="M43.9191 81.4614H13.2695V81.0731H43.9191C44.0263 81.0731 44.1066 81.1535 44.1066 81.2606C44.1066 81.3677 44.0263 81.4614 43.9191 81.4614Z" fill="#EBD0BE"/>
<path d="M40.1432 83.8583H13.2695V83.47H40.1432C40.2503 83.47 40.3306 83.5503 40.3306 83.6574C40.3306 83.7645 40.2503 83.8583 40.1432 83.8583Z" fill="#EBD0BE"/>
<path d="M42.9952 79.3458H13.2695V78.9575H42.9952C43.1024 78.9575 43.1827 79.0379 43.1827 79.145C43.1827 79.2521 43.1024 79.3458 42.9952 79.3458Z" fill="#EBD0BE"/>
<path d="M39.7414 65.5273H28.0788V61.4166H39.7414C40.0628 61.4166 40.3172 61.671 40.3172 61.9924V64.9516C40.3172 65.2729 40.0494 65.5273 39.7414 65.5273Z" fill="#F8D0B3"/>
<path d="M60.7504 60.7873H37.5857H27.4227H27.1147C26.9406 60.7873 26.7934 60.9346 26.7934 61.1087C26.7934 61.2827 26.9406 61.43 27.1147 61.43H28.0788H39.1657C39.795 61.43 40.3173 61.9522 40.3173 62.5816V64.3758C40.3173 65.0051 39.795 65.5274 39.1657 65.5274H36.635H27.1951C27.021 65.5274 26.8737 65.6746 26.8737 65.8487C26.8737 66.0228 27.021 66.1701 27.1951 66.1701H27.4361H37.666H60.7504C61.3797 66.1701 61.9019 65.6479 61.9019 65.0185V61.9522C61.9019 61.2961 61.3797 60.7873 60.7504 60.7873Z" fill="#FF7A82"/>
<path d="M20.6206 35.6275C24.0618 34.0877 28.0386 36.1497 31.4665 36.7389C34.8274 37.3147 38.5096 36.8594 40.8395 34.1145C41.3617 33.4851 41.4554 32.5746 40.8395 31.9587C40.2905 31.4097 39.2193 31.3293 38.6837 31.9587C36.4877 34.5429 33.0733 34.0743 30.1275 33.3245C26.4318 32.3738 22.763 31.3427 19.0941 32.9897C18.3443 33.3245 18.1568 34.4224 18.5451 35.0785C18.987 35.8552 19.8707 35.9623 20.6206 35.6275Z" fill="#F0A173"/>
<path d="M21.7186 36.5782C25.4544 35.3597 29.1366 37.7699 32.6314 38.801C35.9789 39.7784 39.6879 39.6311 42.299 37.087C43.7049 35.7213 41.5491 33.5655 40.1432 34.9312C37.7866 37.2209 34.3453 36.2569 31.6405 35.2526C28.1993 33.9806 24.6108 32.4273 20.9018 33.6458C19.0674 34.235 19.8574 37.1942 21.7186 36.5782Z" fill="#FCB58A"/>
<path d="M45.2313 25.0762C45.5527 25.1699 48.4717 26.3482 49.5563 30.2447C50.4668 33.4583 51.2301 38.2386 51.4711 39.8052C51.5246 40.0998 51.3238 40.3944 51.0158 40.4479C50.1454 40.622 48.2575 40.8898 45.8874 40.6755C42.5801 40.381 40.4779 39.4838 40.4779 39.4838L40.5582 38.734L40.2636 38.8679C40.036 38.975 39.7548 38.9081 39.6075 38.7072L37.4517 35.8418C37.3045 35.6543 37.3714 35.3865 37.5723 35.2794L37.599 35.266L35.8583 33.1771C35.6977 32.9763 35.7111 32.6817 35.8985 32.5076C36.5145 31.9185 37.8534 30.5661 38.8041 29.2673C39.5004 28.33 40.4109 26.616 40.9733 25.9599C42.1248 24.5942 44.3744 24.8218 45.2313 25.0762Z" fill="white"/>
<path d="M45.3385 26.2947L43.2229 20.845L39.1925 20.8182L41.3081 26.2679L45.3385 26.2947Z" fill="#FCB58A"/>
<path d="M41.6429 27.4864C42.2454 27.6337 43.0622 27.058 43.7451 26.75C44.4815 26.4286 45.3251 26.2947 45.3251 26.2947L41.2947 26.2679C41.2947 26.2679 41.0001 27.3391 41.6429 27.4864Z" fill="#FCB58A"/>
<path d="M40.2235 31.8917C40.2235 31.8917 39.8218 32.9763 39.4201 33.5789C39.0184 34.1814 37.6258 35.2526 37.6258 35.2526L37.1036 34.6233C37.1036 34.6233 38.0677 34.1278 38.7506 33.4717C39.2594 33.0031 40.2235 31.8917 40.2235 31.8917Z" fill="#E0E0E0"/>
<path d="M40.5717 38.7206C40.5717 38.7206 41.817 37.9842 42.3794 37.3816C42.9418 36.7791 43.7184 35.5606 43.7184 35.5606C43.7184 35.5606 42.8614 37.4084 42.4463 38.2118C41.8572 39.3098 41.4153 39.7918 41.4153 39.7918L40.5182 39.4705C40.5182 39.4705 40.5316 39.283 40.5584 39.109C40.5584 38.9483 40.5717 38.7206 40.5717 38.7206Z" fill="#E0E0E0"/>
<path d="M17.648 35.2124C18.5184 34.6634 19.4289 34.2349 20.4197 33.927C21.2365 33.6726 20.8884 32.3737 20.0582 32.6148C18.9736 32.9495 17.9426 33.4182 16.9785 34.0341C16.2555 34.5027 16.9116 35.6677 17.648 35.2124Z" fill="#F0A173"/>
<path d="M48.0299 10.8828C49.409 10.8828 50.5204 9.77144 50.5204 8.39227C50.5204 7.0131 49.409 5.90173 48.0299 5.90173C46.6507 5.90173 45.5393 7.0131 45.5393 8.39227C45.5259 9.77144 46.6507 10.8828 48.0299 10.8828Z" fill="#110580"/>
<path d="M40.9064 17.6715C41.6027 17.9259 41.9107 17.9259 41.9107 17.9259C41.8303 17.4707 41.7366 16.9752 41.7366 16.9351C41.7366 16.9351 40.5851 16.5468 39.8218 15.7835C38.6703 14.632 39.2461 13.4805 38.282 12.5164C37.4786 11.713 36.4743 11.3648 36.1396 11.2711C36.1262 11.2845 36.1262 11.2845 36.1262 11.2845C36.1396 11.2979 37.3715 11.7933 38.1749 12.8779C38.9917 13.9625 38.2552 15.0337 39.2327 16.3325C39.8084 17.1359 40.3039 17.4439 40.9064 17.6715Z" fill="#E3996D"/>
<path d="M43.5844 21.8091C42.8078 22.1304 41.9509 22.3045 41.0537 22.3045C40.5985 22.3045 40.1298 22.2509 39.7013 22.1572L40.2637 23.6033C40.4244 23.59 40.5851 23.5498 40.7457 23.523C41.8705 23.2686 42.8614 22.7196 43.6514 21.9832L43.5844 21.8091Z" fill="#E3996D"/>
<path d="M42.6471 22.8133C41.3349 22.8133 40.2503 21.7421 40.2503 20.4165C40.2503 19.1043 41.3215 18.0197 42.6471 18.0197C43.9727 18.0197 45.0439 19.0909 45.0439 20.4165C45.0439 21.7421 43.9593 22.8133 42.6471 22.8133ZM42.6471 18.4214C41.5491 18.4214 40.652 19.3185 40.652 20.4165C40.652 21.5145 41.5491 22.4116 42.6471 22.4116C43.745 22.4116 44.6422 21.5145 44.6422 20.4165C44.6422 19.3185 43.745 18.4214 42.6471 18.4214Z" fill="white"/>
<path d="M50.3732 24.1255C50.641 24.0318 50.8017 23.7372 50.6945 23.4694L47.5211 13.8554C46.7177 11.0301 44.1334 8.95465 41.0538 8.95465C39.0453 8.95465 37.251 9.83839 36.0191 11.2176C36.0325 11.2176 37.3179 11.5389 38.2686 12.503C39.2327 13.4671 38.6569 14.6186 39.8085 15.7702C40.5717 16.5334 41.7233 16.9217 41.7233 16.9217C41.7233 17.0422 42.2856 19.9344 42.7409 22.184C42.8346 22.6794 42.9283 23.2552 43.0087 23.697C43.0488 23.9113 43.1962 24.0853 43.397 24.1657C44.5619 24.6343 45.9009 24.8753 47.3336 24.8084C48.3647 24.7682 49.6769 24.3665 50.3732 24.1255Z" fill="#110580"/>
<path d="M49.6635 43.6883C49.6635 43.6883 50.1188 45.5763 49.9849 45.5763C49.8376 45.5629 44.2807 44.4783 42.8346 44.1569C39.6612 43.474 39.1657 41.3183 39.1657 41.3183C39.1657 41.3183 39.4202 41.3049 39.688 41.104C39.9558 40.9032 40.0495 40.8228 40.0495 40.8228C40.0495 40.8228 40.5048 41.9342 43.2631 42.7376C47.106 43.849 49.6635 43.6883 49.6635 43.6883Z" fill="#FFADB2"/>
<path d="M17.956 65.206C17.956 65.206 19.228 65.1926 19.8707 65.0855C20.5135 64.965 21.7587 64.3624 21.7587 64.3624C21.7587 64.3624 22.4952 65.9692 22.696 66.3977C22.9103 66.8262 23.8074 67.884 23.9279 68.5803C24.0484 69.2766 24.0752 70.8298 21.3972 71.0708C20.1519 71.1779 18.987 73.6952 17.6346 73.8827C16.9651 73.9764 13.7783 74.3246 12.8812 73.8291C11.984 73.3337 12.2652 72.0081 14.4478 71.2984C16.6304 70.5754 16.2153 69.8523 16.7375 68.9284C17.2329 67.9777 17.956 65.206 17.956 65.206Z" fill="#AB534D"/>
<path d="M10.5379 62.7289C10.3505 64.2955 10.163 65.8487 9.97553 67.4154C9.85502 68.4598 10.9664 69.3703 11.9305 69.3703C13.082 69.3703 13.7515 68.4732 13.8854 67.4154C14.0729 65.8487 14.2603 64.2955 14.4478 62.7289C14.5683 61.6844 13.4569 60.7739 12.4929 60.7739C11.3279 60.7873 10.6584 61.6844 10.5379 62.7289Z" fill="#FCB58A"/>
<path d="M41.2278 56.7837C44.0397 57.0649 46.6373 56.2749 48.6191 54.3601C50.5874 52.4453 50.4669 49.2317 50.3598 47.9329C50.2794 46.9019 49.9313 45.2415 49.7974 44.5854C49.7572 44.4247 49.6367 44.2908 49.476 44.2641C48.4718 44.0766 44.9502 43.4473 43.9058 43.1259C43.0488 42.8581 42.299 42.5635 41.9241 42.4162C41.7768 42.3627 41.6161 42.3895 41.4956 42.4966C41.1742 42.7912 40.411 43.3134 39.1657 43.1929C37.4786 43.0188 30.0471 40.7291 27.1147 39.8186C24.1823 38.9215 19.2682 36.7389 14.7156 38.2386C11.81 39.2027 9.64079 41.9744 9.57384 47.799C9.53367 52.3248 9.52029 58.1093 9.60063 60.2919C9.65419 62.0058 9.58723 63.8268 9.56045 64.5231C9.54706 64.7106 9.65418 64.8579 9.81486 64.9248C10.1094 65.0453 10.6451 65.2194 11.3949 65.3801C12.3322 65.5809 13.4971 65.5006 14.0193 65.447C14.18 65.4336 14.3139 65.3265 14.3675 65.1658C14.6486 64.3357 15.5592 61.5907 16.3893 59.2876C18.4514 53.5165 18.6255 50.4101 18.5317 49.0175C18.505 48.6694 18.8933 48.4551 19.1745 48.656C20.5402 49.5933 23.4727 51.5214 26.7532 52.9943C31.2522 55.0296 37.7196 56.4356 41.2278 56.7837Z" fill="#FFADB2"/>
<path d="M45.1778 43.6615C45.1912 45.6834 44.5619 47.7588 43.089 49.2049C42.4329 49.8611 41.6161 50.3699 40.7189 50.6511C39.6477 50.9724 38.5096 50.9189 37.4116 50.7448C33.3143 50.0887 29.5517 48.2007 25.8561 46.4332C23.9948 45.5361 22.1202 44.6657 20.1653 43.9695C19.6699 43.7954 19.1878 43.6213 18.6924 43.474C18.1434 43.3134 17.581 43.1527 17.0187 43.2196C16.0948 43.3134 15.3851 43.9561 14.903 44.6925C14.3942 45.4959 14.1398 46.4466 13.939 47.3705C13.7113 48.3882 13.564 49.4192 13.4703 50.4636C13.323 51.9633 13.2829 53.463 13.149 54.9626C12.8678 57.9352 12.533 60.9346 12.0108 63.8804C11.9706 64.1214 11.9305 64.349 11.8769 64.5767C11.81 64.898 12.3054 65.0453 12.3723 64.7106C12.6267 63.4787 12.8008 62.2334 12.9615 60.9881C13.1891 59.3813 13.3766 57.7478 13.5507 56.1276C13.6979 54.7618 13.7917 53.4094 13.872 52.0436C13.9791 50.0217 14.1934 47.9329 14.8629 45.9913C15.144 45.1612 15.6261 44.3176 16.4295 43.9025C17.3936 43.4071 18.5451 43.9159 19.4824 44.2506C21.4507 44.9201 23.3521 45.7905 25.2267 46.6876C28.9491 48.4551 32.6716 50.3833 36.7689 51.1465C37.8803 51.3473 39.0184 51.4946 40.1432 51.3072C41.0671 51.1599 41.9642 50.7582 42.7007 50.2092C44.3209 49.0175 45.2983 47.1697 45.6063 45.1879C45.6866 44.6791 45.7268 44.1569 45.7134 43.6481C45.7 43.3267 45.1778 43.3268 45.1778 43.6615Z" fill="white"/>
<path d="M17.4204 36.2568C18.2907 35.4267 19.4155 35.1187 20.567 34.9045C21.3838 34.7438 21.0892 33.4717 20.2724 33.6324C18.9067 33.9002 17.5677 34.3153 16.5366 35.3062C15.9475 35.8819 16.8178 36.846 17.4204 36.2568Z" fill="#FCB58A"/>
<path d="M22.1336 36.6452L19.3351 37.3415C18.92 37.4486 18.5049 37.1942 18.3978 36.7791L17.956 34.9982C17.8488 34.5831 18.1032 34.168 18.5183 34.0609L21.3168 33.3647C21.7319 33.2575 22.147 33.5119 22.2541 33.927L22.696 35.7079C22.8031 36.123 22.5487 36.5515 22.1336 36.6452Z" fill="#FCB58A"/>
<path d="M45.4322 60.5061H26.5657V56.5561H45.4322C45.9678 56.5561 46.3963 56.9846 46.3963 57.5202V59.5153C46.3963 60.0643 45.9678 60.5061 45.4322 60.5061Z" fill="#F8E7D8"/>
<path d="M57.1886 56.2481H25.7623C25.682 56.2481 25.6151 56.3151 25.6151 56.3954C25.6151 56.4757 25.682 56.5427 25.7623 56.5427H44.4012C45.4992 56.5427 46.3829 57.4264 46.3829 58.5244C46.3829 59.6224 45.4992 60.5061 44.4012 60.5061H25.7623C25.682 60.5061 25.6151 60.5731 25.6151 60.6534C25.6151 60.7337 25.682 60.8007 25.7623 60.8007H57.1886C58.2866 60.8007 59.1704 59.917 59.1704 58.819V58.2432C59.157 57.1318 58.2732 56.2481 57.1886 56.2481Z" fill="#2B31BA"/>
<path d="M3.50822 76.6411C3.97687 77.5918 6.3469 78.0202 8.78388 76.2662C12.4661 73.6283 14.6755 74.4317 14.6755 72.2224C14.6755 71.2315 14.4746 70.321 14.2202 69.2766C13.9792 68.3259 13.9926 66.5316 13.9926 66.5316C13.9926 66.5316 12.2385 66.7191 11.3414 66.5584C10.6451 66.4379 10.1496 66.1701 10.1496 66.1701C10.1496 66.1701 9.89524 67.5894 9.07845 69.0891C8.50268 70.1469 8.07419 70.7896 7.09672 71.6868C6.48078 72.2358 2.71821 75.0744 3.50822 76.6411Z" fill="#C7645D"/>
<path d="M40.9064 59.6224H26.5657V59.4349H40.9064C40.96 59.4349 41.0001 59.4751 41.0001 59.5287C41.0001 59.5822 40.9734 59.6224 40.9064 59.6224Z" fill="#DEBCA7"/>
<path d="M42.473 57.6942H26.5657V57.5068H42.473C42.5266 57.5068 42.5668 57.547 42.5668 57.6005C42.5668 57.6407 42.5266 57.6942 42.473 57.6942Z" fill="#DEBCA7"/>
<path d="M44.2271 58.6181H26.5657V58.4307H44.2271C44.2807 58.4307 44.3209 58.4708 44.3209 58.5244C44.3209 58.578 44.2673 58.6181 44.2271 58.6181Z" fill="#DEBCA7"/>
<path d="M36.8761 81.0731H32.4172C32.4172 81.0731 31.6941 81.3141 31.0782 82.4523C30.315 83.8716 30.5828 85.2508 30.1007 86.3086C29.5383 87.5271 28.6546 87.9957 28.6546 87.9957C28.6546 87.9957 29.6455 88.1297 30.2346 88.0493C30.7702 87.969 31.4397 87.5271 31.4397 87.5271C31.4397 87.5271 31.5602 87.7815 31.587 88.2368C31.6272 88.7322 31.5736 89 31.5736 89C31.5736 89 33.2072 88.6117 33.8633 87.6744C34.7872 86.3622 34.0106 84.7688 35.2023 82.787C35.7513 81.9033 36.8761 81.0731 36.8761 81.0731Z" fill="#BFA990"/>
<path d="M60.1479 1.09475C61.4601 2.44714 62.1966 3.93342 63.0134 5.60717C63.241 6.06243 64.6469 5.15192 64.5398 4.69666C64.1113 2.91579 62.933 1.34916 61.6342 0.0905034C61.1923 -0.311196 59.7997 0.733223 60.1479 1.09475Z" fill="#F3E9E1"/>
<path d="M68.1015 0.934037C68.0614 2.58101 67.7132 4.13425 67.4053 5.74105C67.258 6.45071 68.6237 5.62054 68.771 5.24562C69.3736 3.6656 69.5476 1.87134 69.5343 0.184201C69.5075 -0.311229 68.1149 0.438607 68.1015 0.934037Z" fill="#F3E9E1"/>
<path d="M71.3687 7.76299C72.3863 7.26756 73.4173 6.77214 74.4618 6.31688C74.8367 6.1562 75.3321 5.71433 75.225 5.24568C75.1179 4.79042 74.5287 4.81721 74.194 4.9645C73.1629 5.43315 72.1319 5.91517 71.1009 6.4106C70.7393 6.59806 70.2305 6.99976 70.3376 7.4818C70.4448 7.93706 71.0339 7.92367 71.3687 7.76299Z" fill="#F3E9E1"/>
<path d="M64.4863 17.2029C64.6604 16.828 64.0043 16.1317 63.0134 15.663C62.0226 15.1944 61.0719 15.114 60.8978 15.5024C60.7237 15.8773 61.3799 16.5736 62.3707 17.0422C63.3616 17.5109 64.3123 17.5778 64.4863 17.2029Z" fill="#D4BFA9"/>
<path d="M61.2325 14.8597C61.5672 14.2036 61.8618 13.5073 61.9689 12.7708C62.2233 11.1908 61.7547 9.36977 62.7054 8.09772C63.4017 7.17381 64.6737 6.85246 65.8119 6.98636C67.2044 7.13365 68.5702 7.92366 69.2531 9.14214C69.936 10.374 69.8155 12.0478 68.8514 13.0654C68.0346 13.9224 66.7893 14.217 65.919 15.0204C65.4369 15.4756 65.1156 16.0514 64.7541 16.6272L64.6335 16.8012C61.9421 16.6004 61.2325 14.8597 61.2325 14.8597Z" fill="#EBDBCD"/>
<path d="M65.919 12.2754C65.7985 11.8603 65.437 11.9005 65.1156 12.0478C65.0353 11.8201 64.9014 11.5255 64.6604 11.4452C64.3926 11.3515 64.0979 11.5389 63.8971 11.6996C63.4552 12.0611 63.1205 12.5968 62.933 13.1324C62.7456 13.668 62.6518 14.2437 62.4778 14.7793C62.4108 14.9936 62.7589 15.0873 62.8259 14.8597C63.0401 14.1634 63.1205 13.4135 63.4686 12.7708C63.6695 12.4093 63.9641 12.0076 64.339 11.8201C64.4595 11.7666 64.5532 11.7398 64.6335 11.8737C64.7005 11.9674 64.7541 12.0745 64.7808 12.1817C64.7808 12.195 64.7943 12.1951 64.7943 12.2084C64.7407 12.2352 64.7139 12.262 64.6737 12.2888C64.3122 12.5834 63.8436 13.0922 63.857 13.5876C63.8703 13.8152 64.0176 14.0027 64.2452 14.0161C64.4997 14.0295 64.7541 13.8152 64.9013 13.6278C65.1959 13.2662 65.2763 12.7976 65.196 12.3557C65.2763 12.3022 65.3566 12.2754 65.4369 12.2754C65.6512 12.262 65.5709 12.6235 65.5441 12.744C65.437 13.1591 65.2227 13.5207 65.0085 13.8822C64.8478 14.15 64.7005 14.4446 64.4996 14.6856C64.2854 14.9534 63.9774 15.1409 63.6962 15.3417C63.5088 15.4622 63.6963 15.7702 63.8837 15.6497C64.2185 15.422 64.5532 15.1944 64.8076 14.8731C65.062 14.5249 65.2897 14.1366 65.5039 13.7751C65.7315 13.36 66.0663 12.7574 65.919 12.2754ZM64.8612 12.9181C64.821 13.1056 64.7407 13.293 64.6068 13.4403C64.5264 13.5207 64.1917 13.8286 64.2185 13.5608C64.2319 13.4001 64.3524 13.2261 64.4327 13.0922C64.5532 12.9181 64.7005 12.7574 64.8612 12.6235C64.8746 12.7173 64.8746 12.8244 64.8612 12.9181Z" fill="#BFA990"/>
<path d="M62.3706 17.0288C61.4735 16.6003 60.8576 16.0112 60.871 15.6229L60.4826 17.2029C60.3353 17.5108 60.871 18.0732 61.6744 18.4481C62.4778 18.8231 63.241 18.89 63.3883 18.582C63.4017 18.5687 63.4016 18.5553 63.4016 18.5285L64.4193 17.2832C64.1113 17.551 63.2678 17.4573 62.3706 17.0288Z" fill="#BFA990"/>
<path d="M12.0778 37.5155C11.7564 37.5959 11.435 37.4218 11.3413 37.1004L7.15024 22.1036C7.0699 21.7823 7.24397 21.4609 7.56533 21.3672C7.88669 21.2868 8.20805 21.4609 8.30178 21.7823L12.4928 36.7791C12.5866 37.1004 12.3991 37.4352 12.0778 37.5155Z" fill="#C5C6E3"/>
<path d="M11.3145 36.913C11.3279 36.5916 11.6091 36.3238 11.9439 36.3506L27.4896 37.2611C27.811 37.2745 28.0788 37.5557 28.052 37.8905C28.0386 38.2118 27.7574 38.4796 27.4227 38.4528L11.8769 37.5423C11.5556 37.5289 11.3011 37.2477 11.3145 36.913Z" fill="#C5C6E3"/>
<path d="M72.3327 47.0492L71.6499 46.8617C71.6097 46.8483 71.5829 46.8082 71.5963 46.768C71.6097 46.7278 71.6499 46.701 71.69 46.7144L72.2122 46.8617L72.3595 46.3395C72.3729 46.2993 72.4131 46.2726 72.4533 46.286C72.4934 46.2993 72.5202 46.3395 72.5068 46.3797L72.3327 47.0492Z" fill="#EBDBCD"/>
<path d="M70.4447 46.527C70.4313 46.527 70.4313 46.527 70.4313 46.527L69.1994 46.1922C69.1593 46.1788 69.1325 46.1386 69.1459 46.0985C69.1593 46.0583 69.1995 46.0315 69.2396 46.0449L70.4715 46.3797C70.5117 46.3931 70.5384 46.4332 70.525 46.4734C70.5117 46.5136 70.4849 46.527 70.4447 46.527ZM67.9809 45.8709C67.9676 45.8709 67.9676 45.8709 67.9676 45.8709L66.7357 45.5361C66.6955 45.5227 66.6687 45.4825 66.6821 45.4424C66.6955 45.4022 66.7357 45.3754 66.7758 45.3888L68.0078 45.7236C68.0479 45.7369 68.0747 45.7771 68.0613 45.8173C68.0479 45.8441 68.0211 45.8709 67.9809 45.8709ZM65.544 45.2014C65.5306 45.2014 65.5306 45.2014 65.5306 45.2014L64.2987 44.8666C64.2585 44.8532 64.2318 44.813 64.2452 44.7729C64.2585 44.7327 64.2987 44.7059 64.3389 44.7193L65.5707 45.0541C65.6109 45.0674 65.6377 45.1076 65.6243 45.1478C65.5975 45.188 65.5708 45.2014 65.544 45.2014Z" fill="#EBDBCD"/>
<path d="M63.0802 44.5453C63.0669 44.5453 63.0668 44.5453 63.0668 44.5453L62.384 44.3578L62.5714 43.6749C62.5848 43.6347 62.625 43.608 62.6651 43.6213C62.7053 43.6347 62.7321 43.6749 62.7187 43.7151L62.5714 44.2373L63.0936 44.3846C63.1338 44.398 63.1606 44.4381 63.1472 44.4783C63.1338 44.5185 63.107 44.5453 63.0802 44.5453Z" fill="#EBDBCD"/>
<path d="M62.9597 42.5502C62.9463 42.5502 62.9463 42.5502 62.9463 42.5502C62.9061 42.5368 62.8793 42.4966 62.8927 42.4565L63.2141 41.2246C63.2275 41.1844 63.2677 41.1576 63.3078 41.171C63.348 41.1844 63.3748 41.2246 63.3614 41.2647L63.04 42.4966C63.0266 42.5234 62.9999 42.5502 62.9597 42.5502ZM63.6292 40.0998C63.6158 40.0998 63.6158 40.0998 63.6158 40.0998C63.5756 40.0864 63.5488 40.0463 63.5622 40.0061L63.8836 38.7742C63.897 38.734 63.9372 38.7073 63.9773 38.7206C64.0175 38.734 64.0443 38.7742 64.0309 38.8144L63.7095 40.0463C63.6961 40.073 63.6694 40.0998 63.6292 40.0998Z" fill="#EBDBCD"/>
<path d="M64.2853 37.6361C64.2719 37.6361 64.2719 37.6361 64.2719 37.6361C64.2318 37.6227 64.205 37.5825 64.2184 37.5423L64.4058 36.8594L65.0887 37.0469C65.1289 37.0603 65.1557 37.1005 65.1423 37.1406C65.1289 37.1808 65.0887 37.2076 65.0486 37.1942L64.5264 37.0469L64.3791 37.5691C64.3523 37.6227 64.3255 37.6361 64.2853 37.6361Z" fill="#EBDBCD"/>
<path d="M72.4264 39.1892C72.413 39.1892 72.413 39.1892 72.413 39.1892L71.1811 38.8545C71.141 38.8411 71.1142 38.8009 71.1276 38.7608C71.141 38.7206 71.1811 38.6938 71.2213 38.7072L72.4532 39.042C72.4934 39.0553 72.5201 39.0955 72.5067 39.1357C72.4933 39.1625 72.4666 39.1892 72.4264 39.1892ZM69.976 38.5197C69.9627 38.5197 69.9626 38.5197 69.9626 38.5197L68.7308 38.185C68.6906 38.1716 68.6638 38.1314 68.6772 38.0913C68.6906 38.0511 68.7308 38.0243 68.7709 38.0377L70.0028 38.3725C70.043 38.3858 70.0698 38.426 70.0564 38.4662C70.043 38.5064 70.0028 38.5197 69.976 38.5197ZM67.5123 37.8636C67.4989 37.8636 67.4989 37.8636 67.4989 37.8636L66.267 37.5289C66.2269 37.5155 66.2001 37.4753 66.2134 37.4352C66.2268 37.395 66.267 37.3682 66.3072 37.3816L67.5391 37.7163C67.5792 37.7297 67.606 37.7699 67.5926 37.8101C67.5792 37.8368 67.5524 37.8636 67.5123 37.8636Z" fill="#EBDBCD"/>
<path d="M74.1002 40.2872C74.0868 40.2872 74.0868 40.2872 74.0868 40.2872C74.0466 40.2738 74.0199 40.2337 74.0332 40.1935L74.1805 39.6713L73.6583 39.524C73.6181 39.5106 73.5913 39.4704 73.6047 39.4303C73.6181 39.3901 73.6583 39.3633 73.6985 39.3767L74.3814 39.5642L74.1939 40.2471C74.1671 40.2738 74.127 40.2872 74.1002 40.2872Z" fill="#EBDBCD"/>
<path d="M72.7747 45.2014C72.7613 45.2014 72.7613 45.2014 72.7613 45.2014C72.7211 45.188 72.6943 45.1478 72.7077 45.1076L73.0291 43.8758C73.0425 43.8356 73.0826 43.8088 73.1228 43.8222C73.163 43.8356 73.1897 43.8758 73.1764 43.9159L72.855 45.1478C72.8416 45.1746 72.8014 45.2014 72.7747 45.2014ZM73.4442 42.751C73.4308 42.751 73.4308 42.751 73.4308 42.751C73.3906 42.7376 73.3638 42.6975 73.3772 42.6573L73.6986 41.4254C73.712 41.3852 73.7521 41.3584 73.7923 41.3718C73.8325 41.3852 73.8592 41.4254 73.8459 41.4656L73.5245 42.6974C73.5111 42.7242 73.4709 42.751 73.4442 42.751Z" fill="#EBDBCD"/>
<path d="M45.8874 40.6622C43.9593 40.4881 42.4462 40.1132 41.5089 39.832C42.8613 40.6354 44.4815 41.1978 46.2624 41.3852C47.3469 41.5057 48.4181 41.4789 49.409 41.3317C49.3956 41.0772 49.3956 40.8496 49.3956 40.6488C48.4717 40.7559 47.2532 40.7961 45.8874 40.6622Z" fill="#F0A173"/>
<path d="M1.45949 18.2875C1.43271 18.2875 1.40593 18.2741 1.39254 18.2607C1.27203 18.0866 1.17831 17.8992 1.08458 17.6983C1.07119 17.6582 1.08457 17.618 1.12474 17.5912C1.16491 17.5778 1.20509 17.5912 1.23187 17.6314C1.31221 17.8188 1.40593 18.0063 1.52644 18.167C1.55322 18.2071 1.53984 18.2473 1.51306 18.2741C1.49967 18.2875 1.47288 18.2875 1.45949 18.2875Z" fill="#EBDBCD"/>
<path d="M0.910506 16.4798C0.870336 16.4798 0.83017 16.4397 0.83017 16.3995V16.3593C0.83017 15.9308 0.897123 15.5158 1.01763 15.0873C1.03102 15.0471 1.07119 15.0203 1.11136 15.0337C1.15153 15.0471 1.17831 15.0873 1.16492 15.1274C1.04441 15.5291 0.977456 15.9442 0.977456 16.3459V16.3727C0.990846 16.4397 0.950676 16.4798 0.910506 16.4798ZM1.66034 14.0295C1.64695 14.0295 1.63357 14.0295 1.62018 14.0161C1.58001 14.0027 1.56661 13.9491 1.60678 13.909C1.83441 13.5608 2.10222 13.2127 2.43697 12.8913C2.46375 12.8645 2.5173 12.8645 2.54408 12.8913C2.57086 12.9181 2.57086 12.9717 2.54408 12.9984C2.22272 13.3198 1.95492 13.6545 1.74068 13.9893C1.7139 14.0161 1.70051 14.0295 1.66034 14.0295ZM3.46799 12.1816C3.4546 12.1816 3.41443 12.1683 3.41443 12.1549C3.38765 12.1147 3.40105 12.0745 3.42783 12.0477C3.64207 11.8871 3.86969 11.7264 4.1241 11.5523C4.24461 11.472 4.37852 11.3782 4.51242 11.2979C4.55259 11.2845 4.59275 11.2845 4.61953 11.3113C4.63292 11.3515 4.63292 11.3916 4.60614 11.4184C4.48563 11.4988 4.35173 11.5791 4.21783 11.6728C3.96342 11.8335 3.74918 11.9942 3.53494 12.1683C3.49477 12.1683 3.48138 12.1816 3.46799 12.1816ZM5.62378 10.7355C5.597 10.7355 5.57022 10.7221 5.55683 10.6954C5.54344 10.6552 5.54345 10.615 5.57023 10.5882C5.99871 10.3071 6.33345 10.0794 6.61464 9.83839C6.64142 9.81161 6.69498 9.82502 6.72176 9.8518C6.74854 9.87858 6.73516 9.93213 6.70838 9.95891C6.4138 10.1999 6.07905 10.4276 5.63718 10.7221C5.65057 10.7355 5.63717 10.7355 5.62378 10.7355ZM10.1094 9.95891C10.0693 9.95891 10.0291 9.91874 10.0291 9.87857C10.0291 9.8384 10.0559 9.79823 10.1094 9.79823C10.5379 9.78484 10.953 9.74466 11.3815 9.63754C11.4216 9.62415 11.4618 9.65094 11.4752 9.69111C11.4886 9.73128 11.4618 9.77146 11.4216 9.78485C10.9798 9.89197 10.5379 9.94552 10.1094 9.95891ZM8.82399 9.83839C8.8106 9.83839 8.8106 9.83839 8.8106 9.83839C8.38212 9.75805 7.95363 9.62417 7.56532 9.4501C7.52515 9.43671 7.51177 9.38314 7.52516 9.34297C7.53855 9.3028 7.5921 9.2894 7.63227 9.30279C8.02058 9.47686 8.43569 9.59738 8.85077 9.69111C8.89095 9.7045 8.91771 9.74468 8.90432 9.78485C8.89093 9.81163 8.86415 9.83839 8.82399 9.83839ZM12.6267 9.39653C12.6 9.39653 12.5732 9.38314 12.5598 9.34297C12.5464 9.3028 12.5598 9.26262 12.6 9.23585C12.9749 9.07517 13.3498 8.87433 13.7381 8.6467C13.7783 8.63331 13.8184 8.6333 13.8452 8.67347C13.8586 8.71364 13.8586 8.75382 13.8185 8.7806C13.4168 9.02162 13.0418 9.20906 12.6535 9.36974C12.6401 9.38313 12.6267 9.39653 12.6267 9.39653ZM7.6055 9.08856C7.59211 9.08856 7.56533 9.07517 7.55194 9.07517C7.52516 9.04839 7.51177 8.99483 7.53855 8.96805C7.83313 8.6333 8.04737 8.27177 8.22144 7.89685C8.23483 7.85668 8.28839 7.8433 8.32856 7.85669C8.36873 7.87008 8.38211 7.92363 8.36872 7.9638C8.19465 8.35211 7.95364 8.72703 7.67245 9.07517C7.64567 9.08856 7.63228 9.08856 7.6055 9.08856ZM6.48074 8.7806C6.46735 8.7806 6.44056 8.7672 6.42717 8.7672C6.06564 8.47262 5.77107 8.15127 5.54344 7.78974C5.53005 7.74957 5.53006 7.70939 5.57023 7.68261C5.6104 7.66922 5.65056 7.66923 5.67734 7.7094C5.89158 8.05754 6.17277 8.36551 6.52091 8.6467C6.54769 8.67348 6.56108 8.72703 6.5343 8.75381C6.52091 8.78059 6.49413 8.7806 6.48074 8.7806ZM14.8495 8.07092C14.8227 8.07092 14.7959 8.05754 14.7825 8.04415C14.7557 8.00398 14.7691 7.9638 14.7959 7.93702C15.1173 7.70939 15.4253 7.48177 15.7064 7.24075L15.827 7.14701C15.8671 7.12023 15.9073 7.13362 15.9341 7.1604C15.9475 7.18718 15.9475 7.24074 15.9207 7.26752L15.8002 7.36125C15.5056 7.58888 15.211 7.81652 14.8897 8.05754C14.8763 8.07093 14.8629 8.07092 14.8495 8.07092ZM8.62314 6.74531C8.56958 6.74531 8.5428 6.70514 8.5428 6.66497C8.5428 6.61141 8.5428 6.57125 8.5428 6.51769C8.5428 6.34362 8.52941 6.16954 8.48924 5.99547C8.44907 5.80802 8.3955 5.62056 8.30177 5.4331C8.28838 5.39293 8.30178 5.35276 8.34195 5.32598C8.38212 5.31259 8.4223 5.32598 8.44908 5.36615C8.54281 5.55361 8.60976 5.75445 8.64993 5.9553C8.69009 6.12937 8.70347 6.31684 8.70347 6.5043C8.70347 6.55786 8.70347 6.61141 8.70347 6.66497C8.69008 6.71853 8.64992 6.74531 8.62314 6.74531ZM5.16853 6.61141C5.12836 6.61141 5.08818 6.58463 5.08818 6.54446C5.07479 6.46412 5.07479 6.357 5.07479 6.27666C5.07479 5.91513 5.15513 5.55361 5.28903 5.24564C5.30242 5.20547 5.35598 5.19207 5.39615 5.20546C5.43632 5.21885 5.44972 5.27242 5.43633 5.31259C5.30243 5.60717 5.23548 5.94191 5.23548 6.29005C5.23548 6.37039 5.23548 6.46412 5.24887 6.54446C5.26226 6.57124 5.22209 6.61141 5.16853 6.61141C5.18192 6.61141 5.18192 6.61141 5.16853 6.61141ZM7.49837 4.54935C7.48498 4.54935 7.4716 4.54935 7.45821 4.53596C7.13685 4.3485 6.8021 4.29495 6.48074 4.37529C6.41379 4.38868 6.34684 4.41546 6.27989 4.42885C6.23972 4.44224 6.19955 4.42885 6.18616 4.37529C6.17277 4.33512 6.18617 4.29494 6.23973 4.28155C6.30668 4.25477 6.38701 4.22799 6.45396 4.2146C6.81549 4.13426 7.19041 4.20121 7.55194 4.40206C7.59211 4.41545 7.60551 4.46902 7.57873 4.50919C7.55195 4.53597 7.52515 4.54935 7.49837 4.54935Z" fill="#EBDBCD"/>
<path d="M16.9383 6.53108C16.9115 6.53108 16.8848 6.51768 16.8714 6.4909C16.858 6.45073 16.858 6.41057 16.8982 6.38379C17.1258 6.24989 17.3133 6.15617 17.4873 6.10261C17.5275 6.08922 17.5677 6.11598 17.5811 6.15615C17.5944 6.19632 17.5677 6.2365 17.5275 6.24989C17.3802 6.30345 17.1927 6.37041 16.9785 6.5043C16.9785 6.53108 16.9651 6.53108 16.9383 6.53108Z" fill="#EBDBCD"/>
</svg>
