<svg width="41" height="41" viewBox="0 0 41 41" fill="none" xmlns="http://www.w3.org/2000/svg">
<path d="M33.6813 19.6625C33.8438 19.4804 33.9289 19.2419 33.9184 18.998C33.9079 18.754 33.8026 18.5238 33.625 18.3563L30.9375 15.95L21.125 7.20003C20.9531 7.0463 20.7306 6.9613 20.5 6.9613C20.2694 6.9613 20.0469 7.0463 19.875 7.20003L10.0875 15.95L7.37501 18.3563C7.20092 18.5209 7.09216 18.7428 7.06876 18.9813C7.05295 19.2086 7.11937 19.434 7.25589 19.6164C7.39242 19.7988 7.58997 19.9261 7.81251 19.975C7.81251 20.0063 9.68751 19.975 9.75001 19.975V32.9C9.75001 33.1487 9.84878 33.3871 10.0246 33.5629C10.2004 33.7388 10.4389 33.8375 10.6875 33.8375H17.0313C17.157 33.8417 17.2823 33.8206 17.3996 33.7753C17.517 33.7301 17.6241 33.6617 17.7145 33.5742C17.8049 33.4868 17.8767 33.382 17.9258 33.2662C17.9748 33.1503 18.0001 33.0258 18 32.9V25.125H23.0625V32.9C23.0625 33.1487 23.1613 33.3871 23.3371 33.5629C23.5129 33.7388 23.7514 33.8375 24 33.8375H30.2875C30.5361 33.8375 30.7746 33.7388 30.9504 33.5629C31.1262 33.3871 31.225 33.1487 31.225 32.9V19.9938H33C33.1305 19.9898 33.2587 19.9582 33.3761 19.9011C33.4935 19.844 33.5975 19.7627 33.6813 19.6625ZM24.9313 31.9625V24.1875C24.9313 23.9389 24.8325 23.7004 24.6567 23.5246C24.4809 23.3488 24.2424 23.25 23.9938 23.25H17.0313C16.7826 23.25 16.5442 23.3488 16.3683 23.5246C16.1925 23.7004 16.0938 23.9389 16.0938 24.1875V31.9625H11.65V19.0563C11.6458 18.9156 11.6115 18.7775 11.5492 18.6513C11.487 18.5251 11.3983 18.4137 11.2892 18.3248C11.1801 18.2359 11.0532 18.1714 10.917 18.1359C10.7809 18.1004 10.6386 18.0945 10.5 18.1188L11.3625 17.35L20.5 9.15003L29.6625 17.35L30.5 18.1188C30.3592 18.0915 30.2141 18.0952 30.0749 18.1297C29.9357 18.1641 29.8056 18.2285 29.6938 18.3183C29.582 18.4082 29.491 18.5213 29.4274 18.6498C29.3637 18.7783 29.3287 18.9191 29.325 19.0625V31.9625H24.9313Z" fill="black"/>
</svg>
