<svg width="375" height="354" viewBox="0 0 375 354" fill="none" xmlns="http://www.w3.org/2000/svg">
<path d="M347.258 194.692C325.622 194.692 308.029 192.71 307.395 190.254L310.565 227.977C310.565 245.888 327.049 260.47 347.179 260.47C367.308 260.47 383.793 245.808 383.793 227.977L386.963 190.174C386.646 192.71 368.973 194.692 347.258 194.692Z" fill="#DEC7B2"/>
<path d="M347.258 194.692C325.305 194.692 307.474 192.631 307.395 190.095V190.016C307.553 187.48 325.305 185.419 347.258 185.419C369.131 185.419 386.883 187.48 387.121 190.016V190.095C386.963 192.631 369.21 194.692 347.258 194.692Z" fill="#E8D4C1"/>
<path d="M347.258 193.899C328.792 193.899 313.735 192.156 313.655 190.016V189.937C313.814 187.797 328.792 186.053 347.258 186.053C365.723 186.053 380.702 187.797 380.86 189.937V190.016C380.781 192.156 365.723 193.899 347.258 193.899Z" fill="#BA9C7E"/>
<path d="M308.742 206.341C311.278 206.421 313.814 207.372 316.033 209.511C320.075 213.474 322.69 219.576 325.939 224.173C327.207 221.637 328.317 219.101 329.268 216.486C330.457 213.395 334.657 210.463 337.906 212.999C341.393 215.772 344.088 218.784 346.307 222.588C348.288 225.916 349.873 229.8 352.964 232.256C355.896 234.634 359.304 235.347 360.493 231.068C361.523 227.343 361.127 223.38 362.395 219.576C363.425 216.486 364.931 213.236 368.18 211.889C371.905 210.304 375.55 212.285 378.879 213.95C380.86 214.98 382.841 216.01 384.744 217.199L384.109 225.124C380.702 222.984 376.501 220.369 373.014 219.893C370.795 219.576 370.954 221.082 370.795 223.143C370.716 224.965 370.716 226.867 370.558 228.69C370.32 232.494 369.765 236.298 367.546 239.389C362.712 246.125 353.756 245.809 347.416 241.529C344.009 239.231 341.552 236.219 339.333 232.732C338.619 231.623 337.906 230.434 337.193 229.245C334.419 235.585 330.298 241.291 323.482 238.834C319.203 237.329 316.429 232.653 313.893 229.245C313.101 228.215 311.674 225.52 310.168 223.222L308.742 206.341Z" fill="#EBDBCD"/>
<path d="M293.129 65.8294C294.001 62.5801 297.726 62.1046 300.024 64.0066C304.304 67.5729 306.523 72.4865 308.821 77.3208C311.278 82.4721 314.289 87.1479 317.776 91.586C324.909 100.7 332.834 109.1 338.065 119.562C348.209 139.771 350.666 163.546 343.612 185.181C343.375 185.815 344.722 182.408 342.582 188.431C340.601 193.82 332.913 190.967 332.993 184.627C333.072 178.445 331.408 172.66 328.713 167.192C323.324 156.334 316.508 146.111 311.198 135.174C305.809 124.079 301.134 112.746 297.33 101.017C293.684 89.7633 290.118 77.7171 293.129 65.8294Z" fill="#4C7378"/>
<path d="M342.899 2.42855C345.673 -2.56427 353.598 0.843546 352.092 6.31187C347.416 22.3206 350.745 39.201 353.677 55.2097C356.609 71.5354 360.097 87.7027 362.078 104.187C365.644 133.431 364.455 166.24 345.99 190.729C344.009 193.344 339.808 191.205 341.473 188.034C343.295 184.547 338.699 161.802 336.638 154.511C334.578 146.982 332.438 139.454 330.615 131.925C326.89 117.105 323.879 102.047 323.165 86.7517C321.343 57.0325 328.713 28.3436 342.899 2.42855Z" fill="#57848A"/>
<path d="M351.696 164.893C353.836 154.987 352.251 144.367 354.39 134.54C356.451 124.792 359.304 114.965 363.821 106.089C368.101 97.6882 374.679 91.6652 382.445 86.4346C389.736 81.521 398.296 76.6867 400.911 67.652C402.417 62.263 411.53 63.0555 410.976 68.9994C409.708 81.0455 404.636 91.6651 398.771 102.126C392.431 113.221 386.963 123.841 383.872 136.284C378.562 157.602 373.965 185.261 349.715 191.838C346.624 192.552 347.02 186.212 351.696 164.893Z" fill="#689399"/>
<path d="M282.03 270.874H248.145V296.404H282.03V270.874Z" fill="#F8D7BC"/>
<path d="M244.703 268.824V270.874H281.914V296.404H244.703V298.299H387.784V268.824H244.703Z" fill="#4E53BA"/>
<path d="M215.266 300.968H318.622C329.646 300.968 338.697 309.981 338.697 321.044V322.436C338.697 333.46 329.801 342.512 318.777 342.512H215.305V300.968H215.266Z" fill="#F8ECE2"/>
<path d="M395.559 298.299H210.315C209.541 298.299 209.039 298.802 209.039 299.576C209.039 300.349 209.541 300.852 210.315 300.852H317.964C329.375 300.852 338.659 310.136 338.659 321.547C338.659 332.957 329.53 342.241 318.08 342.357C318.08 342.357 318.08 342.357 317.964 342.357H210.276C209.503 342.357 209 342.86 209 343.633C209 344.407 209.503 344.91 210.276 344.91H395.52C406.931 344.91 416.214 335.627 416.214 324.216V319.148C416.253 307.699 406.969 298.415 395.559 298.299C395.559 298.415 395.559 298.415 395.559 298.299Z" fill="#FF5856"/>
<path d="M321.91 309.826H215.266V308.434H321.91C322.297 308.434 322.683 308.821 322.683 309.207C322.645 309.594 322.297 309.826 321.91 309.826Z" fill="#EBD0BE"/>
<path d="M272.63 290.292H248.107V288.9H272.746C273.133 288.9 273.52 289.287 273.52 289.673C273.404 290.022 273.017 290.292 272.63 290.292Z" fill="#E0C1A6"/>
<path d="M266.789 282.285H248.107V280.893H266.905C267.292 280.893 267.679 281.164 267.679 281.666C267.563 281.899 267.292 282.285 266.789 282.285Z" fill="#E0C1A6"/>
<path d="M329.646 325.956H215.266V324.564H329.646C330.033 324.564 330.42 324.951 330.42 325.337C330.42 325.724 330.033 325.956 329.646 325.956Z" fill="#EBD0BE"/>
<path d="M315.566 334.969H215.266V333.46H315.566C315.953 333.46 316.34 333.731 316.34 334.079C316.301 334.621 315.914 334.853 315.566 334.969Z" fill="#EBD0BE"/>
<path d="M326.203 318.104H215.228V316.711H326.203C326.59 316.711 326.977 317.098 326.977 317.485C326.861 317.717 326.59 318.104 326.203 318.104Z" fill="#EBD0BE"/>
<path d="M311.582 266.542H270.077V251.186H311.582C313.98 251.186 315.914 253.081 315.914 255.518V262.365C315.914 264.647 314.019 266.542 311.582 266.542Z" fill="#F8D0B3"/>
<path d="M392.503 248.904H266.557C265.938 248.904 265.436 249.407 265.436 250.025C265.436 250.644 265.938 251.147 266.557 251.147H311.621C314.019 251.147 315.953 253.043 315.953 255.479V262.21C315.953 264.608 314.058 266.542 311.621 266.542H266.789C266.171 266.658 265.668 267.161 265.784 267.819C265.784 268.322 266.287 268.824 266.789 268.824H392.503C394.901 268.824 396.835 266.929 396.835 264.492V253.081C396.835 251.031 394.785 248.904 392.503 248.904Z" fill="#FF7A82"/>
<path d="M263.385 233.006H331.077C335.023 233.006 338.311 236.178 338.311 240.239V240.742C338.311 244.687 335.139 247.975 331.077 247.975H263.385V233.006Z" fill="#F8E7D8"/>
<path d="M379.042 232H260.446C260.175 232 259.943 232.271 259.943 232.503C259.943 232.774 260.214 233.006 260.446 233.006H330.806C334.868 233.006 338.311 236.294 338.311 240.51C338.311 244.571 335.023 248.014 330.806 248.014H260.446C260.175 248.014 259.943 248.285 259.943 248.517C259.943 248.788 260.214 249.02 260.446 249.02H379.042C383.103 249.02 386.546 245.732 386.546 241.516V239.465C386.546 235.288 383.103 232 379.042 232Z" fill="#2B31BA"/>
<path d="M323.302 237.222H263.385V236.603H323.302C323.573 236.603 323.689 236.719 323.689 236.99C323.689 237.067 323.573 237.222 323.302 237.222Z" fill="#DEBCA7"/>
<path d="M317.578 244.571H263.347V243.952H317.578C317.848 243.952 317.964 244.069 317.964 244.339C317.964 244.455 317.848 244.571 317.578 244.571Z" fill="#DEBCA7"/>
<path d="M330.033 240.897H263.385V240.123H330.033C330.149 240.123 330.42 240.239 330.42 240.51C330.42 240.626 330.304 240.897 330.033 240.897Z" fill="#DEBCA7"/>
<path d="M303.382 324.564H286.749C286.749 324.564 284.08 325.453 281.798 329.786C279.013 335.124 279.902 340.191 278.123 344.136C277.001 346.805 275.067 348.971 272.669 350.48C274.564 350.751 276.614 350.867 278.626 350.596C280.289 350.209 281.798 349.59 283.074 348.546C283.461 349.436 283.577 350.325 283.693 351.215C283.809 352.105 283.809 353.11 283.693 354C283.693 354 289.805 352.607 292.203 349.049C295.645 344.214 292.706 338.257 297.27 330.753C298.933 328.509 300.945 326.343 303.382 324.564Z" fill="#BFA990"/>
<path d="M21.6032 186.691C21.1723 197.838 20.3102 208.918 19.0175 219.861C18.7781 222.036 21.0765 222.92 21.3159 220.745C22.6565 209.462 23.5663 198.042 23.9972 186.623C24.093 184.448 21.6989 184.448 21.6032 186.691Z" fill="#9FA4FF"/>
<path d="M40.6032 99.5592C40.1723 116.431 39.3102 133.2 38.0175 149.763C37.7781 153.055 40.0765 154.393 40.3159 151.1C41.6565 134.023 42.5663 116.74 42.9972 99.4563C43.093 96.1643 40.6989 96.1643 40.6032 99.5592Z" fill="#9FA4FF"/>
<path d="M173.811 222.83C173.739 209.277 174.061 195.723 173.99 182.17C173.99 176.61 172.199 176.61 172.199 182.17C172.271 195.723 171.913 209.277 172.02 222.83C172.056 228.39 173.882 228.39 173.811 222.83Z" fill="#B3B6FF"/>
<path d="M216.811 213.064C216.739 197.021 217.061 180.979 216.99 164.936C216.99 158.355 215.199 158.355 215.199 164.936C215.271 180.979 214.913 197.021 215.02 213.064C215.056 219.645 216.882 219.645 216.811 213.064Z" fill="#B3B6FF"/>
<path d="M275.811 175.064C275.739 159.021 276.061 142.979 275.99 126.936C275.99 120.355 274.199 120.355 274.199 126.936C274.271 142.979 273.913 159.021 274.02 175.064C274.056 181.645 275.882 181.645 275.811 175.064Z" fill="#B3B6FF"/>
<path d="M215.811 270.681C215.739 259.894 216.061 249.106 215.99 238.319C215.99 233.894 214.199 233.894 214.199 238.319C214.271 249.106 213.913 259.894 214.02 270.681C214.056 275.106 215.882 275.106 215.811 270.681Z" fill="#B3B6FF"/>
<path d="M154.365 209.958C154.196 207.674 138.288 205.854 118.699 205.854C99.0688 205.854 83.1612 207.674 83.0343 209.958V210.001C83.1189 212.285 99.0688 214.147 118.742 214.147C138.415 214.147 154.365 212.285 154.449 210.001C154.407 210.001 154.365 209.958 154.365 209.958ZM118.699 213.512C102.115 213.512 88.6611 211.947 88.6188 210.043C88.6188 210.043 88.6188 210.043 88.6188 210.001C88.7457 208.097 102.157 206.531 118.699 206.531C135.242 206.531 148.653 208.097 148.78 210.001C148.78 210.001 148.78 210.001 148.78 210.043C148.738 211.904 135.284 213.47 118.699 213.512Z" fill="#E8D4C1"/>
<path d="M118.699 213.47C135.284 213.47 148.738 211.904 148.823 210.001C148.823 210.001 148.823 210.001 148.823 209.958C148.696 208.054 135.242 206.489 118.742 206.489C102.2 206.489 88.7881 208.054 88.6611 209.958C88.6611 209.958 88.6611 209.958 88.6611 210.001C88.6611 211.904 102.115 213.47 118.699 213.47Z" fill="#BA9C7E"/>
<path d="M120.392 213.893C119.165 196.039 116.753 178.228 113.242 160.67C109.73 143.155 105.077 125.851 99.3651 108.97C96.1497 99.4086 92.5534 90.0163 88.6188 80.7087C88.4495 80.4125 88.1534 80.1587 87.815 80.074C87.4765 79.9894 87.0958 80.0318 86.7996 80.201C86.5035 80.4125 86.292 80.7087 86.2074 81.0471C86.1228 81.3856 86.165 81.7663 86.3342 82.0625C93.2303 98.3932 99.0689 115.189 103.807 132.282C108.503 149.289 112.142 166.593 114.638 184.066C116.034 193.966 117.092 203.908 117.769 213.893C117.811 215.585 120.519 215.627 120.392 213.893Z" fill="#4C7378"/>
<path d="M129.573 217.277C128.6 189.312 129.784 161.305 133.126 133.509C134.057 125.724 135.157 117.982 136.426 110.239C136.723 108.547 134.1 107.828 133.846 109.52C129.277 137.232 126.865 165.281 126.569 193.416C126.484 201.37 126.611 209.324 126.865 217.277C126.95 219.012 129.615 219.012 129.573 217.277Z" fill="#4C7378"/>
<path d="M113.876 219.774C109.815 197.351 100.93 176.07 87.815 157.412C84.1342 152.166 80.1574 147.174 75.842 142.478C74.6574 141.208 72.7959 143.112 73.9382 144.381C88.9574 161.051 100.169 180.766 106.811 202.216C108.673 208.224 110.153 214.316 111.253 220.493C111.592 222.185 114.173 221.466 113.876 219.774Z" fill="#4C7378"/>
<path d="M89.8035 195.531L83.2882 192.358L77.6188 189.693C74.2765 188.085 71.865 186.774 71.7804 185.674C71.7381 184.701 74.0651 182.966 78.4228 182.162C78.9728 182.078 79.5228 181.993 80.1151 181.908C80.7074 181.824 81.342 181.824 81.9766 181.824C83.3304 181.781 84.7264 181.866 86.0803 182.035C89.211 182.458 92.215 183.389 95.0496 184.743C97.8842 186.139 100.423 188.001 102.623 190.243C103.596 191.216 104.442 192.274 105.246 193.416C105.626 193.966 105.965 194.431 106.261 194.981C106.6 195.489 106.853 195.997 107.107 196.504C109.096 200.481 109.138 203.401 108.503 203.781C107.699 204.374 105.161 203.231 101.819 201.581L96.2341 198.747L89.8035 195.531Z" fill="#4C7378"/>
<path d="M70.596 145.397C67.3383 139.855 64.9691 133.805 63.6152 127.543C62.6422 122.593 62.8958 119.293 63.8689 118.87C64.7997 118.447 67.3382 120.605 70.4689 124.285C74.3612 129.024 77.8729 134.058 80.9613 139.389C84.0498 144.678 86.6728 150.262 88.7882 156.058C90.4382 160.67 91.0304 163.885 90.3958 164.351C89.6343 164.943 86.6305 163.505 82.7805 160.247C77.9151 155.974 73.8113 150.982 70.596 145.397Z" fill="#689399"/>
<path d="M92.9341 161.305C90.3957 146.243 92.5111 133.466 94.6688 133.17C96.7841 132.874 102.284 144.466 104.78 159.316C107.276 174.166 105.246 187.028 103.723 187.324C101.819 187.704 95.4303 176.366 92.9341 161.305Z" fill="#57848A"/>
<path d="M81.2998 79.9895C78.9729 73.0934 77.5344 65.9011 77.069 58.6242C76.7729 52.955 77.3653 49.2742 78.423 49.0203C79.4383 48.7242 81.7228 51.6857 84.3882 56.5511C87.7305 62.8549 90.5228 69.4126 92.7228 76.1818C94.9651 82.951 96.6152 89.8894 97.6306 96.9548C98.3498 102.497 98.3074 106.178 97.5882 106.516C96.6997 106.897 93.9921 104.316 90.819 99.6201C86.7575 93.5279 83.5844 86.9279 81.2998 79.9895Z" fill="#57848A"/>
<path d="M98.6034 101.524C98.0111 87.1817 101.1 75.2933 103.257 75.1664C105.415 74.9972 109.984 86.5048 110.577 101.059C111.169 115.612 106.896 127.459 105.373 127.459C103.426 127.459 99.1957 115.909 98.6034 101.524Z" fill="#4C7378"/>
<path d="M87.2651 122.762C84.1343 120.139 81.4267 117.009 79.269 113.582C77.5344 110.747 76.815 108.42 77.4496 107.532C78.0842 106.643 80.4958 106.601 83.8381 107.532C87.9419 108.759 91.7919 110.874 95.0496 113.666C98.3073 116.501 100.93 120.012 102.707 123.947C104.103 127.12 104.357 129.574 103.807 130.124C103.088 130.843 100.677 130.462 97.6304 129.193C93.865 127.585 90.3535 125.428 87.2651 122.762Z" fill="#689399"/>
<path d="M116.965 181.358C115.188 176.662 113.834 171.839 112.861 166.889C112.142 162.912 112.142 160.078 113.073 159.485C114.003 158.935 116.542 160.289 119.546 163.335C123.353 167.312 126.272 172.008 128.176 177.17C130.08 182.331 130.884 187.831 130.503 193.331C130.165 197.604 129.107 200.312 128.303 200.397C127.33 200.566 125.469 198.408 123.353 194.939C120.857 190.624 118.699 186.097 116.965 181.358Z" fill="#4C7378"/>
<path d="M127.923 176.197C129.488 170.612 131.9 165.281 135.115 160.458C137.696 156.693 140.023 154.705 141.038 155.043C142.053 155.424 142.477 158.428 142.265 162.87C141.927 168.497 140.996 174.039 139.43 179.454C137.907 184.87 135.75 190.116 132.957 195.024C130.757 198.916 128.769 201.243 128.007 201.074C127.076 200.862 126.103 197.943 125.892 193.374C125.638 187.62 126.315 181.781 127.923 176.197Z" fill="#57848A"/>
<path d="M117.684 119.716C114.215 107.362 114.765 96.3202 116.838 95.6433C118.911 94.924 125.723 103.936 129.234 116.459C132.746 129.024 131.011 140.32 129.53 140.701C127.626 141.124 121.196 132.028 117.684 119.716Z" fill="#4C7378"/>
<path d="M129.827 95.0086C130.673 88.1125 132.407 81.3009 135.03 74.8702C137.146 69.8779 139.176 66.9587 140.276 67.1279C142.307 67.551 143.703 80.8779 141.757 96.5317C140.911 103.301 139.388 109.985 137.188 116.459C135.453 121.535 133.719 124.666 132.957 124.624C131.984 124.539 130.715 121.197 129.911 115.824C128.938 108.885 128.938 101.905 129.827 95.0086Z" fill="#4C7378"/>
<path d="M118.699 214.147C138.076 214.147 153.815 212.37 154.365 210.128L151.53 243.931C151.53 259.966 136.765 273.081 118.699 273.081C100.634 273.081 85.8688 259.966 85.8688 243.931L83.0343 210.085C83.4151 212.328 99.238 214.147 118.699 214.147Z" fill="#DEC7B2"/>
<path d="M153.138 224.597C150.684 224.681 148.357 225.697 146.622 227.431C142.942 230.985 140.699 236.443 137.696 240.589C136.596 238.347 135.58 236.062 134.734 233.693C133.676 230.858 129.911 228.277 126.949 230.52C123.903 232.889 121.323 235.808 119.419 239.15C117.642 242.112 116.203 245.624 113.496 247.824C110.746 250.024 107.827 250.574 106.769 246.808C105.796 243.466 106.134 239.87 105.077 236.57C104.188 233.777 102.75 230.901 99.915 229.674C96.5304 228.235 93.3149 230.012 90.3111 231.535C88.5342 232.424 86.7573 233.397 85.065 234.412L85.6573 241.562C88.7034 239.658 92.4688 237.331 95.5995 236.866C97.588 236.57 97.4612 237.924 97.5881 239.785C97.715 241.477 97.715 243.127 97.7996 244.82C97.9688 248.204 98.5188 251.631 100.465 254.466C104.738 260.516 112.819 260.22 118.488 256.37C121.407 254.297 123.861 251.631 125.723 248.543C126.357 247.57 126.949 246.47 127.584 245.412C130.038 251.081 133.719 256.158 139.896 254C143.746 252.689 146.199 248.5 148.484 245.412C149.203 244.439 150.473 242.112 151.784 239.997L153.138 224.597Z" fill="#EBDBCD"/>
<path d="M111.042 138.459C112.438 131.266 114.68 124.285 117.811 117.686C120.307 112.566 122.634 109.647 123.649 109.901C125.638 110.451 126.019 124.497 122.803 140.785C121.999 144.889 121.026 148.739 119.969 152.208C118.953 155.678 117.853 158.597 117.134 161.051C116.415 163.505 115.907 165.535 115.611 167.058C115.273 168.581 115.061 169.555 114.68 169.682C114.299 169.808 113.326 169.258 112.311 167.735C111.042 165.578 110.153 163.208 109.815 160.755C109.307 157.328 109.18 153.816 109.476 150.347C109.73 146.37 110.238 142.393 111.042 138.459Z" fill="#57848A"/>
<path d="M154.323 209.704H148.738C148.78 209.789 148.823 209.874 148.823 209.958C148.823 209.958 148.823 209.958 148.823 210.001C148.78 211.947 135.326 213.47 118.742 213.47C102.157 213.47 88.7034 211.904 88.6188 210.001C88.6188 210.001 88.6188 210.001 88.6188 209.958C88.6188 209.874 88.6612 209.789 88.7458 209.704H83.1611C83.1188 209.789 83.0766 209.874 83.0343 209.958V210.001C83.1189 212.285 99.0688 214.147 118.742 214.147C138.415 214.147 154.365 212.285 154.449 210.001V209.958C154.407 209.874 154.365 209.789 154.323 209.704Z" fill="#E8D4C1"/>
<path d="M131.984 131.52C134.099 126.359 137.061 121.578 140.742 117.432C143.703 114.216 146.242 112.693 147.215 113.201C148.146 113.709 148.23 116.628 147.553 120.816C146.623 126.062 145.142 131.182 143.069 136.132C141.969 138.797 140.657 141.42 139.261 143.916C138.076 145.989 136.765 148.02 135.369 149.966C134.184 151.532 133.296 152.801 132.619 153.774C131.942 154.747 131.477 155.466 131.053 155.508C130.673 155.551 129.826 154.958 129.234 153.647C128.515 151.828 128.219 149.839 128.346 147.851C128.43 145.312 128.769 142.732 129.319 140.235C129.953 137.232 130.842 134.312 131.984 131.52Z" fill="#689399"/>
<path d="M150.407 48.5353C146.727 47.7315 143.638 42.8238 142.496 39.8199C141.988 38.2123 141.861 36.5623 142.157 34.9123C142.242 34.1084 142.496 33.3469 142.877 32.6277C143.257 31.9084 143.765 31.3161 144.442 30.8084C145.204 30.3007 146.05 30.0046 146.981 30.0046C147.869 29.9623 148.8 30.2161 149.561 30.6815C150.323 31.1469 150.915 31.7815 151.38 32.5007C151.846 33.2199 152.142 34.0661 152.269 34.9546C153.581 33.8123 155.23 33.093 157.007 32.9238C158.403 32.7123 160.054 32.7969 161.154 33.7276C162.592 34.9123 162.719 37.1546 161.957 38.8469C160.942 40.8776 159.588 42.6968 157.853 44.1776C155.653 46.1237 153.115 47.6045 150.407 48.5353Z" fill="white" fill-opacity="0.4"/>
<path d="M238.412 56C241.296 55.3495 243.716 51.3779 244.611 48.947C245.009 47.6459 245.109 46.3106 244.877 44.9753C244.81 44.3248 244.611 43.7085 244.313 43.1265C244.015 42.5444 243.617 42.0651 243.086 41.6542C242.49 41.2434 241.826 41.0037 241.097 41.0037C240.401 40.9695 239.672 41.1749 239.075 41.5515C238.478 41.9282 238.014 42.4417 237.649 43.0237C237.285 43.6058 237.052 44.2906 236.953 45.0096C235.925 44.0851 234.632 43.5031 233.24 43.3661C232.146 43.1949 230.853 43.2634 229.991 44.0167C228.864 44.9753 228.764 46.7899 229.361 48.1595C230.157 49.8029 231.218 51.2751 232.577 52.4735C234.301 54.0484 236.29 55.2468 238.412 56Z" fill="white" fill-opacity="0.4"/>
<path d="M264.647 96C266.991 95.4796 268.957 92.3023 269.684 90.3576C270.008 89.3167 270.088 88.2485 269.9 87.1803C269.846 86.6599 269.684 86.1668 269.442 85.7012C269.199 85.2355 268.876 84.8521 268.445 84.5234C267.96 84.1947 267.422 84.003 266.829 84.003C266.263 83.9756 265.671 84.1399 265.186 84.4412C264.701 84.7425 264.324 85.1534 264.027 85.619C263.731 86.0846 263.543 86.6325 263.462 87.2077C262.627 86.4681 261.576 86.0025 260.445 85.8929C259.556 85.756 258.505 85.8107 257.805 86.4133C256.889 87.1803 256.808 88.632 257.293 89.7276C257.94 91.0423 258.802 92.2201 259.906 93.1788C261.307 94.4387 262.923 95.3974 264.647 96Z" fill="white" fill-opacity="0.4"/>
<path d="M207.353 119C205.009 118.48 203.043 115.302 202.316 113.358C201.992 112.317 201.912 111.249 202.1 110.18C202.154 109.66 202.316 109.167 202.558 108.701C202.801 108.236 203.124 107.852 203.555 107.523C204.04 107.195 204.578 107.003 205.171 107.003C205.737 106.976 206.329 107.14 206.814 107.441C207.299 107.743 207.676 108.153 207.973 108.619C208.269 109.085 208.457 109.632 208.538 110.208C209.373 109.468 210.424 109.002 211.555 108.893C212.444 108.756 213.495 108.811 214.195 109.413C215.111 110.18 215.192 111.632 214.707 112.728C214.06 114.042 213.198 115.22 212.094 116.179C210.693 117.439 209.077 118.397 207.353 119Z" fill="white" fill-opacity="0.4"/>
<path d="M161.892 314.962C164.05 314.962 165.785 314.285 165.785 313.481C165.785 312.677 164.05 312 161.892 312C159.734 312 158 312.677 158 313.481C158 314.285 159.734 314.962 161.892 314.962Z" fill="#AAACE3"/>
<path d="M161.892 314.962C159.777 314.962 158 314.285 158 313.481V314.708C158 315.512 159.734 316.188 161.892 316.188C164.05 316.188 165.785 315.512 165.785 314.708V313.481C165.785 314.285 164.05 314.962 161.892 314.962Z" fill="#868AE0"/>
<path d="M165.892 284.962C168.05 284.962 169.785 284.285 169.785 283.481C169.785 282.677 168.05 282 165.892 282C163.735 282 162 282.677 162 283.481C162 284.285 163.735 284.962 165.892 284.962Z" fill="#AAACE3"/>
<path d="M165.892 284.962C163.777 284.962 162 284.285 162 283.481V284.708C162 285.512 163.735 286.188 165.892 286.188C168.05 286.188 169.785 285.512 169.785 284.708V283.481C169.785 284.285 168.05 284.962 165.892 284.962Z" fill="#868AE0"/>
<path d="M138.892 299.962C141.05 299.962 142.785 299.285 142.785 298.481C142.785 297.677 141.05 297 138.892 297C136.735 297 135 297.677 135 298.481C135 299.285 136.692 299.962 138.892 299.962Z" fill="#AAACE3"/>
<path d="M138.892 299.962C136.777 299.962 135 299.285 135 298.481V299.708C135 300.512 136.735 301.188 138.892 301.188C141.05 301.188 142.785 300.512 142.785 299.708V298.481C142.785 299.285 141.05 299.962 138.892 299.962Z" fill="#868AE0"/>
<path d="M117.893 290.962C120.051 290.962 121.785 290.285 121.785 289.481C121.785 288.677 120.051 288 117.893 288C115.735 288 114.001 288.677 114.001 289.481C113.958 290.327 115.693 290.962 117.893 290.962Z" fill="#AAACE3"/>
<path d="M117.893 290.962C115.778 290.962 114.001 290.285 114.001 289.481V290.708C114.001 291.511 115.735 292.188 117.893 292.188C120.051 292.188 121.785 291.511 121.785 290.708V289.481C121.785 290.327 120.051 290.962 117.893 290.962Z" fill="#868AE0"/>
<path d="M129.319 318.585C133.381 318.585 136.638 317.358 136.638 315.792C136.638 314.269 133.338 313 129.319 313C125.258 313 122 314.227 122 315.792C122 317.358 125.3 318.585 129.319 318.585Z" fill="#2B31BA"/>
<path d="M129.319 318.585C125.258 318.585 122 317.358 122 315.792V318.077C122 319.6 125.3 320.869 129.319 320.869C133.381 320.869 136.638 319.642 136.638 318.077V315.792C136.638 317.358 133.381 318.585 129.319 318.585Z" fill="#110580"/>
<path d="M160 350.393C166.104 350.393 171 348.549 171 346.197C171 343.907 166.04 342 160 342C153.896 342 149 343.844 149 346.197C149 348.549 153.959 350.393 160 350.393Z" fill="#2B31BA"/>
<path d="M160 350.393C153.896 350.393 149 348.549 149 346.196V349.63C149 351.919 153.959 353.826 160 353.826C166.104 353.826 171 351.983 171 349.63V346.196C171 348.549 166.104 350.393 160 350.393Z" fill="#110580"/>
<path d="M179.551 302.235C182.631 302.235 185.102 301.305 185.102 300.118C185.102 298.963 182.599 298 179.551 298C176.471 298 174 298.931 174 300.118C174 301.273 176.471 302.235 179.551 302.235Z" fill="#2B31BA"/>
<path d="M179.551 302.235C176.503 302.235 174 301.305 174 300.118V301.882C174 303.037 176.471 304 179.551 304C182.631 304 185.102 303.07 185.102 301.882V300.15C185.102 301.273 182.631 302.235 179.551 302.235Z" fill="#110580"/>
<path d="M43.5001 331.249C48.7718 331.249 53 329.656 53 327.624C53 325.647 48.7169 324 43.5001 324C38.2285 324 34 325.593 34 327.624C34 329.601 38.2285 331.249 43.5001 331.249Z" fill="#2B31BA"/>
<path d="M43.5001 331.249C38.2834 331.249 34 329.656 34 327.624V330.645C34 332.621 38.2285 334.269 43.5001 334.269C48.7718 334.269 53 332.676 53 330.645V327.679C53 329.601 48.7718 331.249 43.5001 331.249Z" fill="#110580"/>
<path d="M50 213L39.2 213.8L44 279.4L54.8 278.6L50 213Z" fill="#DADAED"/>
<path d="M43.3999 222.3L39.7 222.6L39.8 223.4L43.5 223.1L43.3999 222.3Z" fill="#989BD7"/>
<path d="M44 229.6L40.3 229.9L40.3999 230.7L44.0999 230.4L44 229.6Z" fill="#989BD7"/>
<path d="M44.5999 237L40.8999 237.3L41 238.1L44.7 237.8L44.5999 237Z" fill="#989BD7"/>
<path d="M45.0999 244.3L41.3999 244.6L41.5 245.4L45.2 245.1L45.0999 244.3Z" fill="#989BD7"/>
<path d="M45.5999 251.7L41.8999 252L42 252.8L45.7 252.5L45.5999 251.7Z" fill="#989BD7"/>
<path d="M38.8999 235.5L32 236.7L41.0999 288.5L48 287.3L38.8999 235.5Z" fill="#FFADB2"/>
<path d="M38.8999 235.5L32 236.7L33.0999 226.8L34.5 226.5L38.8999 235.5Z" fill="#EBDBCD"/>
<path d="M33.5 231.4L34.5 230.8L35.3 230.9L36.3999 230.4L34.5999 226.7L33.2 227L32.7 230.9L33.5 231.4Z" fill="#FF7A82"/>
<path d="M54.9 277.7C53.7 277.5 52.9 276.4 53.1 275.2L58.5001 240.6C58.6001 240.3 58.6001 240 58.7001 239.8L61.8002 231.1C62.2002 230.1 63.3002 229.5 64.3002 229.7L64.8002 229.8C65.9002 230 66.6 231 66.6 232.1L65.9 241.3C65.9 241.6 65.8002 241.9 65.8002 242.2L57.6 276.2C57.2 277.2 56.1 278 54.9 277.7Z" fill="#2B31BA"/>
<path d="M95.3999 301.4H50.5V316.4H95.3999V301.4Z" fill="#F8D7BC"/>
<path d="M97.3 300.3V301.4H50.3999V316.4H97.3V317.5H0.899902V300.2H97.3V300.3Z" fill="#FF7A82"/>
<path d="M36.3999 343.3H102.7V319.1H36.3999C33.0999 319.1 30.5 321.8 30.5 325V337.3C30.5 340.7 33.0999 343.3 36.3999 343.3Z" fill="#F8ECE2"/>
<path d="M-2.80005 317.6H105.7C106.1 317.6 106.5 318 106.5 318.4C106.5 318.8 106.1 319.2 105.7 319.2H92.3999H42.5999C35.8999 319.2 30.5 324.6 30.5 331.3C30.5 338 35.8999 343.4 42.5999 343.4H104.1H105.7C106.1 343.4 106.5 343.8 106.5 344.2C106.5 344.6 106.1 345 105.7 345H-2.90015C-9.60015 345 -15 339.6 -15 332.9V329.9C-14.9 323 -9.50005 317.6 -2.80005 317.6Z" fill="#2B31BA"/>
<path d="M102.8 323H39.8999V323.8H102.8V323Z" fill="#EBD0BE"/>
<path d="M102.8 333H35.3V333.8H102.8V333Z" fill="#EBD0BE"/>
<path d="M102.8 338.2H43.5999V339H102.8V338.2Z" fill="#EBD0BE"/>
<path d="M102.8 328.3H37.3V329.1H102.8V328.3Z" fill="#EBD0BE"/>
<path d="M51.3 299.7H10V291H51.3C52.5 291 53.3999 291.9 53.3999 293.1V297.5C53.3999 298.7 52.5 299.7 51.3 299.7Z" fill="#F8E7D8"/>
<path d="M77 290.4H8.30005C8.20005 290.4 8 290.5 8 290.7C8 290.9 8.10005 291 8.30005 291H49C51.4 291 53.3 293 53.3 295.3C53.3 297.7 51.3 299.6 49 299.6H8.30005C8.20005 299.6 8 299.7 8 299.9C8 300 8.10005 300.2 8.30005 300.2H77C79.4 300.2 81.3 298.2 81.3 295.9V294.6C81.3 292.3 79.4 290.4 77 290.4Z" fill="#FF5856"/>
<path d="M34.0998 254.1H64.3C65.1 254.1 65.6998 254.8 65.5998 255.6L61.1999 290.4H36.9999L32.8 255.6C32.7 254.8 33.2998 254.1 34.0998 254.1Z" fill="#AAACE3"/>
<path d="M64.8999 229.4L64.3999 229.3C63.2999 229.1 62.2 229.7 61.8 230.7L58.5999 239.6C58.4999 239.7 58.5 239.8 58.5 240C59.5 240.8 60.8 241.5 62.2 241.7C63.5 241.9 64.7999 241.8 65.8999 241.5C65.8999 241.4 66 241.3 66 241.1L66.7 231.7C66.8 230.6 65.9999 229.7 64.8999 229.4Z" fill="#D7D7E6"/>
<path d="M65.0001 216C65.3001 215.4 66.1 215.4 66.4 216C66.9 217 67.5001 218.2 68.0001 219C68.8001 220.5 69.3002 223.9 68.8002 225.6C68.3002 227.6 66.9001 229.6 66.5001 230.3C66.4001 230.4 66.3 230.5 66.1 230.6C65.7 230.7 64.9002 230.9 63.8002 230.7C62.3002 230.3 62.2001 229.4 62.2001 229.4C62.2001 229.4 61.4001 226.2 61.5001 224.2C61.6001 222.2 62.7001 219.7 63.2001 219.3C63.5001 218.8 64.4001 217.2 65.0001 216Z" fill="#C7645D"/>
<path d="M105.7 343.3H104.1H98.8C98.4 343.9 98 344.4 97.5 344.8H105.6C106 344.8 106.4 344.4 106.4 344C106.4 343.7 106.1 343.3 105.7 343.3Z" fill="#2B31BA"/>
<path d="M105.7 319.1C106.1 319.1 106.5 318.7 106.5 318.3C106.5 317.9 106.1 317.5 105.7 317.5H100.2V319L105.7 319.1Z" fill="#2B31BA"/>
</svg>
