<svg width="122" height="95" viewBox="0 0 122 95" fill="none" xmlns="http://www.w3.org/2000/svg">
<path d="M57.3615 85.4494C58.3184 83.6797 55.4064 80.2428 50.8577 77.718C46.3091 75.1932 41.765 74.5333 40.8081 76.303C39.8512 78.0728 42.7632 81.5096 47.3119 84.0344C51.9248 86.5612 56.4046 87.2191 57.3615 85.4494Z" fill="#D4BFA9"/>
<path d="M42.6391 73.3395C44.4742 70.2477 45.9902 67.0813 46.8079 63.6353C48.526 56.1673 46.8145 47.3678 51.7571 41.6106C55.3635 37.4181 61.5069 36.3289 66.9421 37.2746C73.5915 38.452 79.7629 42.5076 82.6548 48.5801C85.4824 54.6505 84.4564 62.5908 79.5529 67.1275C75.3807 70.9162 69.3016 72.0074 65.0071 75.5992C62.5646 77.5786 60.8061 80.2871 58.9874 82.8651L58.3827 83.6817C45.517 81.855 42.6391 73.3395 42.6391 73.3395Z" fill="#EBDBCD"/>
<path d="M65.75 62.4416C65.2999 60.4339 63.5637 60.4426 61.9994 61.0998C61.649 59.9955 61.1162 58.5639 60.0386 58.0792C58.7704 57.5242 57.3284 58.3783 56.276 59.1161C54.0386 60.7162 52.2903 63.1036 51.2445 65.6421C50.1366 68.1143 49.5985 70.8619 48.6169 73.4024C48.1986 74.4178 49.8542 74.9209 50.2725 73.9055C51.5336 70.6666 52.0964 67.1483 53.9917 64.1869C55.0087 62.5477 56.5477 60.668 58.4352 59.9569C59.0215 59.7184 59.4732 59.6686 59.8401 60.2591C60.1468 60.719 60.3211 61.3033 60.4994 61.7591C60.4973 61.8233 60.5616 61.8254 60.5596 61.8896C60.2985 62.0098 60.1658 62.1342 59.969 62.2565C58.1293 63.4835 55.7408 65.7861 55.7289 68.1648C55.6939 69.2568 56.3717 70.1786 57.4616 70.2778C58.68 70.3812 59.9292 69.521 60.7288 68.6464C62.2597 67.0237 62.7793 64.8541 62.526 62.7241C62.9196 62.4796 63.3092 62.3635 63.6946 62.3758C64.7886 62.3465 64.2192 64.0644 64.0722 64.6384C63.4966 66.5489 62.2848 68.2462 61.1393 69.8813C60.2632 71.1392 59.5134 72.4654 58.515 73.5265C57.3818 74.7762 55.9419 75.566 54.5 76.4201C53.5179 76.9673 54.3699 78.4734 55.2877 77.9241C56.9265 76.9478 58.6294 75.9736 59.8993 74.4711C61.2354 72.9064 62.385 71.1429 63.5326 69.4435C64.5557 67.6116 66.3183 64.7746 65.75 62.4416ZM60.5167 65.2318C60.231 66.1228 59.8188 66.9455 59.1539 67.6315C58.7561 68.0046 57.0428 69.3 57.2104 68.0837C57.2993 67.3149 57.9684 66.5005 58.4386 65.8725C59.0435 65.056 59.8369 64.3741 60.6925 63.7586C60.6781 64.2082 60.6616 64.722 60.5167 65.2318Z" fill="#BFA990"/>
<path d="M47.3762 84.0364C43.2047 81.7809 40.4751 78.6714 40.6632 76.8127L38.3029 84.2602C37.549 85.7149 39.9034 88.4909 43.5673 90.5372C47.2311 92.5836 50.9422 93.1525 51.6961 91.6978C51.7623 91.6356 51.7643 91.5714 51.7684 91.4429L56.9638 85.8224C55.5738 87.0639 51.5456 86.3561 47.3762 84.0364Z" fill="#BFA990"/>
<path d="M2.46379 24.7927C2.39955 24.7906 2.39958 24.7906 2.33741 24.7243C2.14677 24.6539 2.09073 24.395 2.16114 24.2043C2.50493 23.5081 2.913 22.8138 3.38321 22.1859C3.51785 21.9973 3.77687 21.9413 3.89917 22.1381C4.08775 22.2727 4.14382 22.5318 3.947 22.6541C3.47885 23.2178 3.07275 23.8477 2.79318 24.5461C2.78701 24.7388 2.65649 24.7988 2.46379 24.7927Z" fill="#110580"/>
<path d="M62.8673 50.0682C62.803 50.0661 62.8029 50.0661 62.7407 49.9998L62.2332 49.7907C61.0271 49.3019 59.7589 48.747 58.4265 48.1899C58.2358 48.1195 58.1797 47.8605 58.1859 47.6678C58.2563 47.4771 58.5153 47.4211 58.708 47.4273C59.9762 47.9823 61.2444 48.5373 62.4504 49.0261L62.9581 49.2352C63.1488 49.3056 63.2691 49.5667 63.1987 49.7573C63.1905 50.0142 63.06 50.0744 62.8673 50.0682ZM54.3751 46.1954C54.3109 46.1934 54.2466 46.1913 54.1844 46.125C52.7318 45.3069 51.4097 44.4286 50.216 43.5545C50.0275 43.4199 49.9714 43.1608 50.1682 43.0385C50.3028 42.85 50.5619 42.794 50.6842 42.9908C51.8778 43.8649 53.1378 44.6769 54.5905 45.495C54.7811 45.5654 54.8372 45.8244 54.7667 46.015C54.6362 46.0751 54.5036 46.1995 54.3751 46.1954ZM46.9684 40.557C46.9041 40.5549 46.7778 40.4866 46.7156 40.4203C45.5964 39.2271 44.6721 37.9758 43.816 36.5981C43.6937 36.4013 43.7641 36.2106 43.9609 36.0883C44.1577 35.966 44.3484 36.0364 44.4707 36.2333C45.2646 37.5447 46.1268 38.7297 47.246 39.9229C47.3703 40.0555 47.3621 40.3125 47.2295 40.4368C47.1632 40.499 47.0326 40.5591 46.9684 40.557ZM42.2093 32.5601C42.0808 32.556 41.8901 32.4855 41.8321 32.2908C41.3655 30.797 40.9653 29.2409 40.824 27.6289C40.768 27.3699 40.9648 27.2476 41.1596 27.1896C41.4185 27.1336 41.5408 27.3304 41.5989 27.5251C41.8085 29.0107 42.0803 30.5627 42.6131 31.9943C42.6712 32.1891 42.5366 32.3776 42.3398 32.4999C42.2735 32.5621 42.2093 32.5601 42.2093 32.5601ZM44.8728 27.6943C44.0377 27.6676 43.1405 27.5746 42.3096 27.4193C42.0547 27.3469 41.9324 27.15 42.0029 26.9594C42.0753 26.7045 42.2721 26.5822 42.4627 26.6526C43.2937 26.8078 44.1267 26.8988 44.9618 26.9256C45.6683 26.9482 46.3769 26.9066 47.0213 26.8629C47.2803 26.8069 47.4026 27.0037 47.4606 27.1985C47.5187 27.3932 47.3198 27.5798 47.1251 27.6379C46.3522 27.6774 45.5793 27.7169 44.8728 27.6943ZM37.8503 26.1191C37.7861 26.117 37.7861 26.117 37.7219 26.115C36.4516 25.6242 35.1212 25.0028 33.4116 24.1765C33.2209 24.1061 33.1649 23.8471 33.2353 23.6565C33.3057 23.4659 33.5647 23.4098 33.7554 23.4802C35.4008 24.3045 36.7311 24.9259 38.0014 25.4166C38.192 25.4871 38.3144 25.6838 38.242 25.9387C38.1757 26.0009 37.9788 26.1232 37.8503 26.1191ZM51.4739 26.3626C51.3455 26.3584 51.2191 26.2901 51.1589 26.1596C51.1009 25.9649 51.107 25.7721 51.3038 25.6498C52.0228 25.2871 52.6795 24.858 53.2761 24.2984C53.8044 23.8653 54.2705 23.3658 54.6122 22.7338C54.6826 22.5431 55.0059 22.4891 55.1302 22.6217C55.3209 22.6921 55.3748 23.0154 55.2422 23.1397C54.8342 23.8339 54.3019 24.3956 53.7094 24.8267C53.0486 25.3842 52.3896 25.8775 51.6065 26.2382C51.6024 26.3667 51.5382 26.3646 51.4739 26.3626ZM41.283 23.3356C41.0281 23.2631 40.9059 23.0663 40.91 22.9378C41.1562 21.274 41.6553 19.7467 42.3429 18.3541C42.4133 18.1635 42.6721 18.1075 42.8628 18.178C43.0534 18.2484 43.1095 18.5073 43.039 18.6979C42.3556 19.962 41.8586 21.425 41.6145 23.0247C41.6083 23.2174 41.4115 23.3397 41.283 23.3356ZM29.4286 22.0556C29.3644 22.0536 29.3644 22.0536 29.238 21.9853C28.7323 21.7119 28.289 21.5048 27.7834 21.2314C26.8343 20.7509 25.8831 20.3346 25.0583 19.9867C24.8677 19.9163 24.7473 19.6553 24.8178 19.4646C24.8882 19.274 25.1492 19.1537 25.3399 19.2241C26.2268 19.6383 27.1159 19.9883 28.1292 20.4708C28.6348 20.7442 29.1424 20.9534 29.5838 21.2248C29.7745 21.2952 29.8305 21.5541 29.7601 21.7448C29.6897 21.9354 29.5571 22.0598 29.4286 22.0556ZM7.12477 19.798C6.9963 19.7939 6.86989 19.7256 6.80977 19.5951C6.68748 19.3983 6.75801 19.2076 6.95483 19.0853C8.26624 18.2914 9.82829 17.6984 11.3843 17.2982C11.6433 17.2422 11.7678 17.3748 11.8258 17.5696C11.8818 17.8285 11.7492 17.9529 11.5544 18.0109C10.0647 18.349 8.63303 18.8819 7.32161 19.6757C7.3175 19.8042 7.25323 19.8021 7.12477 19.798ZM20.7979 18.4999C20.7337 18.4979 20.7336 18.4979 20.7336 18.4979C19.1401 18.061 17.6026 17.8832 16.1915 17.7737C15.9346 17.7654 15.8124 17.5687 15.8186 17.376C15.8268 17.119 16.0235 16.9967 16.2162 17.0029C17.6915 17.1145 19.2912 17.3586 20.8868 17.7312C21.1416 17.8037 21.1998 17.9984 21.1294 18.1891C21.1232 18.3818 20.9906 18.5061 20.7979 18.4999ZM56.2774 18.9291C56.0204 18.9209 55.8981 18.7241 55.9042 18.5314C55.8812 17.2447 55.4686 16.074 54.7245 15.2143C54.538 15.0154 54.3514 14.8166 54.2271 14.684C54.0385 14.5494 54.0468 14.2924 54.1794 14.1681C54.314 13.9795 54.571 13.9877 54.6953 14.1203C54.9461 14.3212 55.1326 14.5201 55.3192 14.719C56.2497 15.7776 56.7244 17.0145 56.7393 18.5582C56.7331 18.7509 56.5343 18.9374 56.2774 18.9291C56.3416 18.9312 56.2774 18.9291 56.2774 18.9291ZM45.6553 15.3097C45.5269 15.3055 45.4005 15.2371 45.3383 15.1709C45.216 14.974 45.2863 14.7834 45.4189 14.6591C46.7344 13.7367 48.363 13.0816 49.9128 12.8741C50.1718 12.8181 50.2941 13.0149 50.3521 13.2096C50.4081 13.4686 50.2113 13.5909 50.0166 13.6489C48.533 13.7943 47.0993 14.3914 45.9143 15.2536C45.848 15.3158 45.7838 15.3138 45.6553 15.3097Z" fill="#110580"/>
<path d="M67.2208 4.49086C69.4502 13.1784 69.0023 21.1371 68.4635 29.9289C68.3211 32.3677 76.3107 31.852 76.9567 29.7508C79.35 21.2757 78.1669 12.043 75.7304 3.79895C74.9155 1.13658 66.5883 2.15582 67.2208 4.49086Z" fill="#F3E9E1"/>
<path d="M100.657 22.5369C96.5807 29.3507 91.5801 34.9131 86.4386 40.8568C84.1683 43.4847 91.8264 43.2799 93.2164 42.0384C99.4251 36.9005 104.409 29.8586 108.236 22.7797C109.394 20.7592 101.879 20.5185 100.657 22.5369Z" fill="#F3E9E1"/>
<path d="M98.1516 58.5928C103.607 58.8962 108.995 59.3259 114.38 59.8199C116.303 60.0101 119.411 59.3381 120.059 57.1726C120.707 55.0072 118.175 53.7688 116.445 53.5848C110.995 53.0887 105.67 52.7252 100.216 52.3576C98.2912 52.2316 95.2517 52.7773 94.5373 55.0049C93.8893 57.1703 96.3552 58.471 98.1516 58.5928Z" fill="#F3E9E1"/>
</svg>
