<svg width="45" height="45" viewBox="0 0 45 45" fill="none" xmlns="http://www.w3.org/2000/svg">
<path d="M7.5 35.625V31.875H11.25V18.75C11.25 16.1562 12.0312 13.8594 13.5938 11.8594C15.1563 9.82812 17.1875 8.5 19.6875 7.875V6.5625C19.6875 5.78125 19.9531 5.125 20.4844 4.59375C21.0469 4.03125 21.7188 3.75 22.5 3.75C23.2813 3.75 23.9375 4.03125 24.4688 4.59375C25.0313 5.125 25.3125 5.78125 25.3125 6.5625V7.875C27.8125 8.5 29.8438 9.82812 31.4062 11.8594C32.9688 13.8594 33.75 16.1562 33.75 18.75V31.875H37.5V35.625H7.5ZM22.5 41.25C21.4688 41.25 20.5781 40.8906 19.8281 40.1719C19.1094 39.4219 18.75 38.5312 18.75 37.5H26.25C26.25 38.5312 25.875 39.4219 25.125 40.1719C24.4062 40.8906 23.5313 41.25 22.5 41.25ZM15 31.875H30V18.75C30 16.6875 29.2656 14.9219 27.7969 13.4531C26.3281 11.9844 24.5625 11.25 22.5 11.25C20.4375 11.25 18.6719 11.9844 17.2031 13.4531C15.7344 14.9219 15 16.6875 15 18.75V31.875Z" fill="#6B53FF"/>
</svg>
