<svg width="41" height="41" viewBox="0 0 41 41" fill="none" xmlns="http://www.w3.org/2000/svg">
<path d="M8.625 32.9H7.375V39.15H8.625V32.9Z" fill="black"/>
<path d="M6.125 32.9C6.125 32.4027 6.32254 31.9258 6.67417 31.5742C7.02581 31.2226 7.50272 31.025 8 31.025H14.875C14.9734 31.025 15.0703 31.0018 15.1581 30.9575L17.6537 29.69C17.7289 29.6518 17.7956 29.5988 17.85 29.5344L20.5375 26.3244L21.5269 27.3138L18.8187 30.5638L14.5094 33.6419C14.4289 33.6999 14.3634 33.7763 14.3183 33.8646C14.2732 33.953 14.2498 34.0508 14.25 34.15V39.15H15.5V34.4719L19.6131 31.5344C19.6567 31.5032 19.6961 31.4666 19.7306 31.4257L20.5 30.5013L21.2694 31.425C21.3039 31.466 21.3433 31.5025 21.3869 31.5338L25.5 34.4719V39.15H26.75V34.15C26.75 34.0505 26.7263 33.9524 26.6807 33.8639C26.6352 33.7754 26.5691 33.6991 26.4881 33.6413L22.1756 30.5632L21.3125 29.525L22.225 28.43L23.1513 29.5332C23.2051 29.5977 23.2717 29.6505 23.3469 29.6882L25.8406 30.9569C25.9287 31.0018 26.0262 31.0251 26.125 31.025H33C33.4973 31.025 33.9742 31.2226 34.3258 31.5742C34.6775 31.9258 34.875 32.4027 34.875 32.9V39.15H36.125V32.9C36.124 32.0715 35.7944 31.2773 35.2086 30.6914C34.6228 30.1056 33.8285 29.776 33 29.775H31.845C32.4445 29.3562 32.8948 28.757 33.1305 28.0646C33.3661 27.3723 33.3747 26.6228 33.1552 25.9252C32.9356 25.2276 32.4993 24.6181 31.9096 24.1855C31.3199 23.7529 30.6076 23.5197 29.8762 23.5197C29.1449 23.5197 28.4326 23.7529 27.8429 24.1855C27.2532 24.6181 26.8169 25.2276 26.5973 25.9252C26.3778 26.6228 26.3864 27.3723 26.622 28.0646C26.8577 28.757 27.308 29.3562 27.9075 29.775H26.2744L24.0281 28.6319L22.9806 27.3819C23.0002 27.2836 22.9955 27.1821 22.967 27.086C22.9385 26.99 22.8869 26.9023 22.8169 26.8307L20.9419 24.9557C20.8797 24.8956 20.8061 24.8487 20.7255 24.8177C20.6449 24.7867 20.5588 24.7722 20.4725 24.775C20.3859 24.7787 20.301 24.8004 20.2232 24.8387C20.1454 24.8771 20.0764 24.9311 20.0206 24.9975L16.9738 28.6325L14.7256 29.775H13.095C13.6945 29.3562 14.1448 28.757 14.3805 28.0646C14.6161 27.3723 14.6247 26.6228 14.4052 25.9252C14.1856 25.2276 13.7493 24.6181 13.1596 24.1855C12.5699 23.7529 11.8576 23.5197 11.1263 23.5197C10.3949 23.5197 9.68259 23.7529 9.09291 24.1855C8.50322 24.6181 8.06687 25.2276 7.84731 25.9252C7.62775 26.6228 7.63641 27.3723 7.87204 28.0646C8.10766 28.757 8.55797 29.3562 9.1575 29.775H8C7.1715 29.776 6.37722 30.1056 5.79139 30.6914C5.20555 31.2773 4.87599 32.0715 4.875 32.9V39.15H6.125V32.9ZM27.6875 26.9625C27.6875 26.5299 27.8158 26.107 28.0562 25.7472C28.2965 25.3875 28.6382 25.1071 29.0379 24.9415C29.4376 24.776 29.8774 24.7327 30.3018 24.8171C30.7261 24.9015 31.1159 25.1098 31.4218 25.4157C31.7277 25.7217 31.9361 26.1114 32.0205 26.5358C32.1049 26.9601 32.0616 27.3999 31.896 27.7997C31.7304 28.1994 31.45 28.541 31.0903 28.7814C30.7306 29.0217 30.3076 29.15 29.875 29.15C29.2948 29.15 28.7384 28.9196 28.3282 28.5093C27.918 28.0991 27.6875 27.5427 27.6875 26.9625ZM8.9375 26.9625C8.9375 26.5299 9.06579 26.107 9.30616 25.7472C9.54653 25.3875 9.88817 25.1071 10.2879 24.9415C10.6876 24.776 11.1274 24.7327 11.5518 24.8171C11.9761 24.9015 12.3659 25.1098 12.6718 25.4157C12.9777 25.7217 13.1861 26.1114 13.2705 26.5358C13.3549 26.9601 13.3116 27.3999 13.146 27.7997C12.9804 28.1994 12.7 28.541 12.3403 28.7814C11.9806 29.0217 11.5576 29.15 11.125 29.15C10.5448 29.15 9.98844 28.9196 9.5782 28.5093C9.16797 28.0991 8.9375 27.5427 8.9375 26.9625Z" fill="black"/>
<path d="M33.625 32.9H32.375V39.15H33.625V32.9Z" fill="black"/>
<path d="M11.2832 13.7613L10.7 14.0825C10.5115 14.1847 10.3458 14.3243 10.213 14.4927C10.0801 14.6611 9.98302 14.8547 9.92753 15.0619C9.8731 15.2636 9.86027 15.4743 9.88982 15.6811C9.91936 15.888 9.99067 16.0866 10.0994 16.265L11.7107 18.9313C11.9355 19.2915 12.2898 19.5519 12.7007 19.659C13.1117 19.7661 13.548 19.7116 13.92 19.5069L14.5082 19.1825C14.5836 19.145 14.6683 19.1297 14.7521 19.1387C14.8359 19.1477 14.9155 19.1805 14.9813 19.2332C15.6046 19.6895 16.2828 20.0655 17 20.3525C17.0701 20.3742 17.1322 20.416 17.1787 20.4727C17.2253 20.5293 17.2542 20.5984 17.2619 20.6713V21.3144C17.2683 21.7402 17.4432 22.1461 17.7482 22.4433C18.0532 22.7405 18.4636 22.9047 18.8894 22.9H22.1107C22.5369 22.9054 22.9479 22.7414 23.2535 22.4442C23.559 22.147 23.7342 21.7407 23.7407 21.3144V20.6713C23.7484 20.5984 23.7773 20.5293 23.8238 20.4727C23.8704 20.416 23.9325 20.3742 24.0025 20.3525C24.7189 20.0653 25.3962 19.6893 26.0188 19.2332C26.0848 19.1809 26.1643 19.1484 26.248 19.1394C26.3318 19.1304 26.4163 19.1454 26.4919 19.1825L27.08 19.5069C27.4521 19.7115 27.8884 19.7658 28.2993 19.6588C28.7102 19.5517 29.0645 19.2914 29.2894 18.9313L30.9 16.265C31.009 16.0867 31.0805 15.8881 31.1102 15.6812C31.1398 15.4744 31.127 15.2636 31.0725 15.0619C31.017 14.8547 30.9198 14.661 30.7869 14.4926C30.6539 14.3242 30.4881 14.1847 30.2994 14.0825L29.7175 13.7613C29.6617 13.7349 29.6149 13.6926 29.5831 13.6396C29.5512 13.5867 29.5358 13.5255 29.5388 13.4638C29.6532 12.6762 29.6532 11.8763 29.5388 11.0888C29.5356 11.0271 29.5508 10.9659 29.5824 10.9128C29.6139 10.8598 29.6605 10.8172 29.7163 10.7907L30.2994 10.4694C30.4879 10.3672 30.6537 10.2276 30.7865 10.0592C30.9193 9.89086 31.0164 9.69718 31.0719 9.49003C31.1263 9.28831 31.1392 9.07763 31.1096 8.8708C31.0801 8.66397 31.0088 8.46531 30.9 8.2869L29.2894 5.61878C29.0644 5.25877 28.7101 4.99855 28.2992 4.89151C27.8884 4.78447 27.4521 4.83873 27.08 5.04315L26.4919 5.36753C26.4163 5.40466 26.3318 5.41961 26.248 5.41065C26.1643 5.40169 26.0848 5.36919 26.0188 5.3169C25.3955 4.8606 24.7172 4.48452 24 4.19753C23.93 4.17582 23.8679 4.13405 23.8213 4.0774C23.7748 4.02075 23.7459 3.95169 23.7382 3.87878V3.23565C23.7317 2.80985 23.5569 2.40393 23.2518 2.10675C22.9468 1.80958 22.5365 1.64535 22.1107 1.65003H18.8894C18.4631 1.64469 18.0522 1.80861 17.7466 2.10586C17.441 2.40311 17.2658 2.80941 17.2594 3.23565V3.87878C17.2517 3.95169 17.2228 4.02075 17.1762 4.0774C17.1297 4.13405 17.0676 4.17582 16.9975 4.19753C16.2812 4.48471 15.6038 4.86078 14.9813 5.3169C14.9154 5.36946 14.8359 5.40214 14.7521 5.41111C14.6683 5.42007 14.5837 5.40496 14.5082 5.36753L13.92 5.04315C13.548 4.83858 13.1117 4.78423 12.7008 4.89128C12.2899 4.99834 11.9356 5.25866 11.7107 5.61878L10.1 8.28503C9.99105 8.46334 9.91956 8.66198 9.8899 8.86883C9.86024 9.07568 9.87304 9.28641 9.92753 9.48815C9.98306 9.69538 10.0803 9.8891 10.2132 10.0575C10.3461 10.2259 10.512 10.3654 10.7007 10.4675L11.2825 10.7888C11.3384 10.8151 11.3852 10.8575 11.417 10.9104C11.4488 10.9634 11.4642 11.0246 11.4613 11.0863C11.3469 11.8738 11.3469 12.6737 11.4613 13.4613C11.4648 13.5233 11.4497 13.585 11.418 13.6385C11.3863 13.6919 11.3393 13.7347 11.2832 13.7613ZM11.8869 14.8557C12.1651 14.7066 12.3917 14.4767 12.5367 14.1963C12.6818 13.916 12.7385 13.5983 12.6994 13.285C12.6011 12.6153 12.6011 11.9348 12.6994 11.265C12.7385 10.9518 12.6818 10.6341 12.5367 10.3537C12.3917 10.0734 12.1651 9.84349 11.8869 9.6944L11.305 9.37315C11.2642 9.35182 11.2281 9.32235 11.1991 9.28656C11.1701 9.25076 11.1487 9.2094 11.1363 9.16503C11.1252 9.12584 11.1226 9.08477 11.1285 9.04449C11.1344 9.00421 11.1488 8.96563 11.1707 8.93128L12.7813 6.2644C12.8384 6.18014 12.9252 6.12048 13.0243 6.09732C13.1235 6.07415 13.2277 6.08918 13.3163 6.1394L13.9044 6.46378C14.1888 6.61612 14.5108 6.68416 14.8325 6.65991C15.1542 6.63567 15.4623 6.52014 15.7207 6.3269C16.2586 5.93303 16.8438 5.6082 17.4625 5.36003C17.7654 5.24698 18.0272 5.04544 18.214 4.78162C18.4009 4.51779 18.504 4.20387 18.51 3.88065V3.23565C18.5165 3.14108 18.5599 3.05284 18.6309 2.99002C18.7019 2.92721 18.7947 2.89488 18.8894 2.90003H22.1107C22.2054 2.89471 22.2985 2.92697 22.3696 2.98979C22.4407 3.05262 22.4842 3.14096 22.4907 3.23565V3.87878C22.4967 4.2019 22.5998 4.51573 22.7865 4.77953C22.9732 5.04333 23.2348 5.24493 23.5375 5.35815C24.1566 5.60619 24.742 5.93102 25.28 6.32503C25.5384 6.51827 25.8465 6.63379 26.1682 6.65804C26.4899 6.68228 26.8119 6.61424 27.0963 6.4619L27.6875 6.13753C27.7761 6.0873 27.8803 6.07228 27.9795 6.09544C28.0786 6.1186 28.1654 6.17826 28.2225 6.26253L29.8338 8.9294C29.8554 8.96374 29.8696 9.00223 29.8754 9.04239C29.8812 9.08254 29.8785 9.12347 29.8675 9.16253C29.8551 9.20682 29.8338 9.24811 29.8049 9.28389C29.776 9.31967 29.7401 9.3492 29.6994 9.37065L29.1163 9.6919C28.838 9.84099 28.6115 10.0709 28.4665 10.3512C28.3214 10.6316 28.2647 10.9493 28.3038 11.2625C28.4021 11.9323 28.4021 12.6128 28.3038 13.2825C28.2647 13.5958 28.3214 13.9135 28.4665 14.1938C28.6115 14.4742 28.838 14.7041 29.1163 14.8532L29.6982 15.1744C29.739 15.1957 29.775 15.2252 29.8041 15.261C29.8331 15.2968 29.8545 15.3382 29.8669 15.3825C29.8779 15.4217 29.8806 15.4628 29.8747 15.5031C29.8687 15.5434 29.8544 15.5819 29.8325 15.6163L28.2219 18.2832C28.1648 18.3674 28.078 18.4271 27.9788 18.4502C27.8797 18.4734 27.7755 18.4584 27.6869 18.4082L27.0988 18.0838C26.8143 17.9316 26.4924 17.8636 26.1707 17.8879C25.8491 17.9121 25.5409 18.0276 25.2825 18.2207C24.7446 18.6145 24.1594 18.9394 23.5407 19.1875C23.2378 19.3006 22.9759 19.5021 22.7891 19.7659C22.6023 20.0298 22.4992 20.3437 22.4932 20.6669V21.31C22.4867 21.4047 22.4432 21.4931 22.3721 21.5559C22.3009 21.6187 22.2079 21.651 22.1132 21.6457H18.8894C18.7946 21.651 18.7016 21.6187 18.6305 21.5559C18.5593 21.4931 18.5158 21.4047 18.5094 21.31V20.6713C18.5033 20.3482 18.4002 20.0343 18.2136 19.7705C18.0269 19.5067 17.7652 19.3051 17.4625 19.1919C16.8435 18.9439 16.2581 18.619 15.72 18.225C15.4228 18.0061 15.0635 17.8876 14.6944 17.8869C14.4181 17.8859 14.146 17.9552 13.9038 18.0882L13.3157 18.4125C13.2271 18.4628 13.1229 18.4778 13.0237 18.4546C12.9246 18.4315 12.8378 18.3718 12.7807 18.2875L11.1694 15.6207C11.1478 15.5863 11.1336 15.5478 11.1278 15.5077C11.122 15.4675 11.1247 15.4266 11.1357 15.3875C11.1481 15.3432 11.1694 15.3019 11.1983 15.2662C11.2272 15.2304 11.2631 15.2009 11.3038 15.1794L11.8869 14.8557Z" fill="black"/>
<path d="M20.5 17.5875C21.5507 17.5875 22.5778 17.276 23.4515 16.6922C24.3251 16.1085 25.006 15.2788 25.4081 14.308C25.8102 13.3373 25.9154 12.2691 25.7104 11.2386C25.5054 10.2081 24.9995 9.26149 24.2565 8.51852C23.5135 7.77556 22.5669 7.26959 21.5364 7.06461C20.5059 6.85962 19.4377 6.96483 18.467 7.36692C17.4963 7.76901 16.6666 8.44992 16.0828 9.32356C15.4991 10.1972 15.1875 11.2243 15.1875 12.275C15.1892 13.6835 15.7494 15.0338 16.7453 16.0297C17.7413 17.0256 19.0915 17.5859 20.5 17.5875ZM20.5 8.21253C21.3035 8.21253 22.0889 8.45079 22.757 8.89718C23.4251 9.34357 23.9458 9.97805 24.2533 10.7204C24.5607 11.4627 24.6412 12.2795 24.4844 13.0676C24.3277 13.8556 23.9408 14.5795 23.3726 15.1476C22.8045 15.7158 22.0806 16.1027 21.2926 16.2595C20.5045 16.4162 19.6877 16.3358 18.9453 16.0283C18.203 15.7208 17.5685 15.2001 17.1222 14.532C16.6758 13.864 16.4375 13.0785 16.4375 12.275C16.4388 11.198 16.8673 10.1654 17.6288 9.40387C18.3904 8.64229 19.423 8.21385 20.5 8.21253Z" fill="black"/>
</svg>
