<svg width="41" height="41" viewBox="0 0 41 41" fill="none" xmlns="http://www.w3.org/2000/svg">
<path d="M20.5 23.728C16.276 23.728 12.836 20.288 12.836 16.064C12.836 11.84 16.276 8.40002 20.5 8.40002C24.724 8.40002 28.164 11.84 28.164 16.064C28.164 20.288 24.724 23.728 20.5 23.728ZM20.5 10.584C17.484 10.584 15.028 13.04 15.028 16.056C15.028 19.072 17.484 21.528 20.5 21.528C23.516 21.528 25.972 19.072 25.972 16.056C25.972 13.04 23.516 10.584 20.5 10.584Z" fill="black"/>
<path d="M31.452 32.488H29.26C29.26 27.656 25.332 23.728 20.5 23.728C15.668 23.728 11.74 27.656 11.74 32.488H9.548C9.548 26.448 14.46 21.536 20.5 21.536C26.54 21.536 31.452 26.448 31.452 32.488Z" fill="black"/>
</svg>
